<?xml version="1.0" encoding="utf-8"?>
<!-- Generator: Adobe Illustrator 17.0.0, SVG Export Plug-In . SVG Version: 6.00 Build 0)  -->
<!DOCTYPE svg PUBLIC "-//W3C//DTD SVG 1.1//EN" "http://www.w3.org/Graphics/SVG/1.1/DTD/svg11.dtd">
<svg version="1.1" id="图层_1" xmlns="http://www.w3.org/2000/svg" xmlns:xlink="http://www.w3.org/1999/xlink" x="0px" y="0px"
	 width="100px" height="44px" viewBox="0 0 100 44" enable-background="new 0 0 100 44" xml:space="preserve">
<g>
	<path fill="#FFFFFF" d="M19.131,4.121c2.001,0,3.705,0.71,5.111,2.128c1.407,1.419,2.11,3.13,2.11,5.131
		c0,1.926-0.456,3.522-1.369,4.788c0.912,1.267,1.369,2.674,1.369,4.219v0.57c0,1.976-0.703,3.674-2.11,5.093
		c-1.406,1.419-3.11,2.128-5.111,2.128H3.473V4.121H19.131z M20.347,20.98c0-1.206-0.405-1.809-1.216-1.809h-6.005v-6.005h6.005
		c0.329,0,0.614-0.123,0.855-0.37c0.241-0.247,0.361-0.526,0.361-0.839c0-1.221-0.407-1.832-1.22-1.832H9.477v12.048h9.649
		c0.33,0,0.617-0.122,0.858-0.366C20.226,21.564,20.347,21.288,20.347,20.98z"/>
	<path fill="#FFFFFF" d="M40.641,3.589c3.446,0,6.366,1.248,8.761,3.743c2.394,2.496,3.591,5.479,3.591,8.95
		c0,3.446-1.197,6.423-3.591,8.931c-2.395,2.508-5.315,3.762-8.761,3.762s-6.372-1.254-8.779-3.762
		c-2.408-2.509-3.61-5.485-3.61-8.931c0-3.471,1.203-6.454,3.61-8.95C34.269,4.837,37.195,3.589,40.641,3.589z M40.641,22.971
		c1.763,0,3.262-0.663,4.495-1.989c1.234-1.327,1.852-2.887,1.852-4.68c0-1.819-0.618-3.392-1.852-4.718
		c-1.234-1.327-2.733-1.99-4.495-1.99c-1.788,0-3.3,0.663-4.534,1.99c-1.234,1.326-1.851,2.899-1.851,4.718
		c0,1.794,0.617,3.354,1.851,4.68C37.341,22.309,38.853,22.971,40.641,22.971z"/>
	<path fill="#EED922" d="M58.256,7.655c2.242-2.357,4.934-3.535,8.077-3.535h8.437v6.043h-8.437c-1.495,0-2.769,0.589-3.82,1.767
		c-1.052,1.178-1.577,2.591-1.577,4.237c0,1.647,0.525,3.054,1.577,4.219c1.051,1.165,2.325,1.748,3.82,1.748h8.437v6.043h-8.437
		c-3.142,0-5.834-1.172-8.077-3.516c-2.242-2.343-3.363-5.174-3.363-8.494C54.893,12.849,56.014,10.012,58.256,7.655z"/>
	<path fill="#EED922" d="M80.033,7.655c2.242-2.357,4.934-3.535,8.077-3.535h8.437v6.043h-8.437c-1.495,0-2.769,0.589-3.82,1.767
		c-1.052,1.178-1.577,2.591-1.577,4.237c0,1.647,0.525,3.054,1.577,4.219c1.051,1.165,2.325,1.748,3.82,1.748h8.437v6.043h-8.437
		c-3.142,0-5.834-1.172-8.077-3.516c-2.242-2.343-3.363-5.174-3.363-8.494C76.67,12.849,77.791,10.012,80.033,7.655z"/>
</g>
<g>
	<path fill="#FFFFFF" d="M6.574,35.918c0.374,0,0.692,0.133,0.955,0.397c0.263,0.266,0.394,0.585,0.394,0.959
		c0,0.359-0.085,0.657-0.255,0.894c0.17,0.237,0.255,0.499,0.255,0.788v0.106c0,0.369-0.131,0.686-0.394,0.951
		c-0.263,0.265-0.581,0.397-0.955,0.397H3.65v-4.493H6.574z M6.801,39.066c0-0.225-0.076-0.338-0.227-0.338H5.452v-1.121h1.122
		c0.062,0,0.115-0.022,0.16-0.069c0.045-0.046,0.067-0.098,0.067-0.156c0-0.228-0.076-0.342-0.228-0.342H4.771v2.249h1.802
		c0.062,0,0.115-0.022,0.16-0.067C6.778,39.176,6.801,39.124,6.801,39.066z"/>
	<path fill="#FFFFFF" d="M9.619,38.722c-0.057,0-0.108,0.023-0.153,0.069s-0.067,0.101-0.067,0.164c0,0.223,0.074,0.334,0.221,0.334
		h1.582v1.122H9.626c-0.369,0-0.686-0.133-0.951-0.397c-0.265-0.266-0.397-0.582-0.397-0.951v-0.106
		c0-0.374,0.133-0.693,0.397-0.958c0.265-0.265,0.582-0.397,0.951-0.397h1.292c-0.062-0.188-0.118-0.316-0.17-0.389
		c-0.09-0.114-0.211-0.172-0.362-0.172H8.66v-1.122h1.725c0.331,0,0.646,0.119,0.944,0.355c0.284,0.223,0.483,0.494,0.596,0.816
		l1.164,3.321h-1.196l-0.592-1.689H9.619z"/>
	<path fill="#FFFFFF" d="M15.566,35.805c0.596,0,1.103,0.225,1.519,0.675c0.402,0.435,0.603,0.955,0.603,1.561v2.371h-1.121V38.04
		c0-0.293-0.095-0.552-0.286-0.776s-0.429-0.338-0.715-0.338s-0.525,0.113-0.715,0.338c-0.19,0.225-0.285,0.483-0.285,0.776v2.371
		h-1.122V38.04c0-0.605,0.205-1.129,0.614-1.571C14.467,36.026,14.969,35.805,15.566,35.805z"/>
	<path fill="#FFFFFF" d="M20.082,38.021c-0.025,0.076-0.038,0.146-0.038,0.213c0,0.364,0.269,0.643,0.805,0.837
		c0.394,0.142,0.814,0.212,1.261,0.212v1.128h-0.121c-0.617,0.014-1.214-0.133-1.793-0.44c-0.683-0.364-1.027-0.833-1.031-1.405
		v1.846h-1.122v-4.493h1.122v1.555l0.036-0.028l1.568-1.526h1.415l-1.4,1.392C20.627,37.467,20.393,37.704,20.082,38.021z"/>
	<path fill="#FFFFFF" d="M27.156,35.819c0.643,0,1.188,0.232,1.635,0.699c0.447,0.466,0.672,1.022,0.672,1.671
		c0,0.644-0.225,1.199-0.672,1.668s-0.992,0.702-1.635,0.702c-0.644,0-1.19-0.233-1.64-0.702c-0.449-0.469-0.674-1.024-0.674-1.668
		c0-0.648,0.225-1.205,0.674-1.671C25.965,36.052,26.512,35.819,27.156,35.819z M27.156,39.438c0.328,0,0.609-0.124,0.84-0.371
		c0.229-0.248,0.346-0.539,0.346-0.874c0-0.34-0.117-0.634-0.346-0.882c-0.23-0.247-0.512-0.371-0.84-0.371
		c-0.334,0-0.617,0.124-0.847,0.371c-0.23,0.248-0.346,0.542-0.346,0.882c0,0.335,0.115,0.626,0.346,0.874
		C26.539,39.314,26.821,39.438,27.156,39.438z"/>
	<path fill="#FFFFFF" d="M32.971,37.175c-0.116,0.085-0.195,0.182-0.237,0.291l-0.106,0.298h0.624v1.121h-1.043l-0.143,0.369
		c-0.123,0.331-0.331,0.607-0.624,0.827c-0.294,0.22-0.597,0.33-0.908,0.33h-0.717v-1.129h0.717c0.07,0,0.158-0.041,0.263-0.124
		c0.104-0.083,0.177-0.181,0.22-0.295l0.667-1.788c0.118-0.326,0.331-0.601,0.639-0.823s0.629-0.334,0.966-0.334h0.78v1.129h-0.78
		C33.193,37.047,33.088,37.09,32.971,37.175z"/>
	<path fill="#FFFFFF" d="M37.358,36.578c0.419-0.439,0.921-0.66,1.508-0.66h1.576v1.129h-1.576c-0.279,0-0.517,0.11-0.713,0.33
		s-0.295,0.483-0.295,0.791s0.099,0.57,0.295,0.788s0.434,0.326,0.713,0.326h1.576v1.129h-1.576c-0.587,0-1.089-0.219-1.508-0.656
		c-0.419-0.438-0.628-0.967-0.628-1.587C36.73,37.549,36.939,37.019,37.358,36.578z"/>
	<path fill="#FFFFFF" d="M40.797,40.411l1.164-3.343c0.113-0.317,0.312-0.588,0.6-0.812c0.286-0.225,0.593-0.338,0.919-0.338h0.71
		v1.114h-0.71c-0.218,0-0.376,0.138-0.476,0.412l-1.029,2.967H40.797z"/>
	<path fill="#FFFFFF" d="M47.468,35.918h1.283l-0.973,1.824c-0.156,0.298-0.398,0.74-0.725,1.326
		c-0.011,0.019-0.022,0.037-0.038,0.056l-0.166,0.308c-0.156,0.279-0.392,0.512-0.707,0.699c-0.314,0.187-0.633,0.28-0.954,0.28
		H44.55v-1.122h0.639c0.104,0,0.218-0.032,0.341-0.099s0.22-0.146,0.291-0.235l-1.313-3.037h1.23l0.772,1.785
		C46.719,37.339,47.039,36.744,47.468,35.918z"/>
	<path fill="#FFFFFF" d="M51.591,35.954c0.473,0,0.875,0.175,1.206,0.525c0.317,0.345,0.476,0.757,0.476,1.234
		c0,0.474-0.158,0.883-0.475,1.228c-0.33,0.351-0.731,0.525-1.203,0.525h-1.374v0.944H49.1v-4.457H51.591z M51.589,38.346
		c0.159,0,0.293-0.065,0.401-0.196c0.107-0.131,0.162-0.276,0.162-0.436c0-0.164-0.055-0.312-0.162-0.442
		c-0.108-0.131-0.242-0.196-0.401-0.196h-1.367v1.271H51.589z"/>
	<path fill="#FFFFFF" d="M55.041,36.586h1.191v1.121H55.43l0.409,1.176c0.099,0.271,0.257,0.406,0.474,0.406h0.707v1.122h-0.71
		c-0.326,0-0.633-0.112-0.919-0.337c-0.287-0.226-0.486-0.496-0.6-0.813l-1.164-3.343h1.18L55.041,36.586z"/>
	<path fill="#FFFFFF" d="M59.689,35.819c0.644,0,1.188,0.232,1.636,0.699c0.447,0.466,0.671,1.022,0.671,1.671
		c0,0.644-0.224,1.199-0.671,1.668s-0.992,0.702-1.636,0.702s-1.19-0.233-1.64-0.702s-0.674-1.024-0.674-1.668
		c0-0.648,0.225-1.205,0.674-1.671C58.499,36.052,59.046,35.819,59.689,35.819z M59.689,39.438c0.329,0,0.609-0.124,0.84-0.371
		c0.229-0.248,0.346-0.539,0.346-0.874c0-0.34-0.116-0.634-0.346-0.882c-0.23-0.247-0.511-0.371-0.84-0.371
		c-0.334,0-0.616,0.124-0.847,0.371c-0.23,0.248-0.346,0.542-0.346,0.882c0,0.335,0.115,0.626,0.346,0.874
		C59.073,39.314,59.355,39.438,59.689,39.438z"/>
	<path fill="#FFFFFF" d="M62.978,36.578c0.419-0.439,0.921-0.66,1.508-0.66h1.576v1.129h-1.576c-0.279,0-0.517,0.11-0.713,0.33
		s-0.295,0.483-0.295,0.791s0.099,0.57,0.295,0.788s0.434,0.326,0.713,0.326h1.576v1.129h-1.576c-0.587,0-1.089-0.219-1.508-0.656
		c-0.419-0.438-0.628-0.967-0.628-1.587C62.35,37.549,62.559,37.019,62.978,36.578z"/>
	<path fill="#FFFFFF" d="M68.539,39.396c0.286,0,0.524-0.11,0.715-0.333s0.285-0.48,0.285-0.773v-2.343h1.122v2.343
		c0,0.601-0.201,1.119-0.604,1.554c-0.416,0.45-0.923,0.675-1.519,0.675c-0.597,0-1.103-0.225-1.52-0.675
		c-0.401-0.435-0.603-0.953-0.603-1.554v-2.343h1.121v2.343c0,0.293,0.095,0.551,0.285,0.773S68.252,39.396,68.539,39.396z"/>
	<path fill="#FFFFFF" d="M71.016,40.411l1.164-3.343c0.113-0.317,0.312-0.588,0.6-0.812c0.286-0.225,0.593-0.338,0.919-0.338h0.71
		v1.114h-0.71c-0.218,0-0.376,0.138-0.476,0.412l-1.029,2.967H71.016z"/>
	<path fill="#FFFFFF" d="M74.763,40.411l1.164-3.343c0.113-0.317,0.312-0.588,0.6-0.812c0.286-0.225,0.593-0.338,0.919-0.338h0.71
		v1.114h-0.71c-0.218,0-0.376,0.138-0.476,0.412l-1.029,2.967H74.763z"/>
	<path fill="#FFFFFF" d="M78.51,38.154c0-0.615,0.214-1.146,0.642-1.59c0.429-0.445,0.948-0.667,1.559-0.667h0.965
		c0.359,0,0.667,0.127,0.923,0.383c0.255,0.256,0.383,0.563,0.383,0.923v0.206c0,0.359-0.128,0.668-0.383,0.926
		c-0.256,0.258-0.563,0.387-0.923,0.387h-1.49v-1.121h1.49c0.123,0,0.185-0.062,0.185-0.188c0-0.139-0.005-0.222-0.015-0.251
		c-0.019-0.096-0.075-0.144-0.171-0.144h-0.968c-0.304,0-0.559,0.112-0.766,0.338c-0.206,0.226-0.31,0.492-0.31,0.801
		c0,0.304,0.104,0.568,0.31,0.794s0.461,0.338,0.765,0.338h2.127v1.122h-2.122c-0.61,0-1.13-0.223-1.559-0.667
		C78.724,39.299,78.51,38.77,78.51,38.154z"/>
	<path fill="#FFFFFF" d="M85.459,35.805c0.596,0,1.103,0.225,1.519,0.675c0.402,0.435,0.604,0.955,0.604,1.561v2.371h-1.122V38.04
		c0-0.293-0.095-0.552-0.285-0.776s-0.429-0.338-0.715-0.338c-0.287,0-0.525,0.113-0.716,0.338s-0.285,0.483-0.285,0.776v2.371
		h-1.121V38.04c0-0.605,0.204-1.129,0.613-1.571S84.862,35.805,85.459,35.805z"/>
	<path fill="#FFFFFF" d="M88.507,36.578c0.419-0.439,0.921-0.66,1.508-0.66h1.575v1.129h-1.575c-0.279,0-0.517,0.11-0.713,0.33
		s-0.295,0.483-0.295,0.791s0.099,0.57,0.295,0.788s0.434,0.326,0.713,0.326h1.575v1.129h-1.575c-0.587,0-1.089-0.219-1.508-0.656
		c-0.419-0.438-0.628-0.967-0.628-1.587C87.879,37.549,88.088,37.019,88.507,36.578z"/>
	<path fill="#FFFFFF" d="M94.927,35.918h1.283l-0.973,1.824c-0.156,0.298-0.398,0.74-0.725,1.326
		c-0.011,0.019-0.022,0.037-0.038,0.056l-0.166,0.308c-0.156,0.279-0.392,0.512-0.707,0.699c-0.314,0.187-0.633,0.28-0.954,0.28
		h-0.639v-1.122h0.639c0.104,0,0.218-0.032,0.341-0.099s0.22-0.146,0.291-0.235l-1.313-3.037h1.23l0.772,1.785
		C94.178,37.339,94.498,36.744,94.927,35.918z"/>
</g>
</svg>
