<?xml version="1.0" encoding="utf-8"?>
<!-- Generator: Adobe Illustrator 16.0.0, SVG Export Plug-In . SVG Version: 6.00 Build 0)  -->
<!DOCTYPE svg PUBLIC "-//W3C//DTD SVG 1.1//EN" "http://www.w3.org/Graphics/SVG/1.1/DTD/svg11.dtd">
<svg version="1.1" id="图层_1" xmlns="http://www.w3.org/2000/svg" xmlns:xlink="http://www.w3.org/1999/xlink" x="0px" y="0px"
	 width="840px" height="484px" viewBox="-408 -230 840 484" enable-background="new -408 -230 840 484" xml:space="preserve">
<circle fill="#FFFFFF" stroke="#ECE9F2" stroke-width="2" stroke-miterlimit="10" cx="-341.076" cy="104.6" r="43.107"/>
<g>
	<path fill="#FFFFFF" stroke="#3D3D61" stroke-width="4" stroke-miterlimit="10" d="M93.536-35.106
		c0,5.959-4.832,10.791-10.79,10.791H-54.628c-5.96,0-10.791-4.832-10.791-10.791v-90.476c0-5.959,4.831-10.791,10.791-10.791
		H82.746c5.958,0,10.79,4.831,10.79,10.791V-35.106z"/>
	<path fill="#E4E0EC" d="M30.879-95.493l2.104-2.105c-4.578-1.312-10.277-0.679-16.208,1.671l2.735,1.671
		C23.649-95.667,27.569-96.116,30.879-95.493z"/>
	<circle fill="#E4E0EC" cx="-8.849" cy="-92.415" r="5.183"/>
	<path fill="#F9B956" d="M-10.682-94.25c1.012-1.009,2.653-1.009,3.665,0c1.013,1.014,1.013,2.654,0,3.666
		c-1.012,1.013-2.653,1.013-3.665,0C-11.693-91.595-11.693-93.236-10.682-94.25z"/>
	<path fill="#E4E0EC" d="M18.47-46.697c3.524-2.167,6.998-4.903,10.248-8.152c10.963-10.964,16.035-24.487,13.431-33.586
		l-2.107,2.104c1.529,8.115-3.387,19.88-13.154,29.651c-3.405,3.404-7.054,6.22-10.707,8.377L18.47-46.697z"/>
	<path fill="#E4E0EC" d="M33.299-88.75c2.023,2.023,5.307,2.023,7.328,0c2.027-2.024,2.027-5.306,0-7.331
		c-2.021-2.025-5.305-2.025-7.328,0C31.275-94.056,31.275-90.774,33.299-88.75z"/>
	<path fill="#18CD75" d="M35.13-94.25c1.015-1.009,2.656-1.009,3.667,0c1.013,1.014,1.013,2.654,0,3.666
		c-1.011,1.013-2.652,1.013-3.667,0C34.119-91.595,34.119-93.236,35.13-94.25z"/>
	<path fill="#E4E0EC" d="M38.728-64.276c1.472,4.224,1.949,8.22,1.313,11.589l2.107,2.103c1.316-4.603,0.668-10.336-1.711-16.299
		L38.728-64.276z"/>
	<path fill="#E4E0EC" d="M-2.764-43.525l-2.105,2.104c4.547,1.303,10.197,0.687,16.081-1.62l-2.509-1.756
		C4.526-43.358,0.572-42.896-2.764-43.525z"/>
	<path fill="#E4E0EC" d="M-10.734-75.093c-1.377-4.092-1.811-7.962-1.192-11.238l-2.105-2.104c-1.31,4.571-0.681,10.26,1.66,16.181
		L-10.734-75.093z"/>
	<path fill="#E4E0EC" d="M33.299-50.268c-2.023,2.023-2.023,5.306,0,7.329c2.023,2.024,5.307,2.024,7.328,0
		c2.027-2.023,2.027-5.306,0-7.329C38.605-52.291,35.322-52.291,33.299-50.268z"/>
	<circle fill="#FF4B81" cx="36.963" cy="-46.603" r="2.593"/>
	<circle fill="#E4E0EC" cx="-8.849" cy="-46.603" r="5.183"/>
	<circle fill="#8050F3" cx="-8.85" cy="-46.603" r="2.592"/>
	<path fill="#E4E0EC" d="M-11.926-52.687c-1.528-8.115,3.388-19.882,13.156-29.65c3.264-3.261,6.747-5.983,10.246-8.103
		l-2.447-1.496c-3.308,2.104-6.57,4.707-9.629,7.767c-10.965,10.964-16.037,24.486-13.43,33.586L-11.926-52.687z"/>
	<path fill="#E4E0EC" d="M26.887-82.337c3.295,3.297,6.037,6.82,8.168,10.356l1.553-2.365c-2.125-3.374-4.77-6.702-7.89-9.824
		C17.754-95.133,4.23-100.204-4.869-97.598l2.105,2.105C5.352-97.022,17.117-92.105,26.887-82.337z"/>
	<path fill="#E4E0EC" d="M1.229-56.68c-3.343-3.346-6.115-6.922-8.26-10.503l-1.455,2.521c2.124,3.369,4.765,6.694,7.884,9.813
		C10.36-43.886,23.883-38.817,32.982-41.42l-2.104-2.104C22.764-41.997,10.999-46.913,1.229-56.68z"/>
	
		<line fill="none" stroke="#3D3D61" stroke-width="4" stroke-miterlimit="10" x1="-65.419" y1="-117.381" x2="93.536" y2="-117.381"/>
	<circle fill="#3D3D61" cx="-53.811" cy="-126.65" r="3.113"/>
	<circle fill="#3D3D61" cx="-44.126" cy="-126.65" r="3.113"/>
	<circle fill="#3D3D61" cx="-34.442" cy="-126.65" r="3.113"/>
	<path fill="#3D3D61" d="M9.695-55.889c0.719,0,1.306-0.587,1.306-1.307V-78.16c0.001-0.532-0.322-1.01-0.813-1.21
		c-0.492-0.204-1.058-0.087-1.426,0.298l-7.451,7.631c-0.506,0.518-0.497,1.341,0.021,1.845c0.517,0.507,1.342,0.492,1.845-0.022
		l5.209-5.335v17.757C8.387-56.477,8.974-55.889,9.695-55.889z"/>
	<path fill="#3D3D61" d="M18.422-79.244c-0.719,0-1.307,0.586-1.307,1.308v20.965c0,0.532,0.324,1.01,0.816,1.207
		c0.155,0.066,0.321,0.101,0.49,0.101c0.347,0,0.688-0.138,0.932-0.395l7.451-7.631c0.508-0.52,0.497-1.342-0.019-1.846
		c-0.521-0.507-1.345-0.492-1.846,0.02l-5.21,5.336v-17.756C19.73-78.658,19.141-79.244,18.422-79.244z"/>
	<rect x="-53.811" y="-97.767" fill="#ECE9F2" width="29.441" height="7.022"/>
	<rect x="-53.811" y="-74.4" fill="#ECE9F2" width="29.441" height="7.022"/>
	<rect x="-53.811" y="-51.033" fill="#ECE9F2" width="29.441" height="7.022"/>
	<rect x="52.493" y="-97.767" fill="#ECE9F2" width="29.441" height="7.022"/>
	<rect x="52.493" y="-74.4" fill="#ECE9F2" width="29.441" height="7.022"/>
	<rect x="52.493" y="-51.033" fill="#ECE9F2" width="29.441" height="7.022"/>
</g>
<g>
	<path fill="#3D3D61" d="M-44.081-0.27h1.178v2.063h6.188v1.061h-6.188v2.121h3.949v1.002c-0.864,1.886-2.063,3.458-3.595,4.714
		c1.375,0.787,3.379,1.356,6.012,1.709c-0.118,0.118-0.315,0.393-0.589,0.824c-0.118,0.196-0.197,0.335-0.236,0.412
		c-2.711-0.549-4.774-1.276-6.188-2.18c-1.454,0.826-3.595,1.61-6.424,2.356c-0.275-0.549-0.492-0.923-0.648-1.119
		c2.985-0.629,5.029-1.276,6.129-1.944c-1.336-1.1-2.417-2.691-3.241-4.773h-1.415V4.975h5.069V2.854h-6.483V1.793h6.483V-0.27z
		 M-40.25,5.978h-6.247c0.668,1.768,1.65,3.143,2.947,4.125C-42.018,8.924-40.919,7.55-40.25,5.978z"/>
	<path fill="#3D3D61" d="M-35.653,7.451c0.079,0,0.177-0.019,0.295-0.059c0.432-0.078,1.002-0.215,1.709-0.412V3.62h-1.886V2.618
		h1.886v-2.77h1.12v2.77h1.827V3.62h-1.827v3.124c0.197-0.039,0.472-0.118,0.826-0.236c0.354-0.078,0.608-0.137,0.766-0.177
		c0,0.079,0.019,0.256,0.059,0.53c0,0.236,0,0.413,0,0.53c-0.118,0.041-0.354,0.099-0.707,0.177
		c-0.393,0.079-0.708,0.158-0.943,0.236v4.244c0.079,1.021-0.433,1.531-1.532,1.531c-0.236,0.04-0.648,0.059-1.238,0.059
		c0-0.039,0-0.098,0-0.177c-0.04-0.235-0.118-0.569-0.236-1c0.51,0,0.943,0,1.297,0c0.432,0.039,0.627-0.118,0.589-0.472v-3.89
		c-0.157,0.041-0.393,0.118-0.707,0.236c-0.551,0.158-0.943,0.256-1.179,0.295L-35.653,7.451z M-30.879,4.857h4.125V2.854h-3.3
		V1.852h3.3v-2.003h1.12v2.003h3.3v1.002h-3.3v2.003h4.244v1.061h-9.489V4.857z M-24.809,6.39h1.119v1.473h2.181v1.002h-2.181v3.183
		c0.039,1.06-0.492,1.571-1.591,1.531c-0.669,0-1.296,0-1.886,0c-0.08-0.354-0.177-0.726-0.294-1.119
		c0.627,0.039,1.257,0.059,1.886,0.059c0.55,0,0.805-0.217,0.767-0.649V8.865h-6.012V7.863h6.012V6.39z M-29.937,9.69l0.825-0.589
		c0.786,0.825,1.375,1.532,1.768,2.122l-0.943,0.648C-28.719,11.164-29.269,10.438-29.937,9.69z"/>
	<path fill="#3D3D61" d="M-14.849,12.578h-4.892V0.791h4.597c2.358,0.118,3.615,1.101,3.772,2.947
		c-0.118,1.455-0.905,2.318-2.357,2.593V6.39c1.768,0.275,2.711,1.278,2.829,3.005C-11.018,11.439-12.335,12.499-14.849,12.578z
		 M-15.438,1.97h-3.065v3.948h3.065c1.611-0.078,2.495-0.785,2.652-2.122C-12.866,2.618-13.75,2.01-15.438,1.97z M-15.262,7.097
		h-3.242v4.42h3.478c1.846,0,2.77-0.766,2.77-2.298C-12.374,7.883-13.375,7.176-15.262,7.097z"/>
	<path fill="#3D3D61" d="M-0.233,0.791v1.12h-4.008v10.667h-1.355V1.911h-4.008v-1.12H-0.233z"/>
	<path fill="#3D3D61" d="M9.845,8.511l1.532,0.354c-0.747,2.554-2.456,3.85-5.127,3.889c-3.38-0.196-5.167-2.139-5.363-5.833
		C1.042,2.913,2.87,0.811,6.368,0.614c2.239,0.079,3.831,1.219,4.773,3.418L9.668,4.386C8.961,2.697,7.82,1.833,6.25,1.793
		c-2.397,0.236-3.713,1.906-3.949,5.01c0.156,3.025,1.453,4.655,3.89,4.891C8.115,11.616,9.333,10.555,9.845,8.511z"/>
	<path fill="#3D3D61" d="M14.206,9.926l0.884-0.708l3.065,3.359l-0.943,0.824L14.206,9.926z"/>
	<path fill="#3D3D61" d="M29.765,11.517h7.485v1.061h-8.841V0.791h8.486v1.12h-7.131v4.007h6.718v1.179h-6.718V11.517z"/>
	<path fill="#3D3D61" d="M47.857,0.791v1.12H43.85v10.667h-1.355V1.911h-4.007v-1.12H47.857z"/>
	<path fill="#3D3D61" d="M57.404,0.791h1.298v11.787h-1.298V7.097h-6.6v5.481h-1.356V0.791h1.356v5.127h6.6V0.791z"/>
	<path fill="#3D3D61" d="M67.483-0.388l1.061,0.236c-0.236,0.394-0.472,0.806-0.707,1.237h4.185V1.97h-4.774
		c-0.511,0.747-1.158,1.434-1.944,2.062c-0.235-0.274-0.472-0.53-0.707-0.766C65.892,2.167,66.854,0.949,67.483-0.388z
		 M64.714,6.685h6.363V5.271h-5.362V4.327h5.362V3.325h1.121v1.002h5.6v0.943h-5.6v1.414H78.8v0.943H64.714V6.685z M74.084,7.922
		h1.119v1.12h3.066v0.943h-3.066v1.827c0.039,1.219-0.608,1.808-1.944,1.768c-0.393,0.04-1.061,0.059-2.004,0.059
		c-0.039-0.313-0.138-0.726-0.295-1.236c0.708,0.039,1.395,0.059,2.063,0.059c0.746,0.039,1.1-0.256,1.061-0.884V9.985h-8.899V9.042
		h8.899V7.922z M69.074,4.091c-0.038-0.039-0.079-0.078-0.118-0.118c-0.432-0.589-0.805-1.021-1.119-1.296l0.766-0.589
		c0.434,0.432,0.846,0.884,1.237,1.355L69.074,4.091z M67.837,10.81l0.766-0.707c0.393,0.314,1.002,0.865,1.827,1.65
		c0.079,0.04,0.139,0.079,0.177,0.118l-0.825,0.708C69.153,11.989,68.505,11.399,67.837,10.81z M73.554-0.329l1.061,0.177
		c-0.079,0.197-0.196,0.433-0.354,0.707c-0.118,0.236-0.196,0.413-0.236,0.53h4.599V1.97h-5.129
		c-0.314,0.471-0.647,0.943-1.001,1.414c-0.275-0.236-0.59-0.451-0.943-0.648C72.375,1.951,73.043,0.929,73.554-0.329z
		 M75.263,4.091c-0.472-0.628-0.864-1.1-1.179-1.414l0.766-0.589c0.079,0.118,0.217,0.275,0.413,0.471
		c0.354,0.394,0.628,0.708,0.824,0.943L75.263,4.091z"/>
	<path fill="#3D3D61" d="M-53.952,17.718l1.237,0.177c-0.511,0.512-1.022,0.983-1.532,1.414h6.306v0.942
		c-3.3,2.554-7.329,4.521-12.082,5.895c-0.04-0.118-0.198-0.354-0.472-0.708c-0.08-0.117-0.139-0.195-0.177-0.235
		c4.558-1.256,8.23-2.888,11.021-4.892h-5.893c-0.04,0-0.099,0.04-0.177,0.117c-0.118,0.041-0.197,0.079-0.235,0.118
		c0.274,0.236,0.648,0.57,1.12,1.002c0.274,0.236,0.472,0.413,0.589,0.531l-0.884,0.766c-0.551-0.629-1.101-1.219-1.65-1.769
		c-0.747,0.472-1.572,0.903-2.476,1.298c-0.079-0.118-0.197-0.256-0.354-0.413c-0.118-0.117-0.235-0.255-0.354-0.413
		C-57.528,20.527-55.524,19.25-53.952,17.718z M-51.713,23.435l1.061,0.295c-0.433,0.394-0.884,0.747-1.356,1.061h4.597v1.001
		c-2.986,3.261-7.112,5.305-12.376,6.13c-0.08-0.235-0.275-0.551-0.589-0.943c4.989-0.747,8.82-2.475,11.492-5.187h-4.538
		c-0.393,0.236-0.825,0.49-1.296,0.767c0.118,0.118,0.294,0.295,0.53,0.53c0.432,0.394,0.727,0.688,0.884,0.884l-0.884,0.768
		c-0.236-0.276-0.688-0.807-1.355-1.593c-0.04-0.039-0.08-0.077-0.118-0.117c-0.982,0.512-2.063,1.001-3.242,1.474
		c-0.197-0.275-0.393-0.57-0.589-0.885C-55.956,26.244-53.363,24.849-51.713,23.435z"/>
	<path fill="#3D3D61" d="M-45.584,22.256h2.122v-2.358c-0.589,0.041-1.237,0.06-1.945,0.06c0-0.354-0.059-0.688-0.177-1.002
		c2.278-0.077,3.949-0.177,5.01-0.295l0.177,1.061c-0.08,0-0.216,0.021-0.412,0.06c-0.708,0.04-1.238,0.059-1.592,0.059v2.417h2.004
		v1.002h-2.004v1.826l0.59-0.471c0.549,0.629,1.12,1.277,1.709,1.944l-0.884,0.766c-0.472-0.667-0.943-1.296-1.415-1.886v6.365
		h-1.061v-6.247c-0.472,1.337-1.101,2.574-1.886,3.714c-0.039-0.079-0.118-0.218-0.236-0.413c-0.157-0.314-0.275-0.55-0.354-0.708
		c0.982-1.374,1.748-3.005,2.299-4.891h-1.945V22.256z M-36.625,17.895h1.061v2.888h3.242v6.895h-1.061V26.97h-2.181v4.893h-1.061
		V26.97h-2.24v0.707h-1.002v-6.895h3.242V17.895z M-38.865,21.726v4.243h2.24v-4.243H-38.865z M-33.384,21.726h-2.181v4.243h2.181
		V21.726z"/>
	<path fill="#3D3D61" d="M-30.614,26.086h2.181c0.118-0.158,0.255-0.372,0.412-0.648c0.078-0.157,0.137-0.275,0.177-0.354
		l1.061,0.236l-0.472,0.766h3.595c-0.118,1.532-0.688,2.672-1.709,3.419c0.118,0.039,0.294,0.118,0.531,0.235
		c0.472,0.236,0.825,0.372,1.061,0.413l-0.648,0.884c-0.197-0.081-0.511-0.236-0.943-0.472c-0.393-0.198-0.707-0.335-0.943-0.412
		c-1.101,0.707-2.437,1.256-4.007,1.649c-0.04-0.117-0.157-0.315-0.354-0.589c-0.08-0.158-0.139-0.276-0.177-0.354
		c1.334-0.316,2.514-0.707,3.536-1.179c-0.472-0.235-1.238-0.589-2.299-1.061c0.746,0.313,0.648,0.274-0.294-0.118
		c0.314-0.432,0.628-0.924,0.943-1.474h-1.65V26.086z M-27.078,18.013h1.002v3.182h2.947v0.943h-2.947v1.297l0.53-0.59
		c0.59,0.354,1.297,0.844,2.122,1.474l-0.648,0.766c-0.118-0.077-0.275-0.195-0.471-0.354c-0.59-0.512-1.101-0.924-1.533-1.237
		v1.474h-1.002v-2.063c-0.707,0.865-1.729,1.69-3.064,2.475c-0.118-0.235-0.315-0.512-0.589-0.825
		c1.334-0.667,2.436-1.473,3.3-2.416h-3.006v-0.943h3.359V18.013z M-30.143,19.132l0.707-0.589c0.51,0.471,1.061,1.001,1.65,1.591
		l-0.825,0.648C-28.925,20.389-29.436,19.839-30.143,19.132z M-28.551,28.148c0.707,0.276,1.434,0.591,2.18,0.944
		c0.904-0.668,1.415-1.356,1.533-2.063h-3.006c-0.08,0.158-0.197,0.335-0.354,0.53C-28.355,27.835-28.473,28.03-28.551,28.148z
		 M-23.778,18.543l0.708,0.707c-0.472,0.471-1.061,1.001-1.768,1.591l-0.708-0.707C-24.956,19.662-24.367,19.132-23.778,18.543z
		 M-21.302,17.895l1.061,0.118c-0.157,0.902-0.393,1.768-0.707,2.593h4.302v1.002h-0.884c-0.276,2.829-0.924,5.049-1.945,6.659
		c0.668,0.903,1.689,1.729,3.065,2.476c-0.354,0.354-0.61,0.687-0.766,1.002c-1.218-0.788-2.202-1.632-2.947-2.534
		c-0.629,0.785-1.671,1.709-3.124,2.77c-0.198-0.235-0.256-0.315-0.177-0.235c-0.354-0.434-0.551-0.67-0.589-0.707
		c1.493-0.943,2.572-1.886,3.241-2.83c-0.669-1.061-1.159-2.573-1.474-4.537c-0.197,0.354-0.413,0.707-0.648,1.061
		c-0.04-0.077-0.198-0.294-0.472-0.647c-0.118-0.158-0.197-0.255-0.235-0.295C-22.501,22.216-21.735,20.251-21.302,17.895z
		 M-20.124,27.206c0.745-1.219,1.237-3.083,1.473-5.599h-2.652c-0.04,0.118-0.099,0.275-0.177,0.472
		C-21.205,24.278-20.753,25.987-20.124,27.206z"/>
	<path fill="#3D3D61" d="M-8.985,25.438l2.888-1.768h-6.896v-1.061h8.664v1.12l-3.477,2.239v0.354H-1.5v1.061h-6.306v2.534
		c0.039,1.216-0.61,1.827-1.945,1.827c-0.157,0-0.393,0-0.708,0c-0.589,0.038-1.022,0.038-1.297,0
		c-0.039-0.354-0.098-0.767-0.177-1.237c0.786,0.077,1.453,0.117,2.004,0.117c0.627,0,0.942-0.315,0.942-0.942v-2.299h-6.601v-1.061
		h6.601V25.438z M-9.692,18.248l1.061-0.53c0.433,0.707,0.845,1.374,1.238,2.003l-0.648,0.295h6.07v2.889H-3.15v-1.828h-10.726
		v1.828h-1.179v-2.889h6.423c-0.118-0.274-0.354-0.667-0.707-1.179C-9.496,18.562-9.614,18.366-9.692,18.248z"/>
	<path fill="#3D3D61" d="M-0.439,21.784c1.65-1.139,2.947-2.494,3.89-4.066l1.002,0.589c-0.433,0.707-0.923,1.355-1.473,1.944V24.2
		H1.917v-2.888c-0.55,0.55-1.12,1.062-1.708,1.532C0.011,22.491-0.204,22.138-0.439,21.784z M6.161,26.322h1.12
		c0,0.824-0.118,1.572-0.354,2.24c1.886,0.707,3.987,1.473,6.306,2.298l-0.53,1.119c-2.437-1.061-4.538-1.886-6.306-2.475
		c-0.904,1.216-2.868,2.042-5.894,2.475c-0.157-0.315-0.354-0.669-0.589-1.061C4.313,30.525,6.397,28.993,6.161,26.322z
		 M1.446,24.73H11.76v4.774h-1.12v-3.772H2.566v3.772h-1.12V24.73z M3.863,21.371c0.079,0,0.177-0.019,0.294-0.059
		c0.825-0.196,1.748-0.452,2.77-0.767v-2.651h1.12v2.239c1.65-0.59,2.926-1.179,3.831-1.768l0.648,0.942
		c-1.533,0.747-3.026,1.396-4.479,1.944v0.473c-0.039,0.825,0.295,1.197,1.002,1.119h2.063c0.628,0,1.002-0.275,1.12-0.824
		c0.078-0.55,0.118-1.062,0.118-1.533c0.235,0.078,0.53,0.158,0.884,0.235c0.157,0.079,0.256,0.118,0.295,0.118
		c-0.079,0.668-0.177,1.219-0.295,1.65c-0.157,0.903-0.884,1.355-2.181,1.355H8.813c-1.297,0.04-1.925-0.589-1.886-1.886v-0.294
		c-0.433,0.157-1.12,0.372-2.063,0.647c-0.197,0.04-0.354,0.078-0.471,0.118L3.863,21.371z"/>
	<path fill="#3D3D61" d="M15.296,20.074c0-0.077-0.02-0.177-0.059-0.294c-0.038-0.354-0.079-0.59-0.118-0.707
		c4.361-0.078,8.585-0.255,12.671-0.53l0.236,1.061c-0.551,0.04-1.729,0.099-3.536,0.177c-1.022,0.04-1.807,0.078-2.357,0.117v2.653
		h5.127v5.834c0.079,1.179-0.569,1.769-1.944,1.769c-0.669,0-1.258,0-1.769,0c0-0.118-0.06-0.373-0.177-0.767
		c-0.038-0.117-0.06-0.217-0.06-0.294c0.315,0.039,0.905,0.059,1.77,0.059c0.745,0.039,1.1-0.276,1.061-0.944v-4.654h-4.008v8.25
		h-1.12v-8.25h-3.949v6.659h-1.119v-7.661h5.068v-2.653C18.853,20.016,16.946,20.074,15.296,20.074z"/>
	<path fill="#3D3D61" d="M36.218,17.836h1.18v2.062h6.188v1.062h-6.188v2.122h3.948v1.002c-0.864,1.886-2.063,3.458-3.595,4.715
		c1.375,0.784,3.378,1.355,6.011,1.709c-0.118,0.117-0.314,0.391-0.59,0.825c-0.118,0.195-0.196,0.332-0.235,0.412
		c-2.711-0.551-4.773-1.277-6.188-2.181c-1.452,0.825-3.595,1.61-6.424,2.357c-0.274-0.551-0.491-0.924-0.648-1.12
		c2.985-0.629,5.029-1.277,6.13-1.944c-1.336-1.101-2.416-2.692-3.241-4.773H31.15v-1.002h5.067v-2.122h-6.483v-1.062h6.483V17.836z
		 M40.049,24.083h-6.247c0.668,1.768,1.65,3.143,2.946,4.124C38.281,27.029,39.38,25.655,40.049,24.083z"/>
	<path fill="#3D3D61" d="M44.705,24.672c1.493-2.004,2.632-4.263,3.418-6.777l1.179,0.354c-0.393,1.101-0.863,2.221-1.415,3.359
		v10.195h-1.119v-8.073c-0.551,0.865-1.1,1.631-1.65,2.298C45.038,25.714,44.901,25.261,44.705,24.672z M48.83,21.371h6.542v-3.358
		h1.178v3.358h2.063v1.062H56.55v6.954c0.04,1.414-0.727,2.16-2.298,2.239c-0.746,0-1.376,0-1.886,0c0-0.235-0.059-0.61-0.177-1.119
		c0.118,0.354,0.098,0.294-0.059-0.177c0.628,0.077,1.296,0.117,2.004,0.117c0.863,0.078,1.276-0.354,1.237-1.296v-6.719H48.83
		V21.371z M49.772,24.495l0.944-0.589c0.627,0.824,1.315,1.904,2.063,3.24l-1.061,0.648C51.09,26.539,50.441,25.438,49.772,24.495z"
		/>
	<path fill="#3D3D61" d="M61.854,31.686h-1.061V18.72h12.141v11.139c0.079,1.139-0.511,1.728-1.768,1.768c-0.551,0-1.238,0-2.063,0
		c-0.038-0.472-0.118-0.847-0.235-1.119c0.079,0,0.294,0,0.647,0c0.552,0.037,0.982,0.059,1.297,0.059
		c0.746,0.037,1.1-0.235,1.062-0.825v-9.96h-10.02v8.899c0.825-1.219,1.532-2.417,2.121-3.596c-0.273-0.512-0.707-1.256-1.296-2.239
		c-0.274-0.511-0.491-0.884-0.648-1.119l0.825-0.473c0.079,0.118,0.177,0.295,0.295,0.531c0.354,0.511,0.805,1.277,1.355,2.299
		c0.314-0.63,0.687-1.514,1.12-2.653c0.038-0.157,0.078-0.274,0.118-0.354l0.942,0.354c-0.472,1.298-0.982,2.517-1.532,3.654
		c0.118,0.196,0.295,0.512,0.53,0.943c0.51,0.825,0.863,1.454,1.061,1.886l-0.942,0.53c-0.393-0.785-0.806-1.551-1.237-2.298
		c-0.591,1.178-1.218,2.22-1.887,3.124l-0.825-0.53V31.686z M66.629,22.197l0.824-0.472c0.236,0.354,0.629,1.002,1.179,1.944
		c0.197,0.313,0.334,0.549,0.413,0.707c0.589-1.139,1.061-2.199,1.414-3.183l1.003,0.354c-0.708,1.651-1.298,2.947-1.77,3.89
		c0.669,1.14,1.277,2.221,1.828,3.242l-0.943,0.53c-0.156-0.275-0.413-0.727-0.767-1.356c-0.314-0.589-0.55-1.041-0.707-1.354
		c-0.038,0.078-0.118,0.196-0.235,0.354c-0.707,1.296-1.258,2.181-1.65,2.652l-0.884-0.589c0.825-1.14,1.552-2.3,2.181-3.479
		C67.847,24.3,67.218,23.218,66.629,22.197z"/>
	<path fill="#3D3D61" d="M74.938,30.801c3.615-1.178,5.678-2.888,6.189-5.127h-5.896v-1.061h6.072c0-0.078,0.019-0.177,0.059-0.295
		c0-0.158,0-0.254,0-0.295v-2.121h-5.306v-1.062h3.302c-0.629-0.864-1.237-1.65-1.826-2.357l0.884-0.647
		c0.707,0.747,1.374,1.531,2.003,2.356l-0.824,0.648h3.417c0.236-0.354,0.569-0.844,1.003-1.474
		c0.432-0.666,0.745-1.159,0.943-1.473l1.119,0.589c-0.589,0.748-1.2,1.532-1.826,2.357h3.653v1.062h-5.423v2.121
		c0,0.158-0.021,0.354-0.059,0.59h6.306v1.061h-6.011c0.942,2.436,3.024,4.066,6.247,4.892c-0.08,0.118-0.197,0.313-0.354,0.589
		c-0.197,0.274-0.335,0.472-0.413,0.59c-3.222-1.179-5.304-2.928-6.247-5.245c-0.707,2.279-2.791,4.066-6.248,5.363
		C75.431,31.468,75.174,31.114,74.938,30.801z"/>
</g>
<g>
	<path fill="#7B7B8D" d="M-367.714,123.181c-0.08-0.118-0.236-0.354-0.472-0.708c-0.118-0.156-0.197-0.273-0.235-0.354v6.07h-1.533
		v-9.547h3.418c-0.433-0.589-0.766-1.08-1.001-1.473l1.473-0.295c0.314,0.314,0.687,0.825,1.12,1.532
		c0.038,0.078,0.078,0.138,0.118,0.177l-0.413,0.059h2.534c0.274-0.314,0.628-0.825,1.061-1.532
		c0.078-0.117,0.137-0.216,0.177-0.294h-9.312v-1.239h6.424c-0.04-0.117-0.098-0.294-0.177-0.53
		c-0.118-0.354-0.217-0.607-0.295-0.766l1.827-0.177c0.039,0.118,0.098,0.315,0.177,0.589c0.118,0.395,0.197,0.688,0.236,0.884
		h5.894v1.239h-4.714l1.473,0.354c-0.08,0.157-0.236,0.393-0.472,0.707c-0.235,0.354-0.412,0.608-0.53,0.766h3.418v7.426
		c0.038,1.297-0.589,1.925-1.886,1.886c-0.197,0-0.511,0-0.943,0c-0.433,0.039-0.787,0.059-1.061,0.059
		c-0.04-0.117-0.08-0.275-0.118-0.471c-0.08-0.395-0.157-0.708-0.235-0.943c0.627,0,1.217,0,1.768,0
		c0.707,0.039,1.021-0.216,0.943-0.766v-3.714l-0.648,1.002l-1.178-0.825v4.126h-5.717v-3.949L-367.714,123.181z M-368.421,119.88
		v2.181c1.021-0.59,2.062-1.315,3.124-2.181l0.943,0.943c-0.118,0.079-0.276,0.197-0.472,0.354c-0.629,0.512-1.12,0.865-1.474,1.061
		h5.304c-0.197-0.118-0.53-0.333-1.001-0.648c-0.472-0.313-0.846-0.568-1.12-0.766l0.884-0.943c0.863,0.55,1.924,1.237,3.182,2.063
		v-2.063H-368.421z M-362.174,125.243v-1.826h-3.065v1.826H-362.174z"/>
	<path fill="#7B7B8D" d="M-354.513,128.249c-0.471-0.395-0.904-0.786-1.297-1.179c1.14-1.336,1.651-3.477,1.533-6.424v-4.479h5.304
		c-0.079-0.195-0.197-0.49-0.354-0.884c-0.197-0.393-0.333-0.687-0.412-0.884l1.768-0.295c0.236,0.669,0.51,1.355,0.825,2.063h4.714
		v7.014h-1.65v-0.708h-8.546C-352.667,124.713-353.296,126.638-354.513,128.249z M-352.627,120.646v0.294h8.546v-3.24h-8.546
		V120.646z"/>
	<path fill="#7B7B8D" d="M-339.485,128.249c-0.118-0.157-0.354-0.374-0.707-0.648c-0.236-0.235-0.413-0.412-0.53-0.53
		c1.178-1.65,1.729-4.008,1.65-7.072v-4.774c4.008-0.117,7.799-0.354,11.375-0.707l0.648,1.532c-3.3,0.276-6.798,0.492-10.49,0.649
		v1.709h11.021v1.414h-11.021v0.177c0,2.044-0.139,3.615-0.413,4.715C-338.188,125.814-338.699,126.991-339.485,128.249z
		 M-336.479,128.131v-6.365h8.84v6.365h-1.591v-0.825h-5.716v0.825H-336.479z M-334.946,123.181v2.829h5.716v-2.829H-334.946z"/>
	<path fill="#7B7B8D" d="M-312.61,121.059c-0.354-0.393-0.707-0.766-1.061-1.119c-4.125,0.078-7.072,0.158-8.841,0.235
		c-0.825,0.078-1.494,0.177-2.003,0.295l-0.767-1.591c0.55-0.196,1.081-0.511,1.592-0.943c1.493-1.257,2.808-2.554,3.948-3.89
		l1.769,0.766c-0.08,0.079-0.198,0.177-0.354,0.295c-1.73,1.611-3.104,2.829-4.126,3.654l7.485-0.236l-1.769-1.768l1.179-0.885
		c1.65,1.533,3.064,2.929,4.244,4.185L-312.61,121.059z M-323.867,128.249v-6.601h10.844v6.601h-1.65v-0.943h-7.603v0.943H-323.867z
		 M-322.276,123.063v2.947h7.603v-2.947H-322.276z"/>
</g>
<path fill="#FFFFFF" stroke="#3D3D61" stroke-width="4" stroke-miterlimit="10" d="M219.874,170.774
	c0,5.959-4.831,10.79-10.79,10.79H71.708c-5.959,0-10.79-4.831-10.79-10.79V80.3c0-5.962,4.831-10.792,10.79-10.792h137.376
	c5.959,0,10.79,4.83,10.79,10.792V170.774z"/>
<line fill="none" stroke="#3D3D61" stroke-width="4" stroke-miterlimit="10" x1="60.918" y1="88.499" x2="219.874" y2="88.499"/>
<circle fill="#3D3D61" cx="72.527" cy="79.23" r="3.113"/>
<circle fill="#3D3D61" cx="82.211" cy="79.23" r="3.112"/>
<circle fill="#3D3D61" cx="91.896" cy="79.23" r="3.112"/>
<g>
	<path fill="#3D3D61" d="M87.375,215.437h1.061v2.828h1.886v0.942h-1.886v2.477l0.589-0.591c0.354,0.315,0.884,0.807,1.591,1.475
		l-0.766,0.825c-0.235-0.275-0.707-0.806-1.414-1.592v7.485h-1.061v-7.662c-0.394,1.337-0.982,2.634-1.769,3.89
		c-0.039-0.118-0.157-0.354-0.354-0.707c-0.079-0.157-0.138-0.275-0.177-0.354c1.061-1.571,1.808-3.32,2.239-5.246h-2.003v-0.942
		h2.063V215.437z M91.795,222.861l1.061,0.413c-0.746,1.572-1.532,3.085-2.357,4.538c-0.354-0.158-0.707-0.314-1.061-0.473
		C90.302,226.006,91.088,224.512,91.795,222.861z M90.321,220.445h8.899v1.002h-3.89v5.952c0.039,1.18-0.551,1.748-1.769,1.71
		c-0.628,0-1.218,0-1.768,0c0-0.08-0.021-0.177-0.059-0.295c-0.08-0.394-0.139-0.688-0.177-0.884
		c0.354,0.038,0.942,0.059,1.768,0.059c0.629,0.038,0.923-0.197,0.884-0.708v-5.834h-3.89V220.445z M90.97,216.261h7.544v1.002
		H90.97V216.261z M96.273,223.333l0.943-0.53c0.51,0.943,1.218,2.377,2.122,4.302c-0.039-0.118,0.02-0.019,0.177,0.295l-1.12,0.354
		c-0.079-0.119-0.197-0.354-0.354-0.708C97.334,225.476,96.745,224.236,96.273,223.333z"/>
	<path fill="#3D3D61" d="M101.225,216.144c0.824,0.903,1.63,1.886,2.416,2.946l-0.943,0.766c-0.668-0.981-1.453-2.003-2.356-3.064
		L101.225,216.144z M102.58,221.978c0.354,0.196,0.728,0.374,1.119,0.53c-0.628,1.65-1.316,3.576-2.063,5.776l-1.237-0.591
		C101.028,226.319,101.755,224.413,102.58,221.978z M103.287,221.152c1.335-1.61,2.437-3.536,3.301-5.775l1.061,0.354
		c-0.236,0.59-0.57,1.278-1.002,2.063h7.544v1.002h-3.478v2.181h3.064v0.943h-3.064v2.239h3.124v0.942h-3.124v2.181h3.654v0.885
		h-8.016v1.179h-1.119v-9.077c-0.434,0.708-0.825,1.298-1.18,1.77C103.817,221.684,103.562,221.389,103.287,221.152z
		 M106.352,218.795v2.181h3.3v-2.181H106.352z M106.352,221.919v2.239h3.3v-2.239H106.352z M106.352,225.101v2.181h3.3v-2.181
		H106.352z M109.004,215.849l0.884-0.589c0.393,0.432,0.846,1.021,1.356,1.768l-0.944,0.648c-0.078-0.118-0.196-0.295-0.354-0.531
		C109.79,216.87,109.475,216.438,109.004,215.849z"/>
	<path fill="#3D3D61" d="M128.747,228.166l-1.474-3.596h-5.363l-1.414,3.596h-1.414l4.773-11.787h1.415l4.891,11.787H128.747z
		 M122.382,223.451h4.421l-1.945-5.01c-0.039-0.195-0.117-0.472-0.235-0.825c-0.118,0.354-0.216,0.63-0.295,0.825L122.382,223.451z"
		/>
	<path fill="#3D3D61" d="M136.408,223.393h-3.653v4.773h-1.298v-11.787h5.069c2.396,0.118,3.713,1.277,3.948,3.477
		C140.436,222.174,139.08,223.353,136.408,223.393z M136.173,217.558h-3.418v4.656h3.418c1.887-0.04,2.849-0.845,2.888-2.417
		C138.981,218.343,138.02,217.598,136.173,217.558z"/>
	<path fill="#3D3D61" d="M142.655,216.379h1.297v11.787h-1.297V216.379z"/>
	<path fill="#3D3D61" d="M146.486,218.736l1.002,0.117c-0.275,1.69-0.492,2.908-0.648,3.654c-0.471-0.117-0.805-0.196-1.002-0.235
		C146.112,221.133,146.329,219.955,146.486,218.736z M148.019,215.437h1.061v3.063l0.767-0.471c0.117,0.157,0.294,0.432,0.53,0.824
		c0.511,0.707,0.846,1.179,1.003,1.414l-0.944,0.59c-0.156-0.354-0.568-1.021-1.237-2.004c-0.038-0.117-0.078-0.195-0.118-0.235
		v10.668h-1.061V215.437z M153.912,215.437h1.12c0,0.942,0,1.787,0,2.533h3.478v4.479h1.414v1.061h-4.656
		c0.746,2.121,2.239,3.674,4.479,4.656c-0.235,0.313-0.511,0.667-0.825,1.061c-2.318-1.336-3.812-3.084-4.479-5.245
		c-0.354,2.044-1.709,3.831-4.066,5.363c-0.038-0.04-0.118-0.139-0.236-0.295c-0.313-0.394-0.51-0.609-0.589-0.647
		c2.358-1.454,3.692-3.084,4.008-4.893h-3.242v-1.061h3.419c0.118-0.785,0.177-1.945,0.177-3.478h-2.711v-1.002h2.711V215.437z
		 M157.389,218.972h-2.356c0,0.276-0.02,0.648-0.06,1.119c0,1.18-0.039,1.966-0.117,2.358h2.533V218.972z"/>
	<path fill="#3D3D61" d="M160.984,222.921c0.196-0.039,0.511-0.138,0.943-0.295c0.354-0.118,0.628-0.196,0.824-0.235v-3.301h-1.709
		v-1.002h1.709v-2.651h1.061v2.651h1.593v1.002h-1.593v2.947c0.08-0.039,0.217-0.079,0.413-0.118
		c0.197-0.078,0.569-0.235,1.12-0.472c0,0.157,0,0.53,0,1.12c-0.59,0.235-1.1,0.432-1.533,0.589v4.36
		c0.118,1.18-0.392,1.729-1.531,1.651c-0.236,0.038-0.629,0.038-1.179,0c-0.04-0.394-0.099-0.787-0.177-1.179
		c0.511,0.038,0.903,0.059,1.179,0.059c0.511,0.078,0.728-0.117,0.647-0.59v-3.948c-0.589,0.236-1.139,0.453-1.649,0.648
		L160.984,222.921z M167.408,224.688c0,0.118-0.02,0.276-0.059,0.472c-0.118,0.629-0.216,1.061-0.295,1.296
		c0.629,0.748,1.395,1.179,2.298,1.298v-3.714h-3.3v-0.884h3.3v-1.237h-3.712v-0.885h3.712v-1.237h-3.3v-0.884h3.3v-1.297h-3.83
		v-0.884h3.83v-1.355h1.062v1.355h4.185v0.884h-4.185v1.297h3.418v2.121h1.355v0.885h-1.355v2.121h-3.418v1.414h3.771v0.885h-3.771
		v1.532h0.117c1.887,0.078,3.457,0.078,4.715,0c-0.156,0.354-0.313,0.708-0.471,1.062c-1.768,0-3.242-0.021-4.421-0.06
		c-1.571,0-2.809-0.492-3.712-1.474c-0.393,0.668-1.022,1.335-1.887,2.004c-0.392-0.471-0.628-0.747-0.707-0.824
		c1.453-0.905,2.24-2.24,2.357-4.009L167.408,224.688z M172.771,219.797h-2.357v1.237h2.357V219.797z M170.414,221.919v1.237h2.357
		v-1.237H170.414z"/>
	<path fill="#3D3D61" d="M176.071,223.039c0.236-0.04,0.59-0.138,1.061-0.295c0.394-0.118,0.688-0.196,0.884-0.236v-3.301h-1.768
		v-1.061h1.768v-2.651h1.063v2.651h1.649v1.061h-1.649v2.947c0.117-0.039,0.294-0.098,0.53-0.177
		c0.354-0.117,0.627-0.196,0.824-0.235c0,0.118,0.021,0.295,0.06,0.53c0,0.235,0,0.412,0,0.53c-0.157,0.039-0.393,0.118-0.707,0.236
		c-0.315,0.078-0.551,0.157-0.707,0.235v4.36c0.078,0.982-0.413,1.475-1.475,1.475c-0.51,0-0.922,0-1.237,0
		c-0.038-0.354-0.098-0.729-0.177-1.12c0.472,0.038,0.884,0.059,1.237,0.059c0.393,0,0.589-0.157,0.589-0.472v-3.948
		c-0.589,0.196-1.197,0.412-1.826,0.648L176.071,223.039z M181.553,225.749c0.432-0.549,0.825-1.079,1.179-1.591h-2.299v-0.942
		h2.829c0.274-0.472,0.551-0.982,0.825-1.532l1.001,0.354c-0.235,0.432-0.45,0.824-0.647,1.179h5.599v0.942h-1.886
		c-0.354,1.061-0.904,1.965-1.649,2.711c0.354,0.158,0.863,0.374,1.531,0.647c0.864,0.275,1.513,0.511,1.945,0.708l-0.59,0.943
		c-0.039-0.04-0.117-0.08-0.235-0.118c-1.376-0.629-2.573-1.119-3.595-1.474c-1.1,0.708-2.79,1.297-5.068,1.769
		c-0.157-0.354-0.334-0.707-0.53-1.061c1.925-0.276,3.438-0.688,4.537-1.238c-0.196-0.078-0.491-0.195-0.884-0.354
		C183.262,226.536,182.574,226.221,181.553,225.749z M180.433,220.504h5.6c0.55-0.745,1.08-1.551,1.591-2.416l0.943,0.53
		c-0.314,0.512-0.767,1.141-1.355,1.886h2.946v1.003h-9.725V220.504z M184.322,215.73l0.942-0.412
		c0.275,0.354,0.57,0.864,0.886,1.532l-0.354,0.177h4.008v0.942h-8.781v-0.942h4.007
		C184.794,216.635,184.558,216.202,184.322,215.73z M182.26,218.677l0.825-0.53c0.079,0.118,0.216,0.276,0.412,0.472
		c0.393,0.472,0.688,0.865,0.884,1.179l-0.824,0.589C183.164,219.797,182.731,219.228,182.26,218.677z M183.025,225.396
		c0.825,0.354,1.631,0.707,2.416,1.061c0.787-0.667,1.317-1.433,1.593-2.298h-3.184c-0.117,0.196-0.314,0.491-0.589,0.884
		C183.144,225.2,183.065,225.318,183.025,225.396z"/>
	<path fill="#3D3D61" d="M195.107,216.202l0.943-0.648c1.022,0.629,2.2,2.318,3.536,5.068c1.729,3.851,3.653,6.188,5.776,7.013
		l-1.003,1.238c-2.161-1.219-4.087-3.791-5.776-7.721c-0.038-0.118-0.117-0.274-0.235-0.472c-0.078-0.195-0.156-0.333-0.235-0.413
		c-1.021,3.695-3.064,6.602-6.129,8.724c-0.236-0.394-0.511-0.747-0.826-1.061c3.026-1.887,5.089-4.932,6.188-9.136
		C196.679,217.616,195.933,216.752,195.107,216.202z"/>
</g>
<rect x="75.644" y="99.7" fill="#ECE9F2" width="42.851" height="66.909"/>
<rect x="152.617" y="123.34" fill="#ECE9F2" width="52.903" height="7.022"/>
<rect x="152.617" y="134.324" fill="#ECE9F2" width="26.452" height="7.021"/>
<rect x="128.908" y="123.34" fill="#8050F3" width="17.961" height="17.961"/>
<rect x="152.617" y="99.617" fill="#ECE9F2" width="52.903" height="7.021"/>
<rect x="152.617" y="110.602" fill="#ECE9F2" width="26.452" height="7.021"/>
<rect x="83.843" y="136.712" fill="#FFFFFF" width="26.452" height="7.021"/>
<rect x="83.352" y="150.361" fill="#FFFFFF" width="26.453" height="7.022"/>
<path fill="#FFFFFF" stroke="#3D3D61" stroke-width="4" stroke-miterlimit="10" d="M-38.918,170.774
	c0,5.959-4.831,10.79-10.79,10.79h-137.375c-5.96,0-10.791-4.831-10.791-10.79V80.3c0-5.962,4.831-10.792,10.791-10.792h137.375
	c5.959,0,10.79,4.83,10.79,10.792V170.774z"/>
<line fill="none" stroke="#3D3D61" stroke-width="4" stroke-miterlimit="10" x1="-197.874" y1="88.499" x2="-38.918" y2="88.499"/>
<circle fill="#3D3D61" cx="-186.265" cy="79.23" r="3.113"/>
<circle fill="#3D3D61" cx="-176.581" cy="79.23" r="3.113"/>
<circle fill="#3D3D61" cx="-166.897" cy="79.23" r="3.112"/>
<rect x="-186.404" y="99.704" fill="#ECE9F2" width="42.851" height="21.715"/>
<g>
	<path fill="#3D3D61" d="M-152.149,205.908l1.061-0.294c0.236,0.511,0.451,1.041,0.648,1.591h6.188v1.002h-14.027v-1.002h6.601
		c-0.039-0.196-0.157-0.491-0.354-0.884C-152.071,206.125-152.11,205.987-152.149,205.908z M-154.801,208.914l0.825-0.648
		c0.156,0.158,0.392,0.394,0.708,0.707c0.274,0.314,0.491,0.551,0.648,0.707l-0.707,0.59h3.064c0.236-0.274,0.55-0.707,0.943-1.297
		c0.197-0.274,0.354-0.49,0.472-0.648l1.002,0.59c-0.118,0.118-0.275,0.314-0.472,0.589c-0.275,0.354-0.492,0.61-0.648,0.767h3.536
		v7.543c0.079,1.101-0.471,1.651-1.65,1.651c-0.629,0-1.277,0-1.945,0c0-0.04-0.021-0.118-0.059-0.236
		c-0.039-0.433-0.098-0.747-0.177-0.943c0.471,0.039,1.1,0.059,1.886,0.059c0.627,0.04,0.922-0.177,0.884-0.647v-6.483h-9.666v8.37
		h-1.061v-9.313h3.654c-0.039-0.039-0.08-0.078-0.118-0.118C-154.114,209.603-154.487,209.189-154.801,208.914z M-153.033,211.389
		l0.766,0.708c-1.14,0.943-2.18,1.748-3.124,2.416c-0.197-0.235-0.413-0.511-0.648-0.825
		C-154.742,212.902-153.74,212.137-153.033,211.389z M-148.437,217.519h-5.657v-3.831h5.657V217.519z M-153.092,214.631v2.004h3.654
		v-2.004H-153.092z M-150.499,212.156l0.648-0.768c0.864,0.551,1.924,1.238,3.183,2.063l-0.648,0.884
		c-0.04-0.039-0.118-0.098-0.235-0.177C-148.692,213.334-149.674,212.667-150.499,212.156z"/>
	<path fill="#3D3D61" d="M-137.179,206.026l1.061-0.53c0.079,0.157,0.236,0.393,0.471,0.707c0.314,0.511,0.55,0.903,0.707,1.179
		l-0.766,0.412h5.422v6.307h-1.12v-0.707h-9.017c-0.08,2.554-0.747,4.636-2.004,6.247c-0.08-0.08-0.236-0.217-0.472-0.413
		c-0.197-0.197-0.354-0.334-0.471-0.412c1.335-1.453,1.945-3.753,1.827-6.896v-4.126h5.422c-0.08-0.117-0.197-0.313-0.354-0.589
		C-136.747,206.694-136.983,206.302-137.179,206.026z M-140.362,208.796v3.124v0.413h8.958v-3.537H-140.362z"/>
	<path fill="#3D3D61" d="M-126.453,215.81l0.884-0.707l3.064,3.358l-0.943,0.826L-126.453,215.81z"/>
	<path fill="#3D3D61" d="M-113.193,212.51c1.493-2.082,2.652-4.362,3.477-6.837l1.179,0.413c-0.433,1.021-0.884,2.043-1.355,3.063
		v10.491h-1.179v-8.252c-0.55,0.904-1.1,1.71-1.65,2.417C-112.997,213.06-113.155,212.627-113.193,212.51z M-109.067,210.623
		l3.359-0.354c-0.118-1.374-0.177-2.888-0.177-4.538h1.179c0,1.611,0.059,3.084,0.177,4.42l5.246-0.589l0.118,1.061l-5.246,0.589
		c0.314,2.122,0.786,3.872,1.415,5.245c0.589,1.141,1.257,1.749,2.004,1.827c0.274,0.039,0.471-0.157,0.589-0.589
		c0.078-0.274,0.177-0.825,0.294-1.65c0.039-0.195,0.059-0.354,0.059-0.472c0.392,0.158,0.766,0.295,1.12,0.413
		c-0.08,0.707-0.236,1.454-0.472,2.239c-0.197,0.903-0.707,1.356-1.532,1.356c-1.141-0.041-2.162-0.826-3.065-2.358
		c-0.787-1.689-1.317-3.653-1.591-5.894l-3.3,0.354L-109.067,210.623z M-103.41,206.91l0.766-0.766
		c0.981,0.707,1.827,1.414,2.534,2.121l-0.825,0.884C-101.877,208.207-102.703,207.46-103.41,206.91z"/>
	<path fill="#3D3D61" d="M-97.752,211.742h1.769v-3.771h-1.945v-1.001h4.892v1.001h-1.886v3.771h1.827v0.944h-1.827v3.83
		c0.628-0.195,1.238-0.372,1.827-0.53c0.039,0.433,0.079,0.806,0.118,1.119c-0.118,0.04-0.334,0.1-0.648,0.177
		c-1.886,0.472-3.262,0.845-4.126,1.12l-0.354-1.061c0.668-0.196,1.375-0.373,2.122-0.531v-4.124h-1.769V211.742z M-92.743,215.161
		h3.654v-1.709h-3.359v-7.013h7.72v7.013h-3.3v1.709h3.595v0.942h-3.595v1.945h4.244v1.002h-9.783v-1.002h4.479v-1.945h-3.654
		V215.161z M-91.387,207.382v2.121h2.298v-2.121H-91.387z M-91.387,210.387v2.182h2.298v-2.182H-91.387z M-85.788,207.382h-2.24
		v2.121h2.24V207.382z M-88.028,210.387v2.182h2.24v-2.182H-88.028z"/>
	<path fill="#3D3D61" d="M-76.712,205.908l1.061-0.294c0.236,0.511,0.451,1.041,0.648,1.591h6.188v1.002h-14.026v-1.002h6.601
		c-0.04-0.196-0.158-0.491-0.354-0.884C-76.634,206.125-76.674,205.987-76.712,205.908z M-79.364,208.914l0.825-0.648
		c0.156,0.158,0.392,0.394,0.708,0.707c0.274,0.314,0.491,0.551,0.648,0.707l-0.708,0.59h3.064c0.236-0.274,0.55-0.707,0.943-1.297
		c0.196-0.274,0.354-0.49,0.472-0.648l1.001,0.59c-0.118,0.118-0.275,0.314-0.471,0.589c-0.275,0.354-0.492,0.61-0.648,0.767h3.536
		v7.543c0.078,1.101-0.471,1.651-1.65,1.651c-0.628,0-1.277,0-1.944,0c0-0.04-0.021-0.118-0.059-0.236
		c-0.04-0.433-0.099-0.747-0.177-0.943c0.471,0.039,1.099,0.059,1.886,0.059c0.627,0.04,0.922-0.177,0.884-0.647v-6.483h-9.665v8.37
		h-1.061v-9.313h3.654c-0.039-0.039-0.08-0.078-0.118-0.118C-78.678,209.603-79.05,209.189-79.364,208.914z M-77.597,211.389
		l0.767,0.708c-1.14,0.943-2.181,1.748-3.124,2.416c-0.197-0.235-0.413-0.511-0.648-0.825
		C-79.305,212.902-78.304,212.137-77.597,211.389z M-72.999,217.519h-5.658v-3.831h5.658V217.519z M-77.655,214.631v2.004h3.654
		v-2.004H-77.655z M-75.062,212.156l0.648-0.768c0.864,0.551,1.924,1.238,3.183,2.063l-0.648,0.884
		c-0.039-0.039-0.118-0.098-0.235-0.177C-73.256,213.334-74.237,212.667-75.062,212.156z"/>
	<path fill="#3D3D61" d="M-158.927,223.601l1.238,0.177c-0.511,0.512-1.022,0.982-1.533,1.414h6.306v0.942
		c-3.3,2.555-7.329,4.521-12.082,5.894c-0.04-0.117-0.197-0.354-0.472-0.707c-0.079-0.117-0.138-0.195-0.177-0.235
		c4.557-1.256,8.23-2.888,11.021-4.892h-5.894c-0.04,0-0.099,0.04-0.177,0.117c-0.118,0.041-0.197,0.08-0.236,0.118
		c0.274,0.235,0.648,0.57,1.12,1.003c0.274,0.235,0.471,0.412,0.589,0.53l-0.884,0.766c-0.551-0.628-1.101-1.218-1.65-1.768
		c-0.747,0.472-1.572,0.903-2.475,1.297c-0.08-0.118-0.197-0.256-0.354-0.413c-0.118-0.117-0.236-0.255-0.354-0.412
		C-162.502,226.41-160.498,225.133-158.927,223.601z M-156.687,229.317l1.061,0.294c-0.433,0.395-0.884,0.748-1.355,1.062h4.597
		v1.001c-2.986,3.262-7.111,5.305-12.376,6.13c-0.08-0.236-0.275-0.55-0.59-0.943c4.989-0.747,8.82-2.475,11.493-5.187h-4.539
		c-0.393,0.236-0.825,0.492-1.296,0.767c0.118,0.118,0.295,0.295,0.531,0.53c0.432,0.394,0.727,0.688,0.884,0.885l-0.884,0.766
		c-0.236-0.274-0.688-0.805-1.355-1.592c-0.04-0.038-0.08-0.077-0.118-0.117c-0.982,0.512-2.063,1.002-3.241,1.474
		c-0.197-0.274-0.394-0.569-0.589-0.885C-160.93,232.127-158.337,230.731-156.687,229.317z"/>
	<path fill="#3D3D61" d="M-150.852,232.794c0.981-1.532,1.708-3.201,2.18-5.009h-2.063v-0.943h2.239v-3.064h1.061v3.064h2.003v0.943
		h-2.003v2.063l0.648-0.59c0.707,0.668,1.375,1.355,2.003,2.063l-0.884,0.767c-0.315-0.392-0.864-1.002-1.65-1.827
		c-0.04-0.077-0.079-0.137-0.118-0.177v7.603h-1.061v-7.603c-0.551,1.532-1.179,2.85-1.886,3.949
		C-150.539,233.64-150.696,233.227-150.852,232.794z M-145.725,225.78v-1.061h8.133v1.061c-0.433,3.342-1.454,5.993-3.065,7.957
		c1.021,1.061,2.396,1.905,4.125,2.534c-0.393,0.431-0.728,0.825-1.002,1.179c-1.768-0.943-3.064-1.866-3.889-2.77
		c-0.943,0.982-2.457,2.003-4.539,3.063c-0.236-0.313-0.492-0.667-0.766-1.061c2.122-0.942,3.654-1.905,4.597-2.887
		c-1.454-1.847-2.357-4.519-2.711-8.017H-145.725z M-138.83,225.78h-4.832c0.274,3.145,1.04,5.501,2.298,7.072
		C-140.029,231.085-139.184,228.728-138.83,225.78z"/>
	<path fill="#3D3D61" d="M-130.696,233.147c0,1.258-0.472,1.965-1.415,2.122c-0.354,0.039-0.846,0.06-1.473,0.06
		c0-0.118-0.04-0.275-0.118-0.472c-0.04-0.314-0.08-0.55-0.118-0.707c0.472,0.039,0.904,0.059,1.296,0.059
		c0.51-0.039,0.766-0.432,0.766-1.18c0.039-1.021-0.433-2.16-1.414-3.418l1.355-4.125h-2.122v12.258h-1.061v-13.26h4.303v1.002
		l-1.356,3.948C-131.109,230.654-130.658,231.892-130.696,233.147z M-126.276,234.739c0,0.472,0.02,0.865,0.059,1.179
		c-0.825,0.313-1.67,0.726-2.534,1.237c-0.08,0.039-0.236,0.137-0.471,0.295c-0.157,0.117-0.275,0.195-0.354,0.235l-0.707-0.884
		c0.314-0.354,0.472-0.688,0.472-1.002v-11.315h6.718v6.719h-3.418c0.314,0.865,0.707,1.649,1.179,2.356
		c0.981-0.627,1.886-1.296,2.711-2.003l0.766,0.884c-0.04,0.04-0.098,0.079-0.177,0.118c-1.1,0.786-1.984,1.375-2.652,1.769
		c0.786,0.825,1.827,1.473,3.124,1.944c-0.275,0.354-0.53,0.688-0.766,1.002c-2.75-1.414-4.5-3.438-5.245-6.07h-1.179v4.833
		c0.393-0.196,1.041-0.53,1.945-1.002C-126.571,234.877-126.395,234.778-126.276,234.739z M-128.752,225.486v1.887h4.656v-1.887
		H-128.752z M-128.752,228.315v1.944h4.656v-1.944H-128.752z"/>
	<path fill="#3D3D61" d="M-117.849,223.659l1.179,0.059c-0.236,0.472-0.492,0.925-0.766,1.355h4.184v0.884h-3.418
		c0.156,0.158,0.432,0.434,0.825,0.826c0.156,0.196,0.274,0.334,0.354,0.413l-0.825,0.647c-0.04-0.039-0.08-0.078-0.118-0.117
		c-0.393-0.511-0.747-0.943-1.061-1.298l0.648-0.472h-1.238c-0.589,0.748-1.178,1.356-1.768,1.828
		c-0.197-0.235-0.452-0.511-0.766-0.825C-119.402,226.017-118.478,224.917-117.849,223.659z M-114.43,227.02l0.942-0.355
		c0.156,0.237,0.354,0.591,0.589,1.063c0.039,0.117,0.079,0.196,0.118,0.235h5.717v2.181h-1.062v-1.297h-10.903v1.297h-1.001v-2.181
		h6.07C-114.077,227.647-114.234,227.333-114.43,227.02z M-118.379,229.906h9.606v3.064h-8.604v1.003h8.898v3.712h-1.061v-0.589
		h-7.838v0.589h-1.002V229.906z M-117.377,230.79v1.355h7.543v-1.355H-117.377z M-109.539,234.857h-7.838v1.355h7.838V234.857z
		 M-111.543,223.659l1.179,0.059c-0.08,0.236-0.236,0.571-0.472,1.002c-0.08,0.158-0.138,0.276-0.177,0.354h4.539v0.884h-3.654
		c0.156,0.158,0.392,0.395,0.708,0.707c0.235,0.276,0.392,0.453,0.471,0.532l-0.825,0.647c-0.04-0.039-0.118-0.138-0.235-0.294
		c-0.08-0.118-0.394-0.511-0.943-1.18l0.648-0.413h-1.179c-0.275,0.472-0.589,0.885-0.943,1.239
		c-0.236-0.236-0.511-0.473-0.825-0.709C-112.545,225.663-111.976,224.72-111.543,223.659z"/>
	<path fill="#3D3D61" d="M-105.296,229.848h1.769v-3.772h-1.945v-1.002h4.892v1.002h-1.886v3.772h1.827v0.942h-1.827v3.831
		c0.627-0.196,1.237-0.373,1.827-0.53c0.038,0.433,0.078,0.806,0.118,1.12c-0.118,0.039-0.334,0.098-0.648,0.177
		c-1.886,0.472-3.262,0.844-4.125,1.119l-0.354-1.061c0.668-0.196,1.375-0.373,2.122-0.53v-4.126h-1.769V229.848z M-100.286,233.266
		h3.654v-1.709h-3.359v-7.014h7.72v7.014h-3.3v1.709h3.595v0.943h-3.595v1.944h4.243v1.002h-9.783v-1.002h4.479v-1.944h-3.654
		V233.266z M-98.931,225.486v2.122h2.298v-2.122H-98.931z M-98.931,228.492v2.181h2.298v-2.181H-98.931z M-93.332,225.486h-2.239
		v2.122h2.239V225.486z M-95.571,228.492v2.181h2.239v-2.181H-95.571z"/>
	<path fill="#3D3D61" d="M-87.674,226.075v1.945h11.316v1.061h-11.316c0,2.319-0.138,4.066-0.413,5.246
		c-0.236,1.139-0.766,2.278-1.591,3.417c-0.354-0.432-0.648-0.747-0.884-0.942c0.708-0.902,1.158-1.866,1.355-2.888
		c0.236-0.943,0.354-2.553,0.354-4.833v-4.066c3.851-0.078,7.622-0.354,11.315-0.825l0.413,1.12
		C-81.84,225.78-85.356,226.037-87.674,226.075z M-86.377,231.38h8.722v6.247h-1.179v-0.884h-6.365v0.884h-1.178V231.38z
		 M-85.199,232.44v3.359h6.365v-3.359H-85.199z"/>
	<path fill="#3D3D61" d="M-65.338,225.663c1.846,1.769,3.261,3.183,4.243,4.243l-1.002,0.825c-0.118-0.157-0.294-0.372-0.53-0.648
		c-0.275-0.313-0.471-0.53-0.589-0.648c-3.576,0.118-6.836,0.256-9.783,0.413c-0.589,0.04-1.082,0.099-1.474,0.177l-0.53-1.12
		c0.472-0.156,0.864-0.393,1.179-0.707c1.65-1.335,3.143-2.867,4.479-4.597l1.061,0.647c-1.296,1.532-2.79,3.026-4.479,4.479
		c3.103-0.157,5.972-0.274,8.604-0.354c-0.157-0.157-0.375-0.373-0.648-0.647c-0.197-0.236-0.648-0.688-1.355-1.356L-65.338,225.663
		z M-63.157,231.32v6.365h-1.179v-0.942h-7.897v0.942h-1.178v-6.365H-63.157z M-72.233,232.381v3.479h7.897v-3.479H-72.233z"/>
</g>
<polygon fill="#ECE9F2" points="-18.32,-170.891 11,-221.676 40.32,-170.891 "/>
<polygon fill="#ECE9F2" points="-148.731,37.483 -119.411,-13.301 -90.091,37.483 "/>
<polygon fill="#ECE9F2" points="-269.429,243.324 -240.109,192.538 -210.789,243.324 "/>
<polygon fill="#ECE9F2" points="-16.622,243.324 12.699,192.538 42.02,243.324 "/>
<polygon fill="#ECE9F2" points="233.395,243.324 262.715,192.538 292.035,243.324 "/>
<polygon fill="#ECE9F2" points="112.22,37.439 141.541,-13.345 170.86,37.439 "/>
<circle fill="#FFFFFF" cx="-175.02" cy="110.562" r="5.088"/>
<rect x="-139.758" y="99.704" fill="#ECE9F2" width="42.85" height="21.715"/>
<circle fill="#FFFFFF" cx="-128.374" cy="110.562" r="5.088"/>
<rect x="-93.239" y="99.704" fill="#ECE9F2" width="42.851" height="21.715"/>
<circle fill="#FFFFFF" cx="-81.855" cy="110.562" r="5.088"/>
<rect x="-186.404" y="131.098" fill="#ECE9F2" width="63.118" height="7.022"/>
<rect x="-186.404" y="142.683" fill="#ECE9F2" width="42.851" height="2.552"/>
<path fill="none" stroke="#FF3B72" stroke-width="3" stroke-miterlimit="10" d="M-184.23,157.618c0,0,44.924-15.087,62.706,0
	c17.781,15.088,29.546,8.173,36.943,1.045c5.466-5.266,9.458-21.911,31.789-19.022"/>
<path fill="none" stroke="#00C765" stroke-width="3" stroke-miterlimit="10" d="M-184.23,166.611c0,0,54.778,0,78.247-10.515
	c13.272-5.946,37.281-30.083,53.191-26.284"/>
<path fill="#3D3D61" d="M130.802,156.776c0-1.578,1.05-2.628,2.627-2.628h13.134v-6.83c0,0,4.203,3.153,13.134,9.458
	c-8.931,6.829-13.134,9.979-13.134,9.979v-7.353h-13.134C131.852,159.402,130.802,158.353,130.802,156.776z"/>
<path fill="#7B7B8D" d="M-328.682,101.971h-8.273v3.667h1.833c0.333-0.014,0.65,0.161,0.818,0.449c0.174,0.288,0.174,0.647,0,0.938
	c-0.172,0.287-0.485,0.462-0.818,0.448h-10.997c-0.505,0-0.915-0.409-0.915-0.916c0-0.506,0.41-0.916,0.915-0.916h1.832v-3.665
	h-9.189c-2.025,0-3.667-1.645-3.667-3.666V81.809c0-2.022,1.642-3.661,3.667-3.661h24.8c2.023,0,3.663,1.639,3.666,3.661v16.495
	C-325.014,100.328-326.657,101.971-328.682,101.971z M-355.312,96.474v1.836c0,1.009,0.819,1.829,1.832,1.829h24.798
	c1.013,0,1.836-0.823,1.836-1.829v-1.836H-355.312z"/>
<circle fill="#FFFFFF" stroke="#ECE9F2" stroke-width="2" stroke-miterlimit="10" cx="233.395" cy="-100.221" r="43.107"/>
<g>
	<path fill="#7B7B8D" d="M204.281-77.364V-90.86h12.966v13.496h-1.649v-0.766h-9.725v0.766H204.281z M205.873-89.505v10.137h9.725
		v-10.137H205.873z M206.697-87.029v-1.296h8.074v1.296h-3.359v1.533h3.064v1.296h-3.064v2.357h2.063
		c-0.51-0.59-0.981-1.081-1.414-1.474l0.825-0.707c0.511,0.433,1.002,0.884,1.474,1.355l-0.885,0.826h1.475v1.296h-8.369v-1.296
		h3.301V-84.2h-2.889v-1.296h2.889v-1.533H206.697z"/>
	<path fill="#7B7B8D" d="M222.61-80.665c-0.197-0.274-0.57-0.707-1.119-1.296c2.514-1.257,3.712-3.084,3.595-5.481h-3.713v9.901
		h-1.592v-11.434h5.305c0-0.708,0-1.512,0-2.417h1.708c0,0.904-0.02,1.709-0.059,2.417h5.187v9.076
		c0.039,1.454-0.668,2.201-2.121,2.24c-0.904,0-1.749,0-2.535,0c-0.078-0.668-0.196-1.178-0.354-1.533
		c0.746,0.04,1.475,0.06,2.182,0.06c0.824,0.04,1.217-0.354,1.178-1.179v-7.131h-3.595c0,0.825-0.099,1.552-0.295,2.181
		c0.157,0.118,0.373,0.295,0.648,0.53c1.453,1.14,2.494,2.004,3.124,2.593l-1.237,1.238c-0.748-0.747-1.789-1.709-3.124-2.888
		C225.321-82.845,224.261-81.804,222.61-80.665z"/>
	<path fill="#7B7B8D" d="M235.223-77.305c-0.158-0.079-0.394-0.216-0.708-0.412c-0.354-0.197-0.608-0.354-0.766-0.472
		c0.589-0.903,0.981-1.788,1.179-2.652c0.196-0.864,0.295-2.161,0.295-3.89v-6.011h12.022v11.256
		c0.078,1.297-0.57,1.925-1.945,1.886c-0.512,0.039-1.14,0.059-1.886,0.059c-0.04-0.118-0.079-0.295-0.117-0.531
		c-0.08-0.433-0.158-0.766-0.236-1.001c0.196,0,0.472,0.019,0.825,0.059c0.354,0,0.608,0,0.767,0
		c0.707,0.039,1.041-0.216,1.001-0.767v-1.945h-3.712v4.008h-1.592v-4.008h-3.595C236.676-80.311,236.166-78.837,235.223-77.305z
		 M236.873-84.731c0,0.197-0.021,0.492-0.06,0.884c0,0.314,0,0.55,0,0.707h3.536v-2.357h-3.477V-84.731z M236.873-89.269v2.357
		h3.477v-2.357H236.873z M245.653-89.269h-3.712v2.357h3.712V-89.269z M241.941-85.497v2.357h3.712v-2.357H241.941z"/>
	<path fill="#7B7B8D" d="M250.133-77.364c-0.471-0.393-0.904-0.786-1.296-1.179c1.138-1.335,1.649-3.477,1.532-6.424v-4.479h5.304
		c-0.079-0.196-0.197-0.491-0.354-0.884c-0.197-0.393-0.335-0.687-0.413-0.884l1.769-0.295c0.235,0.668,0.51,1.355,0.825,2.063
		h4.715v7.013h-1.65v-0.707h-8.546C251.979-80.9,251.351-78.975,250.133-77.364z M252.019-84.966v0.294h8.546v-3.241h-8.546V-84.966
		z"/>
</g>
<circle fill="#FFFFFF" stroke="#ECE9F2" stroke-width="2" stroke-miterlimit="10" cx="347.081" cy="102.635" r="43.106"/>
<g>
	<path fill="#7B7B8D" d="M316.014,124.705c-0.304-0.303-0.641-0.605-1.011-0.909c1.28-1.146,2.257-2.121,2.931-2.93l1.111,0.809
		C318.338,122.517,317.327,123.526,316.014,124.705z M315.256,116.118v-1.264h3.232c0.135-0.235,0.32-0.605,0.557-1.11
		c0.134-0.271,0.235-0.472,0.303-0.607l1.565,0.203c-0.101,0.168-0.235,0.421-0.403,0.758c-0.169,0.337-0.304,0.589-0.404,0.757
		h7.072v1.264h-7.779c-0.539,0.976-1.095,1.903-1.667,2.778h3.182v-2.122h1.466v2.122h4.294v1.263h-4.294v3.03
		c0.101,1.28-0.522,1.921-1.869,1.921c-0.135,0-0.388,0-0.758,0c-0.472,0.033-0.809,0.05-1.011,0.05
		c-0.033-0.27-0.118-0.69-0.253-1.264l-0.05-0.101c0.505,0,1.011,0,1.516,0c0.707,0.034,1.027-0.27,0.959-0.909v-2.728h-4.798
		v-1.364c0.605-0.842,1.161-1.734,1.666-2.677H315.256z M326.42,124.554c-0.774-0.674-1.818-1.566-3.132-2.677l0.96-0.909
		c0.808,0.639,1.868,1.515,3.183,2.627L326.42,124.554z"/>
	<path fill="#7B7B8D" d="M328.138,115.562V114.4h5.304v-1.212h1.364v1.212h5.354v1.161h-5.354v1.112h4.799v6.921
		c0,0.976-0.505,1.48-1.516,1.516c-0.37,0.033-1.043,0.05-2.021,0.05c-0.033-0.102-0.067-0.253-0.102-0.455
		c-0.066-0.37-0.134-0.64-0.202-0.809c0.472,0,0.994,0,1.566,0c0.674,0.035,0.977-0.201,0.909-0.707v-5.405h-8.184v7.376h-1.313
		v-8.486h4.697v-1.112H328.138z M330.865,120.614v-1.011h1.516c-0.034-0.033-0.085-0.102-0.151-0.202
		c-0.37-0.606-0.59-0.96-0.657-1.062l1.213-0.252c0.102,0.102,0.32,0.404,0.656,0.909c0.136,0.236,0.219,0.37,0.253,0.404
		l-0.506,0.202h1.314c0.135-0.202,0.37-0.573,0.707-1.111c0.168-0.235,0.27-0.388,0.303-0.454l1.213,0.252
		c-0.034,0.033-0.068,0.085-0.102,0.151c-0.304,0.505-0.539,0.893-0.707,1.162h1.516v1.011h-2.627v1.061h2.93v1.061h-2.93v2.172
		h-1.313v-2.172h-2.88v-1.061h2.88v-1.061H330.865z"/>
	<path fill="#7B7B8D" d="M341.373,115.208v-1.313h11.416v1.313h-3.435v8.185h3.737v1.212H341.02v-1.212h3.737v-8.185H341.373z
		 M343.191,121.877c-0.371-1.146-0.994-2.795-1.87-4.951l1.162-0.454c0.809,1.953,1.466,3.603,1.97,4.95L343.191,121.877z
		 M346.121,115.208v8.185h1.869v-8.185H346.121z M350.719,121.927l-1.163-0.556c0.708-1.447,1.415-3.081,2.122-4.899l1.212,0.505
		c-0.101,0.236-0.235,0.572-0.403,1.01C351.678,119.873,351.089,121.187,350.719,121.927z"/>
	<path fill="#7B7B8D" d="M355.112,125.312c-0.135-0.067-0.336-0.185-0.605-0.354c-0.303-0.168-0.522-0.303-0.656-0.404
		c0.505-0.774,0.842-1.532,1.01-2.273c0.169-0.74,0.252-1.853,0.252-3.334v-5.152h10.306v9.648c0.067,1.111-0.488,1.65-1.667,1.616
		c-0.438,0.034-0.977,0.052-1.616,0.052c-0.034-0.102-0.067-0.253-0.102-0.455c-0.066-0.37-0.135-0.657-0.202-0.859
		c0.169,0,0.404,0.018,0.708,0.051c0.303,0,0.521,0,0.656,0c0.606,0.033,0.893-0.186,0.859-0.657v-1.666h-3.184v3.435h-1.364v-3.435
		h-3.08C356.358,122.735,355.921,123.998,355.112,125.312z M356.527,118.946c0,0.169-0.017,0.421-0.051,0.758
		c0,0.27,0,0.472,0,0.606h3.03v-2.021h-2.979V118.946z M356.527,115.057v2.021h2.979v-2.021H356.527z M364.055,115.057h-3.184v2.021
		h3.184V115.057z M360.871,118.29v2.021h3.184v-2.021H360.871z"/>
	<path fill="#7B7B8D" d="M367.894,125.261c-0.404-0.337-0.775-0.673-1.112-1.01c0.978-1.146,1.415-2.98,1.314-5.506v-3.839h4.546
		c-0.067-0.169-0.169-0.422-0.303-0.759c-0.168-0.337-0.286-0.589-0.354-0.757l1.515-0.254c0.203,0.573,0.438,1.162,0.707,1.77
		h4.042v6.01h-1.414v-0.605h-7.325C369.476,122.23,368.938,123.88,367.894,125.261z M369.51,118.745v0.252h7.325v-2.778h-7.325
		V118.745z"/>
</g>
<g>
	<path fill="#7B7B8D" d="M241.272-121.253c0,4.352-3.526,7.878-7.877,7.878c-4.352,0-7.879-3.527-7.879-7.878
		c0-4.35,3.527-7.878,7.879-7.878C237.746-129.131,241.272-125.603,241.272-121.253z"/>
	<path fill="#7B7B8D" d="M244.736-102.599c0,5.404-5.079,6.146-11.341,6.146c-6.265,0-11.341-0.741-11.341-6.146
		c0-5.405,5.076-9.787,11.341-9.787C239.657-112.387,244.736-108.005,244.736-102.599L244.736-102.599z"/>
</g>
<g>
	<path fill="#7B7B8D" d="M354.958,81.602c0,4.352-3.526,7.879-7.877,7.879s-7.879-3.527-7.879-7.879
		c0-4.351,3.528-7.877,7.879-7.877S354.958,77.251,354.958,81.602z"/>
	<path fill="#7B7B8D" d="M358.422,100.256c0,5.405-5.079,6.146-11.341,6.146c-6.265,0-11.341-0.74-11.341-6.146
		c0-5.404,5.076-9.788,11.341-9.788C353.343,90.468,358.422,94.85,358.422,100.256L358.422,100.256z"/>
</g>
<g>
	<g>
		<path fill="#7B7B8D" d="M-299.671,16.18h2.181c0.118-0.156,0.255-0.372,0.412-0.648c0.079-0.156,0.138-0.273,0.177-0.354
			l1.062,0.236l-0.472,0.766h3.595c-0.118,1.533-0.688,2.672-1.709,3.419c0.118,0.04,0.294,0.117,0.53,0.235
			c0.472,0.235,0.825,0.373,1.061,0.412l-0.648,0.885c-0.197-0.079-0.511-0.236-0.943-0.472c-0.393-0.196-0.707-0.335-0.943-0.413
			c-1.101,0.708-2.437,1.257-4.007,1.65c-0.04-0.118-0.158-0.314-0.354-0.589c-0.079-0.158-0.138-0.276-0.177-0.354
			c1.335-0.314,2.514-0.708,3.537-1.179c-0.472-0.236-1.238-0.59-2.299-1.061c0.746,0.313,0.648,0.274-0.294-0.118
			c0.313-0.433,0.627-0.923,0.942-1.475h-1.65V16.18z M-296.135,8.106h1.002v3.182h2.947v0.943h-2.947v1.296l0.53-0.59
			c0.589,0.354,1.296,0.845,2.122,1.474l-0.648,0.766c-0.118-0.077-0.275-0.195-0.471-0.354c-0.589-0.511-1.1-0.923-1.532-1.237
			v1.473h-1.002v-2.062c-0.708,0.865-1.73,1.689-3.064,2.475c-0.118-0.236-0.315-0.51-0.59-0.825c1.335-0.667,2.436-1.473,3.3-2.416
			h-3.005v-0.943h3.359V8.106z M-299.199,9.227l0.707-0.589c0.51,0.471,1.061,1.001,1.65,1.591l-0.825,0.648
			C-297.982,10.484-298.492,9.934-299.199,9.227z M-297.608,18.243c0.707,0.274,1.434,0.589,2.181,0.942
			c0.904-0.668,1.415-1.355,1.532-2.063h-3.006c-0.079,0.158-0.197,0.335-0.354,0.531C-297.412,17.929-297.53,18.125-297.608,18.243
			z M-292.834,8.637l0.708,0.707c-0.472,0.471-1.062,1.001-1.769,1.591l-0.707-0.707C-294.013,9.757-293.424,9.227-292.834,8.637z
			 M-290.359,7.988l1.061,0.118c-0.158,0.904-0.393,1.768-0.708,2.593h4.303v1.001h-0.884c-0.275,2.828-0.923,5.049-1.945,6.66
			c0.668,0.903,1.689,1.729,3.065,2.475c-0.354,0.354-0.61,0.688-0.767,1.002c-1.218-0.786-2.201-1.631-2.946-2.534
			c-0.629,0.786-1.671,1.709-3.124,2.77c-0.198-0.235-0.256-0.314-0.177-0.235c-0.354-0.433-0.551-0.668-0.589-0.707
			c1.493-0.943,2.572-1.886,3.241-2.829c-0.669-1.061-1.159-2.573-1.473-4.538c-0.197,0.354-0.413,0.707-0.648,1.061
			c-0.04-0.077-0.198-0.295-0.472-0.648c-0.118-0.157-0.197-0.254-0.236-0.294C-291.559,12.311-290.792,10.346-290.359,7.988z
			 M-289.18,17.3c0.745-1.218,1.237-3.083,1.473-5.599h-2.652c-0.039,0.118-0.098,0.276-0.177,0.472
			C-290.262,14.373-289.81,16.082-289.18,17.3z"/>
		<path fill="#7B7B8D" d="M-284.702,15.649c0.589-0.118,1.238-0.295,1.945-0.53v-3.3h-1.769v-1.002h1.769v-2.77h1.061v2.77h1.591
			v1.002h-1.591v3.005c0.472-0.195,0.922-0.354,1.355-0.472c0,0.395,0.02,0.748,0.059,1.062c-0.079,0.04-0.197,0.079-0.354,0.117
			c-0.118,0.04-0.471,0.158-1.061,0.354v4.126c0.079,1.179-0.492,1.748-1.709,1.709c-0.433,0-0.766,0-1.001,0
			c-0.04-0.354-0.098-0.727-0.177-1.12c0.196,0.04,0.568,0.06,1.12,0.06c0.51,0.039,0.746-0.177,0.708-0.648v-3.772
			c-0.394,0.118-1.002,0.315-1.827,0.59L-284.702,15.649z M-275.39,12.938h1.061v1.414h3.772v0.943h-3.772v1.709h2.947v4.833h-1.001
			v-0.825h-4.892v0.825h-1.061v-4.833h2.947v-1.709h-3.359c-0.08,2.868-0.747,5.087-2.004,6.659
			c-0.236-0.275-0.471-0.57-0.707-0.884c1.217-1.374,1.807-3.811,1.768-7.308v-4.95h8.369v3.831h-7.367v1.061v0.647h3.3V12.938z
			 M-278.69,9.757v1.944h6.365V9.757H-278.69z M-277.276,17.948v2.239h4.892v-2.239H-277.276z"/>
		<path fill="#7B7B8D" d="M-262.66,7.812l1.237,0.177c-0.511,0.512-1.022,0.983-1.532,1.415h6.306v0.942
			c-3.301,2.554-7.329,4.519-12.082,5.893c-0.04-0.117-0.197-0.354-0.471-0.707c-0.08-0.117-0.139-0.195-0.177-0.235
			c4.557-1.256,8.23-2.887,11.021-4.891h-5.894c-0.04,0-0.098,0.04-0.177,0.118c-0.118,0.041-0.198,0.079-0.236,0.118
			c0.274,0.236,0.648,0.57,1.12,1.001c0.274,0.236,0.471,0.413,0.589,0.531l-0.884,0.765c-0.551-0.628-1.101-1.217-1.65-1.768
			c-0.747,0.471-1.572,0.904-2.475,1.297c-0.08-0.118-0.197-0.255-0.354-0.413c-0.118-0.118-0.236-0.255-0.354-0.413
			C-266.235,10.622-264.231,9.344-262.66,7.812z M-260.42,13.528l1.061,0.294c-0.433,0.395-0.884,0.748-1.355,1.061h4.597v1.002
			c-2.986,3.262-7.111,5.305-12.376,6.13c-0.08-0.236-0.275-0.551-0.589-0.943c4.989-0.747,8.819-2.475,11.492-5.187h-4.538
			c-0.393,0.236-0.825,0.492-1.297,0.767c0.118,0.117,0.295,0.294,0.53,0.53c0.432,0.394,0.727,0.688,0.885,0.885l-0.885,0.766
			c-0.235-0.274-0.687-0.805-1.355-1.591c-0.04-0.039-0.08-0.078-0.118-0.119c-0.982,0.512-2.063,1.003-3.241,1.475
			c-0.197-0.275-0.393-0.569-0.589-0.884C-264.664,16.338-262.07,14.942-260.42,13.528z"/>
		<path fill="#7B7B8D" d="M-252.877,16.592c1.062-0.117,2.102-0.215,3.124-0.294c-0.079,0.354-0.118,0.707-0.118,1.062
			c-2.003,0.117-3.359,0.255-4.066,0.412l-0.354-1.062c0.274-0.235,0.568-0.549,0.884-0.942c0.589-0.746,1.061-1.415,1.415-2.004
			c-0.275,0-0.648,0.02-1.12,0.059c-0.551,0-0.943,0.02-1.179,0.06l-0.295-1.002c0.118-0.078,0.333-0.333,0.648-0.766
			c0.079-0.078,0.138-0.157,0.177-0.236c0.707-1.138,1.394-2.435,2.063-3.89l1.001,0.472c-0.629,1.219-1.532,2.711-2.711,4.479
			c0.393-0.039,1.061-0.059,2.004-0.059c0.354-0.589,0.687-1.159,1.002-1.709l1.001,0.53
			C-250.578,13.548-251.738,15.178-252.877,16.592z M-254.586,19.834c0.981-0.118,2.436-0.313,4.361-0.589
			c0.274-0.04,0.491-0.06,0.648-0.06c-0.079,0.395-0.118,0.748-0.118,1.061c-1.768,0.118-3.34,0.313-4.714,0.59L-254.586,19.834z
			 M-250.342,13.822c1.297-1.806,2.337-3.751,3.124-5.834l1.001,0.354c-0.157,0.276-0.354,0.688-0.589,1.238
			c-0.235,0.471-0.412,0.825-0.53,1.061h6.66v0.943h-3.124v2.18h3.006v1.002h-3.006v2.121h3.006v1.003h-3.006v2.18h3.3v0.825h-7.19
			v1.002h-1.061v-8.663c-0.236,0.394-0.551,0.865-0.943,1.414C-249.891,14.334-250.107,14.059-250.342,13.822z M-247.69,11.583v2.18
			h2.888v-2.18H-247.69z M-247.69,14.766v2.121h2.888v-2.121H-247.69z M-247.69,17.89v2.18h2.888v-2.18H-247.69z M-245.333,8.578
			l0.884-0.59c0.235,0.315,0.55,0.748,0.943,1.297c0.196,0.314,0.333,0.53,0.412,0.648l-0.943,0.589
			C-244.508,9.698-244.941,9.049-245.333,8.578z"/>
		<path fill="#7B7B8D" d="M-232.426,8.106l1.12-0.236c0.038,0.236,0.118,0.55,0.235,0.943c0.079,0.314,0.138,0.55,0.177,0.707h5.422
			v1.001h-11.434v3.3c0,2.279-0.118,3.93-0.354,4.951c-0.197,1.061-0.648,2.14-1.355,3.241c-0.08-0.079-0.216-0.196-0.413-0.354
			c-0.235-0.236-0.393-0.395-0.471-0.472c0.668-1.021,1.08-1.984,1.238-2.888c0.196-0.864,0.295-2.278,0.295-4.243V9.521h5.894
			C-232.19,9.049-232.309,8.578-232.426,8.106z M-236.139,17.241v-1.003h8.958v1.003c-1.1,1.1-2.102,1.925-3.005,2.475
			c1.021,0.354,2.631,0.688,4.833,1.002c-0.236,0.354-0.433,0.726-0.589,1.12c-2.201-0.354-4.028-0.884-5.481-1.592
			c-1.533,0.747-3.34,1.336-5.422,1.769c-0.198-0.512-0.393-0.865-0.589-1.061c2.24-0.433,3.85-0.844,4.833-1.238
			c-0.943-0.707-1.789-1.531-2.534-2.475H-236.139z M-229.362,10.935h1.061v1.12h2.652v0.943h-2.652v2.238h-6.188v-2.238h-2.063
			v-0.943h2.063v-1.12h1.12v1.12h4.007V10.935z M-228.772,17.241h-5.01c0.707,0.786,1.493,1.414,2.357,1.886
			C-230.443,18.616-229.559,17.987-228.772,17.241z M-233.369,12.998v1.296h4.007v-1.296H-233.369z"/>
		<path fill="#7B7B8D" d="M-217.81,7.988h1.001v1.533h6.188v0.943h-5.305c1.493,1.14,3.398,2.004,5.717,2.593
			c-0.039,0.04-0.098,0.118-0.177,0.235c-0.079,0.158-0.216,0.413-0.412,0.767c-2.593-0.864-4.597-1.963-6.012-3.3v2.357h-1.001
			v-2.357c-1.218,1.14-2.652,2.063-4.302,2.77h9.783v5.717h-9.842v-5.658c-0.197,0.078-0.492,0.196-0.884,0.354
			c-0.315,0.118-0.551,0.217-0.707,0.295c-0.197-0.354-0.413-0.667-0.648-0.943c2.436-0.707,4.361-1.65,5.776-2.828h-5.246V9.521
			h6.071V7.988z M-224.234,20.423h13.909v0.943h-13.909V20.423z M-221.111,14.529v1.355h7.721v-1.355H-221.111z M-221.111,16.887
			v1.356h7.721v-1.356H-221.111z"/>
		<path fill="#7B7B8D" d="M-204.845,18.655c0,0.511,0.02,0.925,0.059,1.237c-0.943,0.55-1.827,1.159-2.652,1.827l-0.648-1.002
			c0.354-0.314,0.51-0.707,0.471-1.179V13.94h-1.65v-1.002h2.77v6.837C-205.827,19.344-205.278,18.97-204.845,18.655z
			 M-207.909,8.283c1.139,1.14,1.905,1.926,2.298,2.357l-0.943,0.766c-0.787-0.982-1.494-1.787-2.122-2.416L-207.909,8.283z
			 M-205.847,12.645c1.179-1.415,2.16-3.006,2.947-4.774l1.12,0.354c-0.118,0.236-0.295,0.59-0.531,1.061
			c-0.118,0.196-0.197,0.354-0.236,0.472h6.896c-0.079,3.458-0.157,6.6-0.236,9.429c0,1.728-0.864,2.553-2.593,2.476
			c-0.865,0-1.533,0-2.004,0c0-0.079-0.021-0.276-0.059-0.59c-0.039-0.275-0.08-0.472-0.118-0.589
			c0.51,0.077,1.217,0.117,2.121,0.117c1.062,0.078,1.571-0.393,1.533-1.414c0.156-2.671,0.236-5.461,0.236-8.368h-6.424
			c-0.669,1.101-1.238,1.926-1.709,2.475c-0.04-0.039-0.217-0.157-0.531-0.354C-205.631,12.781-205.768,12.685-205.847,12.645z
			 M-204.079,12.468h5.245v6.777h-5.245V12.468z M-203.018,13.469v1.945h3.124v-1.945H-203.018z M-203.018,18.243h3.124v-1.945
			h-3.124V18.243z"/>
	</g>
</g>
<g>
	<g>
		<path fill="#7B7B8D" d="M82.927-204.123h2.24v-2.357c-0.197,0-0.511,0.02-0.943,0.059c-0.433,0-0.766,0.02-1.001,0.059
			c-0.04-0.313-0.118-0.648-0.236-1.002c2.082-0.078,3.811-0.216,5.186-0.413l0.177,1.061c-0.589,0.041-1.296,0.1-2.121,0.177v2.417
			h2.004v0.943h-2.004v1.827l0.472-0.53c0.589,0.432,1.218,0.943,1.886,1.532l-0.767,0.884c-0.156-0.195-0.412-0.451-0.766-0.766
			c-0.354-0.354-0.629-0.608-0.825-0.766v6.424h-1.061v-6.188c-0.434,1.179-1.061,2.377-1.886,3.595
			c-0.197-0.432-0.374-0.844-0.531-1.238c0.982-1.374,1.748-2.966,2.299-4.774h-2.122V-204.123z M87.937-204.771
			c1.611-1.179,2.809-2.455,3.596-3.831l1.001,0.354c-0.039,0.079-0.137,0.216-0.294,0.412c-0.118,0.197-0.216,0.354-0.295,0.472
			h4.42v1.002c-0.981,1.65-2.456,3.005-4.42,4.066l1.002,0.294c-0.157,0.276-0.314,0.512-0.472,0.708h4.185v1.002
			c-1.493,2.986-4.382,4.931-8.664,5.834c-0.196-0.354-0.373-0.668-0.53-0.943c3.969-0.825,6.641-2.475,8.015-4.95h-3.771
			c-0.236,0.315-0.492,0.589-0.767,0.825c0.59,0.394,1.14,0.865,1.65,1.415l-0.767,0.707c-0.511-0.511-1.022-1.021-1.531-1.533
			c-0.354,0.315-0.944,0.786-1.77,1.415c-0.117,0.118-0.215,0.197-0.294,0.235c-0.118-0.196-0.295-0.432-0.53-0.707
			c-0.039-0.078-0.079-0.137-0.118-0.177c1.886-1.179,3.339-2.553,4.361-4.125c-0.982,0.511-2.122,0.983-3.419,1.415
			c-0.117-0.275-0.294-0.589-0.53-0.943c3.457-1.021,5.874-2.554,7.249-4.597h-4.065c-0.04,0.079-0.118,0.177-0.236,0.294
			c-0.117,0.158-0.216,0.276-0.294,0.354c0.196,0.158,0.49,0.374,0.884,0.649c0.354,0.314,0.627,0.55,0.824,0.707l-0.766,0.707
			c-0.197-0.157-0.452-0.392-0.766-0.707c-0.354-0.354-0.629-0.608-0.825-0.766c-0.434,0.432-0.885,0.825-1.356,1.179
			C88.447-204.24,88.211-204.495,87.937-204.771z"/>
		<path fill="#7B7B8D" d="M103.023-200.645c0.434,0.904,0.964,2.063,1.592,3.477c-0.079-0.118-0.039,0,0.118,0.354
			c-0.157,0.04-0.412,0.138-0.766,0.294c-0.157,0.079-0.275,0.138-0.354,0.177c-0.039-0.195-0.098-0.373-0.177-0.53
			c-1.688,0.158-3.32,0.354-4.892,0.589l-0.53-1.179c0.433-0.275,0.767-0.688,1.002-1.238c0.511-1.1,1.002-2.278,1.473-3.536h-2.475
			v-1.061h6.896v1.061h-3.242c-0.707,1.886-1.414,3.458-2.121,4.715c0.589-0.039,1.532-0.118,2.828-0.236
			c0.315-0.039,0.551-0.059,0.707-0.059c-0.117-0.275-0.294-0.688-0.53-1.238c-0.196-0.51-0.354-0.902-0.471-1.179L103.023-200.645z
			 M98.663-207.305h5.717v1.061h-5.717V-207.305z M106.737-208.542h1.178c0,0.394-0.02,0.943-0.059,1.65c0,0.589,0,1.042,0,1.355
			h3.772c0,0.118,0,0.295,0,0.531c-0.08,4.007-0.157,6.542-0.236,7.603c-0.039,1.61-0.766,2.417-2.181,2.417c-0.55,0-1.099,0-1.65,0
			c-0.078-0.394-0.157-0.806-0.235-1.238c0.787,0.078,1.376,0.118,1.768,0.118c0.746,0,1.141-0.431,1.18-1.296
			c0.156-2.75,0.235-5.127,0.235-7.131h-2.711c0,0.393,0,0.806,0,1.237c-0.039,3.733-1.14,6.66-3.3,8.781
			c-0.236-0.314-0.53-0.629-0.885-0.943c1.965-1.61,2.986-4.223,3.064-7.838c0-0.354,0-0.766,0-1.237h-2.18v-1.002h2.239
			C106.737-206.519,106.737-207.521,106.737-208.542z"/>
		<path fill="#7B7B8D" d="M117.699-203.651c-0.236,1.375-0.648,3.359-1.238,5.953c0.511-0.118,1.002-0.236,1.474-0.354
			c0,0.078,0,0.412,0,1.001c-0.825,0.197-2.22,0.472-4.185,0.825c-0.235,0.039-0.412,0.078-0.53,0.118l-0.177-0.943
			c0.668-0.118,1.473-0.274,2.416-0.471c0.472-2.24,0.864-4.341,1.179-6.306L117.699-203.651z M113.161-205.655h4.892v0.943h-4.892
			V-205.655z M113.396-203.592l0.943-0.177c0.235,0.983,0.551,2.692,0.942,5.127l-1.002,0.236c-0.039-0.51-0.235-1.65-0.589-3.418
			C113.573-202.649,113.475-203.238,113.396-203.592z M114.752-208.248l0.942-0.295c0,0.04,0.021,0.118,0.06,0.236
			c0.354,1.14,0.569,1.886,0.647,2.239l-1.001,0.294c-0.039-0.274-0.197-0.864-0.472-1.768
			C114.85-207.854,114.791-208.09,114.752-208.248z M118.524-200.645h3.005l0.295-1.592h-3.653v-0.884h9.017v0.884h-4.303
			l-0.412,1.592h4.125v4.361c0.04,1.061-0.432,1.571-1.414,1.533c-0.274,0.039-0.629,0.059-1.061,0.059
			c0-0.197-0.039-0.412-0.118-0.648h-0.825v-4.42h-1.355v4.42h-0.943v-4.42h-1.355v5.127h-1.001V-200.645z M118.878-204.535v-3.183
			h1.001v2.298h2.181v-3.182h0.943v3.182h2.239v-2.298h0.943v3.183H118.878z M125.597-199.761h-1.474v4.007
			c0.314,0.04,0.589,0.059,0.825,0.059c0.472,0.039,0.687-0.158,0.648-0.589V-199.761z"/>
		<path fill="#7B7B8D" d="M128.189-200.881h2.062v-1.945h-0.824v-0.707c-0.039,0.079-0.098,0.197-0.177,0.354
			c-0.079,0.158-0.236,0.413-0.472,0.766c-0.079-0.195-0.274-0.471-0.589-0.825c-0.039-0.078-0.079-0.137-0.118-0.177
			c0.942-1.296,1.748-2.986,2.416-5.068l1.12,0.294c-0.235,0.629-0.471,1.218-0.707,1.768h2.711v1.001h-3.184
			c-0.038,0.079-0.097,0.197-0.177,0.354c-0.155,0.354-0.373,0.747-0.647,1.179h3.654v1.061h-1.944v1.945h2.121v1.061h-2.121v3.065
			c0.509-0.354,1.217-0.805,2.121-1.355c0.078,0.471,0.157,0.845,0.235,1.12c-0.746,0.433-1.532,0.903-2.356,1.414
			c-0.472,0.354-0.747,0.57-0.826,0.649l-0.767-0.943c0.394-0.354,0.57-0.746,0.53-1.179v-2.77h-2.062V-200.881z M133.611-204.888
			l2.003-0.236c-0.038-1.021-0.059-2.141-0.059-3.359h1.12c0,1.179,0.021,2.259,0.059,3.241l4.833-0.531l0.118,0.943l-4.893,0.589
			c0,0.158,0.021,0.374,0.061,0.648c0.038,0.629,0.078,1.081,0.117,1.355l4.832-0.589l0.118,1.002l-4.832,0.589
			c0.156,1.1,0.412,2.043,0.766,2.829c0.863-0.746,1.65-1.591,2.357-2.534l0.884,0.648c-0.825,1.021-1.729,2.004-2.711,2.947
			c0.354,0.589,0.805,1.022,1.355,1.296c0.629,0.393,1.021,0.275,1.179-0.354c0.039-0.157,0.079-0.373,0.118-0.648
			c0.117-0.667,0.196-1.178,0.235-1.532c0.393,0.158,0.728,0.276,1.002,0.354c-0.118,0.865-0.235,1.552-0.354,2.062
			c-0.235,1.062-0.727,1.551-1.474,1.474c-0.55,0.039-1.08-0.158-1.591-0.589c-0.551-0.472-1.002-0.943-1.355-1.415
			c-1.022,0.707-2.181,1.355-3.478,1.945c-0.196-0.276-0.451-0.59-0.766-0.943c1.649-0.667,2.867-1.315,3.654-1.945
			c-0.434-0.943-0.746-2.102-0.943-3.477l-2.122,0.236l-0.177-0.943l2.121-0.295c-0.038-0.628-0.097-1.296-0.177-2.004l-1.826,0.177
			L133.611-204.888z M137.678-207.776l0.648-0.648c0.707,0.511,1.355,1.042,1.944,1.591l-0.766,0.766
			C139.112-206.539,138.503-207.108,137.678-207.776z"/>
		<path fill="#7B7B8D" d="M146.813-208.66l1.179,0.354c-0.079,0.158-0.177,0.394-0.295,0.707c-0.157,0.315-0.274,0.551-0.354,0.707
			h8.192c-0.039,2.162-0.118,4.42-0.236,6.778c0,1.768-0.845,2.613-2.533,2.534c-0.552,0.04-1.179,0.059-1.886,0.059
			c0-0.314-0.08-0.707-0.236-1.179c0.079,0,0.274,0,0.59,0c0.668,0.041,1.179,0.059,1.532,0.059c0.942,0.04,1.414-0.413,1.414-1.355
			c0.117-1.846,0.177-3.811,0.177-5.894h-7.544c-0.354,0.629-0.728,1.238-1.119,1.827h5.952v4.243h-5.187v2.593
			c-0.039,0.748,0.393,1.1,1.297,1.061h6.482c0.982,0.04,1.532-0.215,1.65-0.766c0.079-0.313,0.177-0.864,0.294-1.65
			c0.04-0.236,0.06-0.413,0.06-0.531c0.668,0.276,1.041,0.413,1.119,0.413c-0.118,0.826-0.235,1.533-0.354,2.122
			c-0.273,1.021-1.119,1.512-2.534,1.474h-6.954c-1.493,0.039-2.22-0.649-2.18-2.063v-6.365c-0.472,0.589-0.964,1.179-1.475,1.769
			c-0.156-0.275-0.392-0.59-0.707-0.943C144.81-204.594,146.026-206.578,146.813-208.66z M146.459-203.121v2.299h4.067v-2.299
			H146.459z"/>
		<path fill="#7B7B8D" d="M95.834-190.438l1.238,0.177c-0.04,0.157-0.139,0.412-0.295,0.766c-0.118,0.354-0.216,0.629-0.295,0.825
			h8.016v1.002h-8.487c-0.668,1.375-1.415,2.652-2.239,3.831v7.25H92.71v-5.835c-0.551,0.629-1.1,1.219-1.649,1.768
			c-0.157-0.354-0.393-0.708-0.707-1.061c1.806-1.571,3.28-3.555,4.419-5.952h-3.712v-1.002h4.184
			C95.52-189.259,95.716-189.849,95.834-190.438z M98.781-186.725H99.9v2.888h3.772v1.002H99.9v4.302h4.598v0.884H94.302v-0.884
			h4.479v-4.302h-3.714v-1.002h3.714V-186.725z"/>
		<path fill="#7B7B8D" d="M107.326-181.893c0.825-0.078,1.826-0.177,3.006-0.294c0,0.118-0.021,0.275-0.059,0.471
			c-0.039,0.236-0.08,0.413-0.118,0.531c-0.315,0.04-0.746,0.079-1.297,0.118c-0.786,0.079-1.729,0.197-2.829,0.354l-0.354-1.061
			c0.275-0.118,0.551-0.354,0.825-0.707c0.314-0.393,0.825-1.139,1.532-2.24c-0.903,0-1.689,0.04-2.357,0.118l-0.235-1.002
			c0.079-0.078,0.274-0.313,0.589-0.707c0.904-1.375,1.671-2.77,2.299-4.185l1.061,0.472c-0.903,1.65-1.787,3.124-2.651,4.42
			c0.864,0,1.493-0.019,1.885-0.059c0.198-0.314,0.472-0.806,0.825-1.474c-0.038,0.079,0.021-0.019,0.177-0.295l1.062,0.413
			C109.468-185.055,108.349-183.346,107.326-181.893z M105.499-178.71c1.218-0.157,2.908-0.432,5.069-0.825
			c0,0.157-0.021,0.354-0.06,0.589c0,0.236,0,0.394,0,0.472c-0.315,0.04-0.846,0.138-1.592,0.294
			c-1.452,0.196-2.475,0.354-3.064,0.472L105.499-178.71z M110.392-183.366l3.123-0.413c-0.118-0.746-0.196-1.473-0.236-2.181
			l-2.533,0.295l-0.177-1.002l2.651-0.354c0-0.078,0-0.177,0-0.294c-0.078-1.61-0.118-2.632-0.118-3.064h1.12
			c0,1.101,0.039,2.18,0.118,3.241l4.773-0.53l0.118,1.002l-4.833,0.589c0.078,0.747,0.138,1.455,0.177,2.122l4.892-0.708
			l0.118,1.002l-4.833,0.707c0.079,0.747,0.216,1.396,0.412,1.945c0.08,0.235,0.139,0.453,0.177,0.648
			c0.982-0.746,1.828-1.591,2.535-2.534l0.884,0.707c-0.825,1.022-1.828,1.985-3.006,2.888c0.314,0.629,0.786,1.081,1.415,1.355
			c0.589,0.354,0.981,0.196,1.179-0.471c0-0.078,0.02-0.157,0.059-0.236c0.078-0.55,0.156-1.159,0.235-1.827
			c0.118,0.079,0.472,0.217,1.062,0.413c-0.197,1.101-0.334,1.808-0.413,2.122c-0.235,0.864-0.688,1.315-1.355,1.356
			c-0.589,0.039-1.158-0.158-1.71-0.59c-0.589-0.472-1.04-0.983-1.354-1.532c-1.297,0.746-2.77,1.454-4.42,2.122
			c-0.157-0.276-0.393-0.609-0.708-1.002c1.807-0.589,3.359-1.296,4.656-2.121c0-0.04-0.02-0.118-0.059-0.236
			c-0.079-0.157-0.138-0.295-0.178-0.413c-0.274-0.981-0.451-1.787-0.53-2.416l-3.063,0.413L110.392-183.366z M115.459-189.613
			l0.589-0.766c0.472,0.314,1.101,0.766,1.887,1.355c0.118,0.118,0.216,0.197,0.295,0.236l-0.707,0.825
			C116.894-188.552,116.205-189.102,115.459-189.613z"/>
		<path fill="#7B7B8D" d="M127.188-190.497h1.179v2.063h6.188v1.061h-6.188v2.122h3.948v1.001c-0.864,1.886-2.063,3.458-3.595,4.715
			c1.376,0.786,3.379,1.355,6.011,1.708c-0.117,0.118-0.314,0.393-0.589,0.825c-0.118,0.196-0.196,0.334-0.235,0.413
			c-2.711-0.551-4.774-1.278-6.188-2.181c-1.454,0.825-3.595,1.61-6.424,2.358c-0.274-0.551-0.491-0.924-0.648-1.12
			c2.985-0.629,5.029-1.276,6.129-1.945c-1.335-1.1-2.416-2.691-3.24-4.774h-1.416v-1.001h5.069v-2.122h-6.483v-1.061h6.483
			V-190.497z M131.019-184.25h-6.247c0.668,1.769,1.649,3.144,2.946,4.126C129.25-181.303,130.35-182.678,131.019-184.25z"/>
		<path fill="#7B7B8D" d="M135.674-183.66c1.493-2.004,2.632-4.262,3.419-6.778l1.178,0.354c-0.393,1.1-0.864,2.22-1.414,3.359
			v10.196h-1.119v-8.074c-0.552,0.865-1.101,1.631-1.651,2.299C136.008-182.619,135.871-183.071,135.674-183.66z M139.8-186.96
			h6.541v-3.359h1.179v3.359h2.063v1.061h-2.063v6.954c0.039,1.415-0.727,2.161-2.298,2.24c-0.746,0-1.376,0-1.887,0
			c0-0.236-0.059-0.609-0.177-1.12c0.118,0.354,0.099,0.295-0.059-0.177c0.628,0.078,1.297,0.118,2.004,0.118
			c0.863,0.078,1.276-0.354,1.237-1.296v-6.719H139.8V-186.96z M140.742-183.837l0.943-0.589c0.628,0.826,1.316,1.906,2.062,3.242
			l-1.061,0.648C142.06-181.794,141.41-182.894,140.742-183.837z"/>
	</g>
</g>
<g>
	<g>
		<path fill="#7B7B8D" d="M209.353,5.744h-3.655v4.773h-1.296V-1.269h5.068c2.396,0.118,3.713,1.278,3.948,3.477
			C213.379,4.526,212.023,5.706,209.353,5.744z M209.116-0.09h-3.419v4.656h3.419c1.886-0.04,2.849-0.844,2.888-2.417
			C211.924,0.696,210.962-0.05,209.116-0.09z"/>
		<path fill="#7B7B8D" d="M223.85,6.451l1.532,0.354c-0.747,2.554-2.456,3.85-5.126,3.889c-3.381-0.196-5.168-2.14-5.363-5.834
			c0.154-4.007,1.982-6.109,5.48-6.306c2.239,0.079,3.83,1.219,4.773,3.418l-1.474,0.354c-0.707-1.689-1.848-2.553-3.417-2.593
			c-2.398,0.236-3.714,1.906-3.949,5.01c0.156,3.025,1.452,4.656,3.889,4.891C222.119,9.556,223.338,8.495,223.85,6.451z"/>
		<path fill="#7B7B8D" d="M235.343,2.621c-0.236,1.375-0.648,3.359-1.237,5.953c0.509-0.118,1.001-0.236,1.473-0.354
			c0,0.079,0,0.413,0,1.001c-0.825,0.197-2.221,0.472-4.185,0.825c-0.235,0.039-0.412,0.078-0.53,0.118l-0.177-0.943
			c0.667-0.118,1.473-0.274,2.416-0.471c0.472-2.24,0.863-4.341,1.18-6.306L235.343,2.621z M230.805,0.617h4.892V1.56h-4.892V0.617z
			 M231.04,2.68l0.942-0.177c0.236,0.983,0.551,2.692,0.943,5.127l-1.002,0.236c-0.04-0.511-0.235-1.65-0.589-3.418
			C231.217,3.623,231.117,3.033,231.04,2.68z M232.396-1.976l0.942-0.294c0,0.04,0.02,0.118,0.06,0.235
			c0.354,1.14,0.568,1.886,0.648,2.239l-1.002,0.295c-0.04-0.275-0.198-0.864-0.472-1.768
			C232.492-1.583,232.434-1.818,232.396-1.976z M236.168,5.626h3.005l0.295-1.591h-3.653V3.151h9.017v0.884h-4.303l-0.413,1.591
			h4.126v4.361c0.038,1.062-0.433,1.571-1.414,1.533c-0.276,0.039-0.63,0.059-1.061,0.059c0-0.197-0.04-0.413-0.118-0.648h-0.826
			V6.51h-1.354v4.42h-0.943V6.51h-1.355v5.127h-1.001V5.626z M236.521,1.737v-3.183h1.001v2.299h2.181V-2.33h0.943v3.183h2.239
			v-2.299h0.943v3.183H236.521z M243.239,6.51h-1.473v4.007c0.313,0.04,0.589,0.059,0.825,0.059c0.471,0.04,0.686-0.158,0.647-0.589
			V6.51z"/>
		<path fill="#7B7B8D" d="M247.837,11.52h-1.062V-1.446h12.141V9.693c0.078,1.139-0.512,1.728-1.768,1.768c-0.552,0-1.237,0-2.063,0
			c-0.04-0.471-0.118-0.845-0.235-1.12c0.077,0,0.294,0,0.647,0c0.549,0.04,0.98,0.059,1.297,0.059
			c0.745,0.04,1.099-0.236,1.061-0.825v-9.96h-10.019v8.899c0.825-1.218,1.532-2.417,2.121-3.595
			c-0.275-0.511-0.707-1.257-1.296-2.24c-0.276-0.51-0.493-0.884-0.648-1.12l0.825-0.472c0.077,0.118,0.177,0.295,0.294,0.531
			c0.354,0.511,0.804,1.277,1.355,2.298c0.313-0.628,0.687-1.512,1.12-2.651c0.038-0.157,0.077-0.275,0.118-0.354l0.942,0.354
			c-0.472,1.296-0.983,2.515-1.532,3.654c0.118,0.197,0.295,0.511,0.53,0.943c0.51,0.825,0.863,1.454,1.061,1.886l-0.942,0.531
			c-0.394-0.786-0.807-1.551-1.237-2.299c-0.59,1.179-1.219,2.221-1.886,3.124l-0.825-0.53V11.52z M252.61,2.031l0.824-0.471
			c0.236,0.354,0.628,1.001,1.18,1.944c0.195,0.315,0.332,0.551,0.413,0.708c0.589-1.139,1.061-2.2,1.414-3.183l1.002,0.354
			c-0.708,1.65-1.297,2.947-1.769,3.89c0.667,1.14,1.276,2.22,1.827,3.241l-0.943,0.53c-0.158-0.274-0.412-0.726-0.766-1.355
			c-0.316-0.59-0.552-1.041-0.707-1.356c-0.04,0.079-0.118,0.197-0.235,0.354c-0.708,1.297-1.26,2.181-1.651,2.652l-0.884-0.589
			c0.825-1.139,1.552-2.299,2.181-3.477C253.827,4.134,253.199,3.053,252.61,2.031z"/>
		<path fill="#7B7B8D" d="M260.803,10.694c4.752-0.785,6.973-2.809,6.658-6.07V3.21h1.063v1.415c0.037,0.943-0.06,1.788-0.295,2.534
			c0.472,0.236,1.157,0.609,2.063,1.12c1.846,1.021,3.22,1.748,4.126,2.18l-0.708,1.12c-1.886-1.179-3.853-2.318-5.895-3.418
			c-0.824,1.572-2.927,2.75-6.305,3.536C261.392,11.421,261.156,11.087,260.803,10.694z M262.747,1.383h4.007l0.53-1.945h-6.128
			v-1.001h13.614v1.001h-6.307l-0.589,1.945h5.362v6.777h-1.12V2.385h-8.25V8.22h-1.12V1.383z"/>
		<path fill="#7B7B8D" d="M209.588,28.741c3.732-0.63,6.012-1.651,6.836-3.065h-6.601v-1.061h7.072
			c0.354-1.021,0.53-2.73,0.53-5.128h1.12c0,2.397-0.158,4.107-0.472,5.128h5.481v1.061h-5.894c-0.041,0.118-0.1,0.235-0.177,0.354
			c0.313,0.118,0.884,0.374,1.708,0.766c2.16,0.905,3.556,1.493,4.186,1.77l-0.648,1.061c-0.472-0.236-1.69-0.807-3.654-1.709
			c-1.061-0.473-1.789-0.806-2.181-1.003c-1.141,1.18-3.34,2.16-6.601,2.947C210.06,29.467,209.823,29.095,209.588,28.741z
			 M215.894,16.069l1.12-0.354c0.077,0.158,0.215,0.453,0.412,0.884c0.195,0.433,0.333,0.748,0.413,0.943l-0.884,0.295h6.247v2.533
			h-1.179v-1.473h-10.785v1.473h-1.12v-2.533h6.483c0-0.04-0.021-0.099-0.06-0.178C216.307,16.994,216.09,16.464,215.894,16.069z
			 M211.945,21.669c0.078,0.039,0.196,0.098,0.354,0.177c1.375,0.668,2.277,1.139,2.711,1.414l-0.647,0.942
			c-1.573-0.902-2.574-1.433-3.007-1.591L211.945,21.669z M213.241,19.605c0.863,0.394,1.865,0.924,3.006,1.592L215.6,22.14
			c-0.354-0.235-1.179-0.727-2.477-1.473c-0.197-0.119-0.334-0.196-0.412-0.236L213.241,19.605z"/>
		<path fill="#7B7B8D" d="M225.205,17.189h4.951v11.552h-1.12v-1.12h-2.652v1.237h-1.179V17.189z M226.384,18.25v3.596h2.652V18.25
			H226.384z M226.384,22.847v3.713h2.652v-3.713H226.384z M235.696,15.775h1.119v3.182h2.004v1.061h-2.004v7.545
			c0.078,1.334-0.589,1.982-2.003,1.944c-0.198,0-0.59,0.019-1.18,0.059c-0.551,0-0.904,0-1.061,0
			c-0.039-0.235-0.118-0.609-0.236-1.119c-0.039-0.08-0.059-0.139-0.059-0.177c0.274,0.038,1.04,0.059,2.299,0.059
			c0.825,0.078,1.197-0.255,1.12-1.003v-7.308h-5.068v-1.061h5.068V15.775z M232.219,21.374c0.354,0.668,0.922,1.787,1.71,3.358
			c-0.354,0.118-0.729,0.315-1.121,0.59c-0.629-1.414-1.16-2.553-1.591-3.418L232.219,21.374z"/>
		<path fill="#7B7B8D" d="M246.363,15.775h1.179v2.063h6.188v1.061h-6.188v2.122h3.948v1.002c-0.865,1.886-2.063,3.458-3.595,4.714
			c1.374,0.787,3.378,1.356,6.011,1.71c-0.118,0.118-0.315,0.392-0.589,0.825c-0.118,0.195-0.197,0.333-0.236,0.412
			c-2.71-0.551-4.772-1.277-6.188-2.181c-1.455,0.825-3.595,1.61-6.425,2.357c-0.274-0.551-0.491-0.924-0.647-1.119
			c2.984-0.63,5.028-1.277,6.129-1.946c-1.337-1.099-2.416-2.69-3.241-4.772h-1.414v-1.002h5.068v-2.122h-6.483v-1.061h6.483V15.775
			z M250.194,22.022h-6.247c0.666,1.768,1.649,3.144,2.946,4.125C248.426,24.969,249.524,23.595,250.194,22.022z"/>
		<path fill="#7B7B8D" d="M254.851,22.611c1.491-2.003,2.631-4.263,3.417-6.777l1.179,0.354c-0.394,1.101-0.865,2.221-1.414,3.358
			v10.196h-1.12v-8.073c-0.552,0.864-1.101,1.631-1.649,2.298C255.182,23.653,255.046,23.201,254.851,22.611z M258.975,19.311h6.542
			v-3.358h1.179v3.358h2.063v1.061h-2.063v6.954c0.038,1.416-0.728,2.161-2.298,2.24c-0.748,0-1.377,0-1.886,0
			c0-0.235-0.059-0.609-0.177-1.119c0.118,0.354,0.096,0.295-0.06-0.177c0.627,0.077,1.297,0.117,2.004,0.117
			c0.863,0.078,1.275-0.354,1.237-1.297v-6.719h-6.542V19.311z M259.918,22.435l0.943-0.589c0.627,0.824,1.315,1.905,2.063,3.24
			l-1.061,0.648C261.233,24.479,260.586,23.378,259.918,22.435z"/>
	</g>
</g>
<line fill="none" stroke="#ECE9F2" stroke-width="2" stroke-miterlimit="10" x1="12.249" y1="-193.204" x2="67.215" y2="-193.204"/>
<polyline fill="none" stroke="#ECE9F2" stroke-width="2" stroke-miterlimit="10" points="173.962,-193.204 233.395,-193.204 
	233.396,-144.559 "/>
<line fill="none" stroke="#ECE9F2" stroke-width="2" stroke-miterlimit="10" x1="141.54" y1="15.935" x2="190.694" y2="15.935"/>
<polyline fill="none" stroke="#ECE9F2" stroke-width="2" stroke-miterlimit="10" points="287.646,15.935 347.08,15.935 
	347.081,60.767 "/>
<line fill="none" stroke="#ECE9F2" stroke-width="2" stroke-miterlimit="10" x1="-119.411" y1="15.935" x2="-176.581" y2="15.935"/>
<polyline fill="none" stroke="#ECE9F2" stroke-width="2" stroke-miterlimit="10" points="-318.925,15.935 -341.076,15.935 
	-341.076,60.469 "/>
<rect x="128.908" y="99.617" fill="#F9B956" width="17.961" height="17.96"/>
<g>
	<path fill="#3D3D61" d="M178.678,164.324l-1.262-3.157h-5.873l-1.326,3.157h-2.273l5.494-13.134h2.084l5.493,13.134H178.678z
		 M172.301,159.272h4.357l-1.769-4.609c-0.211-0.547-0.315-0.968-0.315-1.263h-0.063c-0.042,0.379-0.169,0.8-0.379,1.263
		L172.301,159.272z"/>
	<path fill="#3D3D61" d="M188.213,159.272h-3.535v5.052h-2.211V151.19h5.873c2.862,0.126,4.399,1.452,4.609,3.978
		C192.907,157.863,191.328,159.231,188.213,159.272z M188.023,153.148h-3.346v4.23h3.346c1.811,0,2.716-0.736,2.716-2.211
		C190.655,153.864,189.749,153.19,188.023,153.148z"/>
	<path fill="#3D3D61" d="M195.349,151.254h2.146v13.07h-2.146V151.254z"/>
</g>
<circle fill="#FFFFFF" cx="96.579" cy="118.77" r="11.25"/>
</svg>
