<?xml version="1.0" encoding="utf-8"?>
<!-- Generator: Adobe Illustrator 16.0.0, SVG Export Plug-In . SVG Version: 6.00 Build 0)  -->
<!DOCTYPE svg PUBLIC "-//W3C//DTD SVG 1.1//EN" "http://www.w3.org/Graphics/SVG/1.1/DTD/svg11.dtd">
<svg version="1.1" id="图层_1" xmlns="http://www.w3.org/2000/svg" xmlns:xlink="http://www.w3.org/1999/xlink" x="0px" y="0px"
	 width="604px" height="560px" viewBox="0 0 604 560" enable-background="new 0 0 604 560" xml:space="preserve">
<polygon fill="#FFFFFF" stroke="#1B1B1B" stroke-miterlimit="10" points="159.683,71.948 215.526,39.707 271.37,71.948 
	271.37,136.432 215.526,168.673 159.683,136.432 "/>
<path opacity="0.2" fill="#1B1B1B" d="M233.1,111.149c0,1.651-1.338,2.991-2.991,2.991l-39.059,17.956c-1.65,0-2.99-1.339-2.99-2.99
	V90.038c0-1.652,1.34-2.992,2.99-2.992l39.059-17.955c1.653,0,2.991,1.339,2.991,2.99V111.149z"/>
<path opacity="0.5" fill="#1B1B1B" d="M242.082,118.756c0,1.651-1.339,2.991-2.991,2.991l-48.041,10.475
	c-1.65,0-2.99-1.34-2.99-2.99V90.163c0-1.651,1.34-2.991,2.99-2.991l48.041-10.476c1.652,0,2.991,1.34,2.991,2.991V118.756z"/>
<path fill="#FFFFFF" stroke="#1B1B1B" stroke-miterlimit="10" d="M248.529,129.844c0,1.651-1.337,2.991-2.991,2.991h-54.021
	c-1.65,0-2.991-1.34-2.991-2.991V90.776c0-1.651,1.341-2.991,2.991-2.991h54.021c1.654,0,2.991,1.34,2.991,2.991V129.844z"/>
<path fill="#FFFFFF" stroke="#1B1B1B" stroke-miterlimit="10" d="M231.144,119.188h19.817c1.653,0,2.99-1.338,2.99-2.989v-11.777
	c0-1.652-1.337-2.991-2.99-2.991h-19.817c0,0-7.482,0.748-7.482,8.879C223.661,119.188,231.144,119.188,231.144,119.188z"/>
<path fill="#1B1B1B" d="M233.833,110.631c0,1.312-1.06,2.374-2.372,2.374c-1.308,0-2.37-1.063-2.37-2.374
	c0-1.31,1.063-2.37,2.37-2.37C232.773,108.261,233.833,109.321,233.833,110.631z"/>
<polygon fill="#FFFFFF" stroke="#1B1B1B" stroke-miterlimit="10" points="421.558,228.834 477.404,196.594 533.252,228.834 
	533.252,293.3 477.404,325.538 421.558,293.3 "/>
<g>
	<path fill="#FFFFFF" stroke="#1B1B1B" stroke-miterlimit="10" d="M456.485,291.519c-1.524,0-2.761-1.235-2.761-2.761v-55.382
		c0-1.523,1.236-2.762,2.761-2.762h36.071c1.527,0,2.762,1.238,2.762,2.762v55.382c0,1.525-1.234,2.761-2.762,2.761H456.485z"/>
	<path fill="#1B1B1B" d="M495.318,284.475v4.283c0,1.525-1.234,2.761-2.762,2.761h-36.071c-1.524,0-2.761-1.235-2.761-2.761v-4.283
		H495.318z"/>
	<path opacity="0.5" fill="#1B1B1B" d="M494.676,236.483h5.065c1.806,0,3.266,1.457,3.266,3.264v42.639
		c0,1.803-1.46,3.266-3.266,3.266h-5.065V236.483z"/>
	<path opacity="0.2" fill="#1B1B1B" d="M496.097,244.253h10.376c1.235,0,2.233,0.996,2.233,2.229v29.163
		c0,1.232-0.998,2.234-2.233,2.234h-10.376V244.253z"/>
	<circle fill="#FFFFFF" cx="474.06" cy="287.998" r="1.845"/>
	<path fill="#1B1B1B" d="M490.521,237.754c0,0.429-0.477,0.777-1.063,0.777h-30.797c-0.587,0-1.063-0.349-1.063-0.777l0,0
		c0-0.429,0.477-0.775,1.063-0.775h30.797C490.045,236.979,490.521,237.325,490.521,237.754L490.521,237.754z"/>
</g>
<polygon fill="#FFFFFF" stroke="#1B1B1B" stroke-miterlimit="10" points="159.181,385.182 215.025,352.94 270.87,385.182 
	270.87,449.665 215.025,481.906 159.181,449.665 "/>
<path fill="#FFFFFF" stroke="#1B1B1B" stroke-miterlimit="10" d="M174.556,458.072V399.75c0-1.451,1.176-2.627,2.625-2.627h75.689
	c1.452,0,2.627,1.176,2.627,2.627v58.322"/>
<path fill="#1B1B1B" d="M174.556,406.612v-6.862c0-1.451,1.176-2.627,2.627-2.627h75.688c1.452,0,2.627,1.176,2.627,2.627v6.862
	H174.556z"/>
<path opacity="0.1" fill="#1B1B1B" d="M193.374,397.915v-9.107c0-0.813,0.658-1.473,1.473-1.473h42.456
	c0.816,0,1.476,0.66,1.476,1.473v9.107H193.374z"/>
<path opacity="0.5" fill="#1B1B1B" d="M185.183,397.026v-3.745c0-1.07,0.866-1.938,1.937-1.938h55.813
	c1.073,0,1.94,0.867,1.94,1.938v3.745H185.183z"/>
<circle fill="#FFFFFF" cx="188.888" cy="401.868" r="1.869"/>
<circle fill="#FFFFFF" cx="183.62" cy="401.868" r="1.869"/>
<path fill="#1B1B1B" d="M233.046,451.302c0,1.449-1.178,2.627-2.627,2.627h-30.782c-1.453,0-2.627-1.178-2.627-2.627v-7.006
	c0-1.45,1.174-2.627,2.627-2.627h30.782c1.449,0,2.627,1.177,2.627,2.627V451.302z"/>
<g>
	<path fill="#FFFFFF" d="M207.053,444.991h2.597v0.479h-1.136c-0.096,0.516-0.237,1.014-0.417,1.493h1.226v3.313h-1.226v0.509
		h-0.448v-2.748c-0.139,0.299-0.289,0.576-0.448,0.836c-0.101-0.119-0.229-0.248-0.387-0.389c0.558-0.875,0.955-1.882,1.195-3.015
		h-0.956V444.991z M208.097,447.44v2.359h0.746v-2.359H208.097z M209.262,446.455c0.677-0.716,1.205-1.454,1.582-2.21l0.538,0.09
		c-0.101,0.198-0.208,0.407-0.328,0.627h2.029v0.479l-0.627,0.745h1.345v4.271c0.021,0.519-0.22,0.777-0.718,0.777
		c-0.238,0-0.447,0-0.627,0c0-0.061-0.028-0.209-0.088-0.447c-0.021-0.042-0.031-0.07-0.031-0.09c0.18,0,0.378,0,0.598,0
		c0.259,0.02,0.376-0.08,0.358-0.299v-0.809h-1.196v1.374h-0.536v-1.374h-1.134c-0.082,0.639-0.339,1.227-0.777,1.764
		c-0.039-0.04-0.139-0.119-0.299-0.238c-0.078-0.061-0.129-0.102-0.149-0.119c0.341-0.4,0.547-0.787,0.629-1.166
		c0.099-0.357,0.147-0.977,0.147-1.852v-1.522c-0.021,0.04-0.068,0.101-0.147,0.18c-0.061,0.08-0.11,0.139-0.151,0.179
		C209.441,446.595,209.301,446.476,209.262,446.455z M212.428,445.44h-1.674c-0.039,0.04-0.088,0.109-0.148,0.208
		c-0.079,0.1-0.22,0.279-0.417,0.537h1.672L212.428,445.44z M210.486,448.128c0,0.457-0.011,0.786-0.03,0.984h1.104v-0.984H210.486z
		 M210.486,446.693v0.986h1.074v-0.986H210.486z M213.293,446.693h-1.196v0.986h1.196V446.693z M212.097,448.128v0.984h1.196v-0.984
		H212.097z"/>
	<path fill="#FFFFFF" d="M216.074,450.847c0.818-0.679,1.287-1.684,1.407-3.018l0.565,0.091c-0.061,0.437-0.139,0.835-0.238,1.192
		c0.478,0.816,1.056,1.273,1.732,1.375v-3.138h-3.315v-0.506h6.869v0.506h-2.988v1.196h2.542v0.507h-2.542v1.493
		c0.499,0.021,1.385,0.01,2.658-0.03c0.279,0,0.438,0,0.479,0c-0.084,0.181-0.149,0.379-0.211,0.599c-1.574,0-2.597-0.01-3.075-0.03
		c-0.953-0.04-1.742-0.489-2.357-1.343c-0.278,0.596-0.669,1.143-1.166,1.64C216.315,451.202,216.195,451.024,216.074,450.847z
		 M219.272,444.335l0.568-0.119c0.058,0.14,0.137,0.428,0.237,0.865c0,0.021,0,0.041,0,0.061h2.807v1.374h-0.567v-0.835h-5.284
		v0.835h-0.539v-1.374h2.987c-0.021-0.061-0.051-0.16-0.091-0.299C219.352,444.623,219.312,444.453,219.272,444.335z"/>
</g>
<path opacity="0.5" fill="#1B1B1B" d="M232.979,434.445c0,1.45-1.178,2.627-2.627,2.627h-30.648c-1.451,0-2.628-1.177-2.628-2.627
	v-0.329c0-1.449,1.177-2.627,2.628-2.627h30.648c1.449,0,2.627,1.178,2.627,2.627V434.445z"/>
<path opacity="0.5" fill="#1B1B1B" d="M232.979,426.401c0,1.451-1.178,2.627-2.627,2.627h-30.648c-1.451,0-2.628-1.176-2.628-2.627
	v-0.328c0-1.451,1.177-2.627,2.628-2.627h30.648c1.449,0,2.627,1.176,2.627,2.627V426.401z"/>
<rect x="211.763" y="219.783" fill="#D6C329" width="5.791" height="110.506"/>
<polygon fill="#D6C329" points="223.179,325.04 214.7,339.723 206.224,325.04 "/>
<rect x="189.695" y="260.483" fill="#FFFFFF" width="44.138" height="25.176"/>
<g>
	<path fill="#9B9A9A" d="M148.778,269.892v-1.125h1.172v-2.063h1.172v2.063h1.031v1.125h-1.031v1.969l1.078-0.375
		c0,0.406,0.016,0.813,0.047,1.219c-0.375,0.094-0.75,0.219-1.125,0.375v3.422c0.03,0.812-0.359,1.249-1.172,1.313
		c-0.375,0-0.72,0.015-1.031,0.047c-0.031-0.22-0.078-0.516-0.141-0.891c-0.063-0.188-0.094-0.313-0.094-0.375
		c0.188,0,0.438,0,0.75,0c0.375,0.03,0.546-0.109,0.516-0.422v-2.672c-0.406,0.125-0.828,0.266-1.266,0.422l-0.094-1.266
		c0.156-0.063,0.391-0.141,0.703-0.234c0.281-0.094,0.499-0.156,0.656-0.188v-2.344H148.778z M152.903,277.485l-0.703-0.938
		c0.312-0.313,0.469-0.719,0.469-1.219v-7.734c2.25-0.094,4.469-0.25,6.656-0.469l0.328,1.078c-0.938,0.094-1.798,0.188-2.578,0.281
		c0,0.844,0.016,1.719,0.047,2.625h2.766v1.078h-2.672c0.094,1.656,0.391,2.906,0.891,3.75c0.156,0.281,0.312,0.422,0.469,0.422
		c0.156,0,0.265-0.125,0.328-0.375c0-0.063,0.016-0.172,0.047-0.328c0.063-0.5,0.094-0.906,0.094-1.219
		c0.375,0.156,0.719,0.281,1.031,0.375c0,0.063-0.017,0.172-0.047,0.328c-0.063,0.781-0.141,1.281-0.234,1.5
		c-0.157,0.656-0.532,0.999-1.125,1.031c-0.656,0-1.203-0.375-1.641-1.125c-0.594-1-0.938-2.453-1.031-4.359h-2.109v3.516
		l1.828-0.984c0,0.031,0,0.063,0,0.094c0.03,0.313,0.094,0.672,0.188,1.078l-0.422,0.234c0.375,0.375,0.719,0.797,1.031,1.266
		l-1.031,0.516c-0.094-0.126-0.219-0.313-0.375-0.563c-0.281-0.375-0.485-0.642-0.609-0.797c-0.281,0.094-0.547,0.234-0.797,0.422
		C153.419,277.125,153.153,277.298,152.903,277.485z M155.95,271.11c-0.063-0.813-0.094-1.656-0.094-2.531
		c-0.656,0.063-1.313,0.094-1.969,0.094v2.438H155.95z"/>
	<path fill="#9B9A9A" d="M160.778,269.985v-1.125h1.266v-2.156h1.172v2.156h1.125v1.125h-1.125v2.063l1.125-0.281
		c0,0.406,0,0.813,0,1.219l-1.125,0.281v3.234c0.03,0.812-0.375,1.233-1.219,1.266c-0.125,0-0.298,0-0.516,0
		c-0.251,0.03-0.453,0.047-0.609,0.047c-0.031-0.438-0.094-0.844-0.188-1.219c0.094,0,0.234,0.015,0.422,0.047
		c0.188,0,0.312,0,0.375,0c0.375,0.03,0.563-0.125,0.563-0.469v-2.531l-1.313,0.375l-0.141-1.313
		c0.156-0.031,0.375-0.078,0.656-0.141c0.344-0.094,0.609-0.172,0.797-0.234v-2.344H160.778z M167.575,277.907v-3.328h-1.547v0.609
		h-1.172v-7.828h6.656v7.828h-1.172v-0.609h-1.594v3.328H167.575z M166.028,268.438v2.016h1.547v-2.016H166.028z M166.028,271.485
		v1.969h1.547v-1.969H166.028z M170.341,268.438h-1.594v2.016h1.594V268.438z M168.747,271.485v1.969h1.594v-1.969H168.747z"/>
	<path fill="#9B9A9A" d="M172.825,270.173v-0.984h2.531v-2.438h1.078v2.438h2.25v0.984h-2.25v0.984l0.469-0.563
		c0.469,0.281,0.921,0.547,1.359,0.797c0.813-1.344,1.437-2.922,1.875-4.734l1.172,0.141c-0.188,0.594-0.375,1.203-0.563,1.828
		h3.141v1.125h-0.797c-0.188,2.281-0.626,3.984-1.313,5.109c0.563,0.688,1.296,1.297,2.203,1.828
		c-0.031,0.062-0.094,0.155-0.188,0.281c-0.219,0.343-0.392,0.64-0.516,0.891c-0.938-0.688-1.657-1.344-2.156-1.969
		c-0.5,0.563-1.266,1.249-2.297,2.063c-0.251-0.375-0.5-0.688-0.75-0.938l-0.188,0.328c-0.688-0.345-1.203-0.595-1.547-0.75
		c-0.781,0.499-1.859,0.938-3.234,1.313c-0.157-0.281-0.328-0.626-0.516-1.031c0.124-0.032,0.281-0.079,0.469-0.141
		c1.094-0.219,1.812-0.422,2.156-0.609c-0.094-0.063-0.251-0.141-0.469-0.234c-0.281-0.156-0.781-0.375-1.5-0.656
		c0.25-0.344,0.484-0.703,0.703-1.078h-1.219v-0.984h1.828c0.156-0.281,0.297-0.531,0.422-0.75l1.125,0.094l-0.375,0.656h2.625
		v1.031c-0.251,0.656-0.609,1.234-1.078,1.734c0.375,0.156,0.78,0.328,1.219,0.516l-0.281,0.375
		c0.938-0.625,1.671-1.281,2.203-1.969c-0.438-0.75-0.781-1.828-1.031-3.234c-0.094,0.125-0.204,0.297-0.328,0.516
		c-0.063,0.125-0.11,0.219-0.141,0.281c-0.031-0.031-0.094-0.109-0.188-0.234c-0.094-0.156-0.172-0.266-0.234-0.328l-0.469,0.656
		c-0.406-0.344-0.938-0.719-1.594-1.125v0.844h-1.078v-1.172c-0.5,0.563-1.219,1.094-2.156,1.594
		c-0.094-0.188-0.251-0.453-0.469-0.797c-0.031-0.063-0.063-0.109-0.094-0.141c0.968-0.375,1.765-0.891,2.391-1.547H172.825z
		 M174.185,269.048c-0.5-0.594-0.907-1.047-1.219-1.359l0.75-0.563c0.156,0.156,0.405,0.406,0.75,0.75
		c0.281,0.25,0.469,0.422,0.563,0.516L174.185,269.048z M174.653,274.813c0.188,0.063,0.452,0.172,0.797,0.328
		c0.375,0.125,0.64,0.234,0.797,0.328c0.405-0.313,0.719-0.75,0.938-1.313h-2.063L174.653,274.813z M177.466,269.095l-0.75-0.656
		c0.281-0.25,0.719-0.703,1.313-1.359l0.797,0.609C178.574,267.97,178.122,268.438,177.466,269.095z M180.185,270.032
		c0.188,1.594,0.499,2.844,0.938,3.75c0.469-0.875,0.766-2.219,0.891-4.031h-1.734C180.215,269.845,180.185,269.938,180.185,270.032
		z"/>
	<path fill="#9B9A9A" d="M184.638,274.579v-1.172h5.25v-0.656l2.109-1.172h-5.344v-1.125h7.266v1.172l-2.719,1.547v0.234h4.781
		v1.172H191.2v1.641c0.03,1.031-0.5,1.547-1.594,1.547c-0.781,0-1.406,0-1.875,0c-0.031-0.126-0.063-0.313-0.094-0.563
		c-0.063-0.313-0.11-0.532-0.141-0.656c0.531,0.03,1.047,0.047,1.547,0.047c0.593,0.03,0.874-0.219,0.844-0.75v-1.266H184.638z
		 M185.06,270.688v-2.578h4.781c-0.125-0.313-0.298-0.75-0.516-1.313l1.453-0.188c0.063,0.156,0.171,0.438,0.328,0.844
		c0.094,0.281,0.171,0.5,0.234,0.656h4.219v2.578h-1.266v-1.406h-7.969v1.406H185.06z"/>
	<path fill="#9B9A9A" d="M197.106,270.548c-0.031-0.094-0.11-0.297-0.234-0.609c-0.125-0.25-0.204-0.438-0.234-0.563
		c1.281-0.688,2.313-1.594,3.094-2.719l1.172,0.469c-0.375,0.5-0.781,0.969-1.219,1.406v3.094h-1.219v-1.969
		c-0.094,0.063-0.219,0.156-0.375,0.281C197.934,270.032,197.605,270.235,197.106,270.548z M207.278,277.86
		c-1.657-0.656-3.313-1.219-4.969-1.688c-0.626,0.78-2.328,1.359-5.109,1.734c-0.157-0.375-0.345-0.75-0.563-1.125
		c3.344-0.22,5.031-0.938,5.063-2.156c0.063-0.344,0.109-0.672,0.141-0.984h1.266c-0.031,0.375-0.078,0.719-0.141,1.031
		c0,0.063-0.017,0.141-0.047,0.234c-0.031,0.125-0.063,0.219-0.094,0.281c0.813,0.281,2.109,0.703,3.891,1.266
		c0.499,0.124,0.874,0.218,1.125,0.281L207.278,277.86z M198.091,275.798v-3.656h8.578v3.563h-1.266v-2.531h-6.047v2.625H198.091z
		 M200.669,270.22l-0.516-1.031c0.188-0.031,0.452-0.094,0.797-0.188c0.25-0.063,0.719-0.172,1.406-0.328v-1.969h1.266v1.641
		c1.406-0.406,2.515-0.781,3.328-1.125l0.563,0.938c-1.594,0.625-2.891,1.063-3.891,1.313v0.188c-0.063,0.563,0.188,0.813,0.75,0.75
		h1.406c0.499,0.031,0.78-0.172,0.844-0.609c0.03-0.125,0.063-0.328,0.094-0.609c0.03-0.156,0.047-0.266,0.047-0.328
		c0.124,0.063,0.344,0.141,0.656,0.234c0.281,0.063,0.452,0.109,0.516,0.141c-0.031,0.5-0.11,0.875-0.234,1.125
		c-0.157,0.75-0.72,1.109-1.688,1.078h-2.203c-1.001,0.031-1.484-0.484-1.453-1.547v-0.047
		C201.856,270.001,201.294,270.126,200.669,270.22z"/>
	<path fill="#9B9A9A" d="M209.2,268.72c-0.031-0.438-0.094-0.844-0.188-1.219c2.594,0,6.047-0.094,10.359-0.281l0.188,1.172
		c-0.375,0-0.5,0-0.375,0c-1.845,0.063-3.266,0.125-4.266,0.188v1.828h4.172v4.594c0.03,1.031-0.5,1.547-1.594,1.547
		c-0.563,0.03-1.078,0.047-1.547,0.047c-0.031-0.344-0.125-0.734-0.281-1.172c0.25,0.031,0.672,0.047,1.266,0.047
		c0.593,0.031,0.874-0.234,0.844-0.797v-3.094h-2.859v6.328h-1.266v-6.328h-2.813v5.063h-1.266v-6.234h4.078v-1.828
		C212.09,268.61,210.606,268.657,209.2,268.72z"/>
	<path fill="#9B9A9A" d="M224.2,274.626v1.875c-0.094,1.062-0.641,1.594-1.641,1.594v-0.75c0.405-0.063,0.609-0.36,0.609-0.891
		h-0.75v-1.828H224.2z"/>
	<path fill="#9B9A9A" d="M233.247,271.063c-0.094-0.188-0.281-0.469-0.563-0.844c-0.063-0.094-0.11-0.156-0.141-0.188
		c0.719-1.031,1.249-2.156,1.594-3.375l1.266,0.234c-0.188,0.469-0.375,0.906-0.563,1.313h1.734v1.031h-2.203
		c-0.188,0.375-0.406,0.75-0.656,1.125h2.625v1.031h-1.125v1.406h1.313v1.031h-1.313v2.063l1.313-0.844
		c0.03,0.125,0.063,0.313,0.094,0.563c0.03,0.281,0.047,0.484,0.047,0.609c-0.594,0.281-1.172,0.609-1.734,0.984
		c-0.188,0.094-0.375,0.234-0.563,0.422l-0.703-0.891c0.281-0.219,0.405-0.516,0.375-0.891v-2.016h-1.359v-1.031h1.359v-1.406
		h-0.703v-0.422L233.247,271.063z M243.278,277.86c-0.594-0.438-1.453-1.031-2.578-1.781c-0.188-0.156-0.345-0.266-0.469-0.328
		c-0.5,0.781-1.641,1.515-3.422,2.203c-0.063-0.094-0.157-0.251-0.281-0.469c-0.188-0.313-0.328-0.516-0.422-0.609
		c2.25-0.625,3.405-1.594,3.469-2.906c0.094-0.5,0.141-1.266,0.141-2.297h1.172c0,1.156-0.047,1.984-0.141,2.484
		c0,0.094-0.017,0.234-0.047,0.422c0.03-0.125,0.016-0.094-0.047,0.094c0.687,0.406,1.577,0.969,2.672,1.688
		c0.281,0.188,0.499,0.328,0.656,0.422L243.278,277.86z M238.122,269.517c-0.125-0.219-0.328-0.516-0.609-0.891
		c-0.281-0.406-0.5-0.703-0.656-0.891l0.891-0.563c0.218,0.281,0.531,0.672,0.938,1.172c0.156,0.219,0.281,0.391,0.375,0.516
		L238.122,269.517z M237.091,275.095v-5.25h2.578v-3.141h1.172v3.141h2.625v5.156h-1.125v-4.031h-4.125v4.125H237.091z
		 M242.435,269.517l-0.938-0.609c0.375-0.469,0.797-1.063,1.266-1.781l0.984,0.563c-0.031,0.063-0.094,0.156-0.188,0.281
		C243.121,268.626,242.746,269.142,242.435,269.517z"/>
	<path fill="#9B9A9A" d="M245.106,271.767v-1.125h10.406v1.125h-4.359v1.641h3.891v1.078h-3.891v1.969
		c1.375,0.031,2.983,0.031,4.828,0c-0.125,0.343-0.251,0.733-0.375,1.172c-0.563,0-1.423-0.017-2.578-0.047
		c-1.219,0-2.063-0.017-2.531-0.047c-1.594-0.063-2.75-0.642-3.469-1.734c-0.406,0.719-0.938,1.421-1.594,2.109
		c-0.094-0.157-0.281-0.375-0.563-0.656c-0.125-0.157-0.219-0.267-0.281-0.328c1.188-1,1.875-2.484,2.063-4.453l1.219,0.188
		c-0.094,0.625-0.219,1.219-0.375,1.781c0.593,1.125,1.39,1.781,2.391,1.969v-4.641H245.106z M254.247,270.126v-1.078h-7.875v1.078
		h-1.219v-2.203h4.594c-0.031-0.188-0.11-0.484-0.234-0.891c-0.031-0.125-0.063-0.219-0.094-0.281l1.5-0.141
		c0.094,0.375,0.188,0.813,0.281,1.313h4.313v2.203H254.247z"/>
	<path fill="#9B9A9A" d="M257.388,272.188l-0.75-0.938c0.938-0.625,1.828-1.266,2.672-1.922c0,0.031,0.03,0.063,0.094,0.094
		c0.094,0.125,0.297,0.391,0.609,0.797C258.794,271.095,257.919,271.751,257.388,272.188z M257.341,277.86
		c-0.031-0.032-0.063-0.094-0.094-0.188c-0.188-0.438-0.328-0.75-0.422-0.938c3.063-0.219,4.656-0.875,4.781-1.969
		c0.063-0.25,0.094-0.578,0.094-0.984h1.266c0,0.406-0.047,0.781-0.141,1.125c0,0.094-0.031,0.203-0.094,0.328
		c0.656,0.188,1.609,0.484,2.859,0.891c0.938,0.281,1.641,0.499,2.109,0.656l-0.563,1.078c-2.032-0.782-3.673-1.359-4.922-1.734
		C261.56,276.906,259.935,277.485,257.341,277.86z M258.794,269.048c-0.157-0.125-0.392-0.328-0.703-0.609
		c-0.469-0.406-0.813-0.688-1.031-0.844l0.797-0.797c0.156,0.125,0.375,0.297,0.656,0.516c0.563,0.375,0.938,0.656,1.125,0.844
		L258.794,269.048z M258.185,275.704v-3.469h8.297v3.422h-1.266v-2.391h-5.813v2.438H258.185z M260.435,272.095
		c-0.094-0.156-0.298-0.484-0.609-0.984c1.875-0.406,2.983-1.094,3.328-2.063c0-0.031,0.016-0.063,0.047-0.094
		c0.03-0.125,0.047-0.266,0.047-0.422h-1.359c-0.281,0.469-0.656,0.953-1.125,1.453c-0.281-0.25-0.594-0.484-0.938-0.703
		c0.813-0.781,1.406-1.672,1.781-2.672l1.172,0.141c-0.094,0.281-0.204,0.547-0.328,0.797h5.109v0.984l-0.656,1.359
		c-0.157-0.063-0.375-0.141-0.656-0.234c-0.219-0.063-0.392-0.109-0.516-0.141l0.563-0.984h-1.828c0,0.031-0.017,0.078-0.047,0.141
		c0,0.094-0.017,0.156-0.047,0.188c0.405,1.125,1.609,1.859,3.609,2.203l-0.563,1.078c-1.875-0.438-3.047-1.125-3.516-2.063
		C263.435,270.923,262.278,271.595,260.435,272.095z"/>
	<path fill="#9B9A9A" d="M269.669,277.907c-0.094-0.063-0.219-0.157-0.375-0.281c-0.345-0.22-0.594-0.392-0.75-0.516
		c0.874-0.938,1.281-2.266,1.219-3.984v-1.781h2.672c-0.125-0.188-0.313-0.453-0.563-0.797c-0.281-0.344-0.485-0.594-0.609-0.75
		l1.031-0.609c0.03,0.063,0.094,0.141,0.188,0.234c0.312,0.375,0.687,0.844,1.125,1.406l-0.891,0.516h2.578
		c0.375-0.531,0.813-1.234,1.313-2.109l1.219,0.563c-0.313,0.469-0.688,0.984-1.125,1.547h2.906v1.125h-8.531v0.75
		C271.138,275.095,270.669,276.656,269.669,277.907z M268.966,269.095v-1.172h5.063c-0.063-0.188-0.157-0.469-0.281-0.844
		c-0.031-0.094-0.063-0.172-0.094-0.234l1.453-0.188c0.03,0.188,0.109,0.469,0.234,0.844c0.063,0.188,0.109,0.328,0.141,0.422h4.406
		v1.172H268.966z"/>
</g>
<path fill="none" stroke="#191A1A" stroke-miterlimit="10" d="M271.013,506.898c0,7.397-5.999,13.396-13.396,13.396h-85.182
	c-7.4,0-13.396-5.998-13.396-13.396s5.996-13.396,13.396-13.396h85.182C265.014,493.503,271.013,499.501,271.013,506.898"/>
<g>
	<path fill="#191A1A" d="M193.767,507.481h5.469v6.07h-1.477v-0.602h-6.945v0.602h-1.422v-6.016
		c-0.293,0.109-0.584,0.255-0.875,0.438c-0.256-0.401-0.529-0.784-0.82-1.148c1.531-0.547,2.479-1.203,2.844-1.969h-2.734v-1.094
		h3.008c0.072-0.364,0.109-0.766,0.109-1.203h-1.313c-0.256,0.364-0.602,0.747-1.039,1.148c-0.074-0.073-0.164-0.164-0.273-0.273
		c-0.074-0.109-0.273-0.31-0.602-0.602c0.801-0.692,1.367-1.513,1.695-2.461l1.313,0.109c-0.109,0.364-0.256,0.692-0.438,0.984
		h3.938v1.094h-1.914c0,0.146-0.02,0.347-0.055,0.602c0,0.292-0.02,0.492-0.055,0.602h2.406v1.094h-2.57
		c0.4,0.255,1.02,0.638,1.859,1.148c0.291,0.183,0.51,0.31,0.656,0.383L193.767,507.481z M193.767,507.481
		c-0.438-0.328-1.039-0.766-1.805-1.313c-0.219-0.183-0.402-0.31-0.547-0.383c-0.328,0.583-0.984,1.148-1.969,1.695H193.767z
		 M190.813,508.63v1.148h6.945v-1.148H190.813z M190.813,510.763v1.203h6.945v-1.203H190.813z M195.134,506.552v-5.195h5.086v5.195
		H195.134z M196.446,502.56v2.844h2.461v-2.844H196.446z"/>
	<path fill="#191A1A" d="M207.876,505.239c-0.146-0.255-0.311-0.492-0.492-0.711c-1.059,0.036-2.443,0.091-4.156,0.164
		c-0.146,0-0.348,0.019-0.602,0.055c-0.256,0.036-0.457,0.073-0.602,0.109l-0.492-1.203c0.363-0.183,0.674-0.438,0.93-0.766
		c0.729-0.729,1.385-1.586,1.969-2.57l1.477,0.492c-0.109,0.109-0.273,0.292-0.492,0.547c-0.84,0.984-1.496,1.714-1.969,2.188
		c0.328-0.036,0.838-0.055,1.531-0.055c0.691-0.036,1.203-0.055,1.531-0.055l-0.93-1.203l0.984-0.602
		c0.691,0.729,1.494,1.677,2.406,2.844L207.876,505.239z M202.298,513.442v-7.82h5.633v6.289c0.035,0.91-0.42,1.385-1.367,1.422
		c-0.109,0-0.328,0-0.656,0c-0.402,0.035-0.693,0.055-0.875,0.055c-0.037-0.184-0.074-0.438-0.109-0.766
		c-0.074-0.219-0.109-0.383-0.109-0.492c0.219,0.035,0.619,0.055,1.203,0.055c0.438,0,0.656-0.146,0.656-0.438v-0.82h-3.117v2.516
		H202.298z M203.556,506.716v1.094h3.117v-1.094H203.556z M203.556,508.794v1.094h3.117v-1.094H203.556z M210.884,506.552
		c-1.168,0-1.75-0.583-1.75-1.75v-4.266h1.367v2.023c0.984-0.364,2.078-0.875,3.281-1.531l0.766,1.039
		c-1.313,0.656-2.662,1.258-4.047,1.805v0.656c-0.037,0.547,0.236,0.802,0.82,0.766h1.094c0.547,0.036,0.855-0.183,0.93-0.656
		c0.072-0.474,0.127-0.93,0.164-1.367c0.072,0.036,0.199,0.073,0.383,0.109c0.219,0.073,0.51,0.183,0.875,0.328
		c-0.037,0.474-0.129,0.984-0.273,1.531c-0.146,0.875-0.748,1.313-1.805,1.313H210.884z M210.884,513.278
		c-1.168,0.035-1.75-0.529-1.75-1.695v-4.43h1.367v1.805c1.313-0.511,2.441-1.039,3.391-1.586l0.766,1.094
		c-0.984,0.511-2.371,1.13-4.156,1.859v0.984c0,0.511,0.273,0.746,0.82,0.711h1.148c0.547,0.035,0.838-0.146,0.875-0.547
		c0.072-0.401,0.127-0.894,0.164-1.477c0.145,0.036,0.346,0.109,0.602,0.219c0.291,0.109,0.51,0.183,0.656,0.219
		c-0.037,0.401-0.109,0.894-0.219,1.477v0.055c-0.219,0.875-0.82,1.313-1.805,1.313H210.884z"/>
	<path fill="#191A1A" d="M228.056,506.388c-0.912-0.438-1.623-0.82-2.133-1.148v0.984h-7.383v-0.875
		c-0.184,0.109-0.457,0.273-0.82,0.492c-0.584,0.328-1.021,0.583-1.313,0.766c-0.074-0.146-0.219-0.383-0.438-0.711
		c-0.184-0.292-0.311-0.511-0.383-0.656c2.879-1.349,4.939-2.972,6.18-4.867l1.75,0.109l-0.383,0.547
		c1.385,1.714,3.299,3.044,5.742,3.992C228.62,505.458,228.347,505.914,228.056,506.388z M217.337,513.552V507.7h9.789v5.852h-1.477
		v-0.766h-6.836v0.766H217.337z M218.813,509.013v2.57h6.836v-2.57H218.813z M222.313,502.067c-0.875,1.058-1.934,2.005-3.172,2.844
		h6.289C224.263,504.146,223.224,503.197,222.313,502.067z"/>
	<path fill="#191A1A" d="M230.407,509.833l-0.438-1.258c0.328-0.219,0.656-0.565,0.984-1.039c0.4-0.474,0.783-0.984,1.148-1.531
		c-0.984,0-1.695,0.055-2.133,0.164l-0.383-1.258c0.291-0.183,0.564-0.511,0.82-0.984c0.766-1.276,1.385-2.442,1.859-3.5
		l1.422,0.438c-0.912,1.677-1.715,2.989-2.406,3.938c0.691,0,1.221-0.019,1.586-0.055c0.328-0.547,0.656-1.094,0.984-1.641
		l1.313,0.602c-1.021,1.677-2.078,3.227-3.172,4.648c0.254-0.036,0.711-0.091,1.367-0.164c0.619-0.073,1.057-0.109,1.313-0.109
		c0,0.073-0.02,0.183-0.055,0.328c-0.037,0.401-0.055,0.711-0.055,0.93c-1.094,0.073-2.133,0.183-3.117,0.328
		C231.081,509.705,230.735,509.76,230.407,509.833z M229.806,512.731l-0.219-1.313c2.26-0.219,4.064-0.438,5.414-0.656
		c0,0.146-0.02,0.383-0.055,0.711c0,0.292,0,0.474,0,0.547c-0.438,0.035-1.24,0.145-2.406,0.328
		C231.3,512.53,230.388,512.657,229.806,512.731z M235.712,506.114c-0.402-0.401-0.766-0.729-1.094-0.984
		c1.129-1.495,1.949-3.063,2.461-4.703l1.531,0.328c-0.037,0.073-0.074,0.164-0.109,0.273c-0.184,0.438-0.402,0.93-0.656,1.477
		h4.539c-0.037,2.406-0.129,5.177-0.273,8.313c0,1.604-0.857,2.387-2.57,2.352c-0.584,0.035-1.367,0.055-2.352,0.055
		c-0.037-0.219-0.092-0.566-0.164-1.039c-0.074-0.184-0.109-0.31-0.109-0.383c0.182,0,0.527,0,1.039,0
		c0.582,0.036,1.002,0.055,1.258,0.055c0.947,0.036,1.422-0.419,1.422-1.367c0.145-2.151,0.219-4.339,0.219-6.563h-3.719
		C236.696,504.692,236.222,505.422,235.712,506.114z M237.899,509.505c-0.621-0.984-1.295-1.95-2.023-2.898l1.094-0.711
		c0.947,1.167,1.658,2.097,2.133,2.789L237.899,509.505z"/>
</g>
<path fill="none" stroke="#191A1A" stroke-miterlimit="10" d="M533.391,352.881c0,7.397-5.998,13.396-13.396,13.396h-85.181
	c-7.4,0-13.396-5.998-13.396-13.396s5.996-13.396,13.396-13.396h85.181C527.393,339.485,533.391,345.483,533.391,352.881"/>
<g>
	<path fill="#191A1A" d="M460.984,358.673h-5.141v-11.32h4.867c2.406,0.109,3.683,1.094,3.828,2.953
		c-0.036,1.094-0.511,1.878-1.422,2.352c1.239,0.547,1.878,1.477,1.914,2.789C465.031,357.598,463.683,358.673,460.984,358.673z
		 M457.648,348.993v3.008h2.789c1.422-0.036,2.151-0.565,2.188-1.586c-0.073-0.911-0.784-1.386-2.133-1.422H457.648z
		 M460.656,353.642h-3.008v3.445h3.172c1.531,0,2.297-0.583,2.297-1.75C463.044,354.243,462.224,353.678,460.656,353.642z"/>
	<path fill="#191A1A" d="M472.305,347.134c3.464,0.219,5.323,2.169,5.578,5.852c-0.109,3.792-2.005,5.742-5.688,5.852
		c-3.573-0.184-5.433-2.114-5.578-5.797C466.8,349.285,468.695,347.316,472.305,347.134z M472.141,357.306
		c2.442-0.109,3.7-1.531,3.773-4.266c-0.183-2.625-1.403-4.047-3.664-4.266c-2.333,0.183-3.573,1.604-3.719,4.266
		C468.641,355.701,469.844,357.123,472.141,357.306z"/>
	<path fill="#191A1A" d="M489.586,350.47l-1.969,0.547c-0.511-1.386-1.477-2.114-2.898-2.188c-2.151,0.109-3.281,1.513-3.391,4.211
		c0.036,2.734,1.13,4.138,3.281,4.211c1.714,0.036,2.771-0.856,3.172-2.68l2.023,0.492c-0.656,2.552-2.37,3.809-5.141,3.773
		c-3.464-0.074-5.231-2.005-5.305-5.797c0.073-3.828,1.896-5.797,5.469-5.906C487.089,347.17,488.675,348.282,489.586,350.47z"/>
	<path fill="#191A1A" d="M501.398,350.47l-1.969,0.547c-0.511-1.386-1.477-2.114-2.898-2.188c-2.151,0.109-3.281,1.513-3.391,4.211
		c0.036,2.734,1.13,4.138,3.281,4.211c1.714,0.036,2.771-0.856,3.172-2.68l2.023,0.492c-0.656,2.552-2.37,3.809-5.141,3.773
		c-3.464-0.074-5.231-2.005-5.305-5.797c0.073-3.828,1.896-5.797,5.469-5.906C498.901,347.17,500.487,348.282,501.398,350.47z"/>
</g>
<path fill="#191A1A" d="M271.013,193.719c0,7.398-5.999,13.397-13.396,13.397h-85.182c-7.4,0-13.396-5.999-13.396-13.397
	c0-7.397,5.996-13.396,13.396-13.396h85.182C265.014,180.323,271.013,186.321,271.013,193.719"/>
<g>
	<path fill="#FFFFFF" d="M173.944,200.409c-0.146-0.074-0.365-0.201-0.656-0.383c-0.328-0.184-0.565-0.328-0.711-0.438
		c0.547-0.839,0.911-1.659,1.094-2.461c0.182-0.802,0.273-2.005,0.273-3.609v-5.578h11.156v10.445
		c0.072,1.203-0.529,1.785-1.805,1.75c-0.475,0.035-1.058,0.055-1.75,0.055c-0.037-0.109-0.073-0.273-0.109-0.492
		c-0.073-0.402-0.146-0.711-0.219-0.93c0.182,0,0.438,0.018,0.766,0.055c0.328,0,0.564,0,0.711,0c0.656,0.035,0.966-0.2,0.93-0.711
		v-1.805h-3.445v3.719h-1.477v-3.719h-3.336C175.293,197.62,174.819,198.987,173.944,200.409z M175.476,193.519
		c0,0.183-0.019,0.456-0.055,0.82c0,0.292,0,0.511,0,0.656h3.281v-2.188h-3.227V193.519z M175.476,189.308v2.188h3.227v-2.188
		H175.476z M183.624,189.308h-3.445v2.188h3.445V189.308z M180.179,192.808v2.188h3.445v-2.188H180.179z"/>
	<path fill="#FFFFFF" d="M187.78,200.354c-0.438-0.364-0.839-0.729-1.203-1.093c1.057-1.239,1.531-3.227,1.422-5.961v-4.156h4.922
		c-0.073-0.183-0.183-0.456-0.328-0.82c-0.183-0.364-0.311-0.638-0.383-0.82l1.641-0.274c0.219,0.621,0.474,1.259,0.766,1.915h4.375
		v6.508h-1.531v-0.656h-7.93C189.493,197.073,188.91,198.858,187.78,200.354z M189.53,193.3v0.273h7.93v-3.008h-7.93V193.3z"/>
	<path fill="#FFFFFF" d="M211.733,200.19c-1.094,0.035-1.969-0.639-2.625-2.023c-0.62,0.364-1.678,0.82-3.172,1.367
		c-0.146-0.402-0.365-0.784-0.656-1.148c-0.62,0.364-1.203,0.783-1.75,1.258c-0.219,0.145-0.42,0.328-0.602,0.547l-0.82-1.094
		c0.255-0.219,0.364-0.565,0.328-1.039v-2.406h-1.75v-1.258h1.75v-1.586h-1.039v-0.329l-0.055,0.11
		c-0.109-0.183-0.292-0.474-0.547-0.875c-0.109-0.183-0.201-0.328-0.273-0.438c0.766-0.984,1.403-2.333,1.914-4.048l1.367,0.274
		c-0.219,0.547-0.401,1.058-0.547,1.531h2.352v1.203h-2.898c-0.073,0.183-0.219,0.474-0.438,0.875
		c-0.109,0.219-0.201,0.383-0.273,0.491h3.227v1.204h-1.422v1.586h1.75v1.258h-1.75v2.461c0.219-0.183,0.583-0.474,1.094-0.875
		c0.255-0.183,0.438-0.328,0.547-0.438c0.036,0.183,0.072,0.456,0.109,0.82c0.072,0.219,0.109,0.383,0.109,0.492l-0.164,0.109
		c1.203-0.438,2.224-0.875,3.063-1.313c-0.219-0.766-0.42-1.622-0.602-2.57l-1.969,0.219l-0.219-1.258l2.023-0.273l-0.055-0.602
		l-0.109-0.93l-1.695,0.219l-0.164-1.258l1.805-0.219c-0.073-0.656-0.109-1.641-0.109-2.953h1.367c0,0.328,0.018,0.802,0.055,1.422
		c0,0.656,0.018,1.13,0.055,1.422l4.266-0.492l0.109,1.203l-4.266,0.492l0.055,0.875l0.055,0.656l4.32-0.547l0.164,1.258
		l-4.32,0.547c0.182,0.766,0.346,1.422,0.492,1.969c0.766-0.547,1.531-1.185,2.297-1.914l0.93,0.875
		c-0.912,0.911-1.823,1.695-2.734,2.352c0.4,0.911,0.856,1.367,1.367,1.367c0.328,0,0.547-0.2,0.656-0.602
		c0-0.073,0.018-0.164,0.055-0.273c0.109-0.255,0.219-0.747,0.328-1.477c0.364,0.183,0.766,0.383,1.203,0.602
		c-0.146,0.839-0.311,1.44-0.492,1.805C213.137,199.733,212.571,200.19,211.733,200.19z M211.46,189.69
		c-0.547-0.438-1.167-0.875-1.859-1.313l0.875-0.93c0.692,0.401,1.313,0.82,1.859,1.258L211.46,189.69z"/>
	<path fill="#FFFFFF" d="M218.624,199.917c-1.641,0.035-2.425-0.693-2.352-2.188v-5.522c-0.109,0.109-0.256,0.272-0.438,0.492
		c-0.292,0.328-0.529,0.565-0.711,0.711c-0.146-0.547-0.328-1.058-0.547-1.531c1.385-1.349,2.461-2.899,3.227-4.649l1.641,0.165
		c-0.037,0.109-0.109,0.255-0.219,0.438c-0.037,0.146-0.164,0.401-0.383,0.766h7.547c0,2.151-0.055,4.247-0.164,6.289
		c0,1.604-0.711,2.37-2.133,2.297c-0.511,0.036-1.148,0.055-1.914,0.055c-0.037-0.109-0.092-0.273-0.164-0.492
		c-0.073-0.401-0.146-0.711-0.219-0.93h-4.102v1.75c-0.073,0.802,0.364,1.185,1.313,1.148h5.797
		c0.802,0.036,1.258-0.255,1.367-0.875c0.109-0.474,0.182-1.039,0.219-1.695c0.182,0.036,0.438,0.109,0.766,0.219
		s0.564,0.183,0.711,0.219c-0.073,0.656-0.183,1.313-0.328,1.969c-0.219,0.947-1.021,1.402-2.406,1.367H218.624z M218.022,189.964
		c-0.292,0.474-0.656,0.966-1.094,1.477h5.742v4.375h0.984c0.729,0.036,1.111-0.328,1.148-1.094
		c0.072-1.495,0.109-3.081,0.109-4.758H218.022z M217.694,192.698v1.859h3.555v-1.859H217.694z"/>
	<path fill="#FFFFFF" d="M238.476,196.034c-0.037-0.109-0.073-0.255-0.109-0.438c-0.073-0.364-0.146-0.656-0.219-0.875
		c0.255,0,0.547,0,0.875,0c0.438,0.036,0.674-0.237,0.711-0.82c0.072-1.094,0.109-1.987,0.109-2.68l-1.859,0.547v5.742h-1.367
		v-5.359l-1.75,0.547v4.867c-0.073,0.802,0.328,1.185,1.203,1.148h2.844c0.875,0.036,1.349-0.255,1.422-0.875
		c0.109-0.511,0.2-1.039,0.273-1.586c0.364,0.183,0.802,0.347,1.313,0.492c-0.109,0.729-0.237,1.367-0.383,1.914
		c-0.183,0.875-0.912,1.293-2.188,1.258h-3.828c-1.386,0.035-2.061-0.584-2.023-1.859v-4.922l-0.93,0.273l-0.219-1.148h-0.93v4.648
		c0.109-0.036,0.273-0.073,0.492-0.109c0.4-0.109,0.729-0.183,0.984-0.219c0,0.438,0.018,0.894,0.055,1.367
		c-0.365,0.073-1.021,0.237-1.969,0.492c-0.984,0.219-1.714,0.383-2.188,0.492l-0.273-1.367l1.586-0.328v-4.977h-1.313v-1.367h1.313
		v-3.609h1.313v3.609h1.203v1.039l0.875-0.219v-3.008h1.367v2.57l1.75-0.492v-3.5h1.367v3.117l3.227-0.93
		c0,2.042-0.055,3.591-0.164,4.648c0,1.203-0.438,1.805-1.313,1.805C239.405,195.998,238.985,196.034,238.476,196.034z"/>
	<path fill="#FFFFFF" d="M242.796,192.042v-1.367h1.531v-3.391h1.422v3.391h1.477v1.367h-1.477v4.539l1.641-0.492
		c-0.037,0.219-0.037,0.547,0,0.984c0,0.183,0,0.328,0,0.438c-0.365,0.109-1.021,0.292-1.969,0.547
		c-1.167,0.364-2.023,0.602-2.57,0.711l-0.273-1.367l1.75-0.438v-4.922H242.796z M246.351,199.644v-1.258h1.805v-8.313h1.422v8.313
		h1.805v-11.102h1.531v3.992h2.516v1.367h-2.516v5.742h2.953v1.258H246.351z"/>
</g>
<path fill="#D6C329" d="M106.004,267.996v127.739c0,9.302,7.568,16.871,16.87,16.871h11.424v5.144h-11.424
	c-12.139,0-22.014-9.875-22.014-22.015V267.996c0-0.485,0.041-0.959,0.072-1.438h5.144
	C106.036,267.033,106.004,267.511,106.004,267.996"/>
<path fill="#D6C329" d="M106.003,279.497V126.048c0-9.304,7.569-16.871,16.871-16.871h11.423v-5.145h-11.423
	c-12.139,0-22.016,9.875-22.016,22.016v153.449c0,0.486,0.041,0.96,0.072,1.438h5.145
	C106.036,280.459,106.003,279.983,106.003,279.497"/>
<polygon fill="#D6C329" points="131.026,98.127 144.174,105.716 131.026,113.308 "/>
<path fill="#D8DADA" d="M295.373,109.604h162.452c9.304,0,16.87,7.569,16.87,16.87v44.449h5.145v-44.449
	c0-12.139-9.875-22.015-22.015-22.015H295.373c-0.486,0-0.961,0.041-1.438,0.072v5.144
	C294.41,109.636,294.887,109.604,295.373,109.604"/>
<polygon fill="#D8DADA" points="484.744,167.653 477.155,180.8 469.563,167.653 "/>
<path fill="#D8DADA" d="M305.804,412.606h152.449c9.308,0,16.876-7.568,16.876-16.871v-14.432h5.145v14.432
	c0,12.14-9.875,22.016-22.021,22.016H305.804c-0.486,0-0.961-0.041-1.438-0.072v-5.145
	C304.841,412.573,305.317,412.606,305.804,412.606"/>
<polygon fill="#D8DADA" points="307.581,407.784 294.433,415.372 307.581,422.964 "/>
<rect x="78.693" y="219.783" fill="#FFFFFF" width="44.138" height="25.176"/>
<g>
	<path fill="#9B9A9A" d="M71.077,229.519v-1.172c0.219-0.437,0.484-1.093,0.797-1.969l1.219,0.188
		c-0.063,0.126-0.141,0.345-0.234,0.656c-0.219,0.563-0.375,0.954-0.469,1.172h2.063c0.25-0.844,0.438-1.655,0.563-2.438
		l1.313,0.094c-0.031,0.157-0.078,0.392-0.141,0.703c-0.156,0.72-0.297,1.266-0.422,1.641h6.188v1.125h-6.469
		c-0.125,0.407-0.266,0.829-0.422,1.266h5.719v1.031c-0.625,1.251-1.422,2.25-2.391,3c0.938,0.469,2.109,0.813,3.516,1.031
		c-0.25,0.469-0.469,0.891-0.656,1.266c-1.625-0.438-2.953-0.953-3.984-1.547c-1.188,0.594-2.578,1.141-4.172,1.641
		c-0.031-0.094-0.094-0.219-0.188-0.375c-0.094-0.219-0.234-0.484-0.422-0.797c1.469-0.312,2.703-0.718,3.703-1.219
		c-0.75-0.687-1.359-1.5-1.828-2.438c-0.844,1.594-1.938,3-3.281,4.219c-0.125-0.375-0.281-0.812-0.469-1.313
		c1.688-1.562,2.859-3.483,3.516-5.766H71.077z M79.28,231.862H75.39c0.406,0.844,1.031,1.61,1.875,2.297
		C78.171,233.503,78.843,232.738,79.28,231.862z M79.702,228.394c-0.563-0.593-1.141-1.125-1.734-1.594l0.75-0.75
		c0.156,0.126,0.406,0.328,0.75,0.609c0.531,0.407,0.906,0.688,1.125,0.844L79.702,228.394z"/>
	<path fill="#9B9A9A" d="M93.249,237.112c-0.969-0.656-1.766-1.28-2.391-1.875c-0.688,0.656-1.578,1.328-2.672,2.016
		c-0.063-0.094-0.156-0.219-0.281-0.375c-0.219-0.344-0.391-0.594-0.516-0.75c1.188-0.624,2.078-1.266,2.672-1.922
		c-0.563-0.938-0.953-2.046-1.172-3.328c-0.188,0.345-0.391,0.656-0.609,0.938c0-0.03-0.031-0.077-0.094-0.141
		c-0.219-0.375-0.391-0.64-0.516-0.797c0,0.75-0.031,1.907-0.094,3.469c-0.031,0.438-0.047,0.75-0.047,0.938
		c0,1.031-0.484,1.547-1.453,1.547c-0.563,0-0.953,0.016-1.172,0.047c-0.031-0.188-0.094-0.469-0.188-0.844
		c-0.031-0.125-0.063-0.218-0.094-0.281c0.094,0,0.234,0,0.422,0c0.219,0.032,0.391,0.047,0.516,0.047
		c0.563,0.032,0.828-0.234,0.797-0.797c0.094-1.093,0.141-2.171,0.141-3.234h-1.5c-0.063,2.438-0.578,4.25-1.547,5.438
		c-0.281-0.281-0.578-0.578-0.891-0.891c0.844-1.125,1.281-2.859,1.313-5.203c0-0.249,0.016-0.609,0.047-1.078
		c0-0.469,0-0.812,0-1.031h-1.172v-1.125h2.438c-0.156-0.687-0.328-1.266-0.516-1.734l1.313-0.188
		c0.063,0.22,0.156,0.595,0.281,1.125c0.125,0.375,0.203,0.642,0.234,0.797h1.641v1.125h-3.047l-0.047,1.641h2.578
		c0.875-1.313,1.547-2.874,2.016-4.688l1.266,0.141c-0.125,0.595-0.328,1.204-0.609,1.828h3.656v1.172h-0.797
		c-0.219,2.22-0.734,3.923-1.547,5.109c0.594,0.72,1.406,1.298,2.438,1.734c-0.094,0.156-0.25,0.391-0.469,0.703
		C93.421,236.862,93.312,237.019,93.249,237.112z M90.858,233.175c0.563-0.999,0.938-2.358,1.125-4.078h-2.156l-0.094,0.234
		C89.921,230.863,90.296,232.144,90.858,233.175z"/>
	<path fill="#9B9A9A" d="M105.108,226.753h1.594v5.625c0.094,2.938-1.266,4.344-4.078,4.219c-2.688,0.094-4-1.313-3.938-4.219
		v-5.625h1.594v5.625c-0.031,1.969,0.75,2.923,2.344,2.859c1.719,0.063,2.547-0.891,2.484-2.859V226.753z"/>
	<path fill="#9B9A9A" d="M116.218,229.237l-1.641,0.469c-0.281-1.187-1-1.765-2.156-1.734c-1.313,0-1.984,0.438-2.016,1.313
		c-0.125,0.626,0.609,1.078,2.203,1.359c2.656,0.501,3.953,1.547,3.891,3.141c-0.094,1.813-1.359,2.75-3.797,2.813
		c-2.438,0.094-3.875-0.905-4.313-3l1.594-0.469c0.156,1.438,1.047,2.126,2.672,2.063c1.438,0,2.156-0.483,2.156-1.453
		c0.125-0.718-0.688-1.249-2.438-1.594c-2.531-0.499-3.75-1.453-3.656-2.859c0.094-1.749,1.313-2.655,3.656-2.719
		C114.499,226.598,115.78,227.488,116.218,229.237z"/>
	<path fill="#9B9A9A" d="M121.702,236.409h-3.516v-9.703h3.609c3.156,0.032,4.75,1.657,4.781,4.875
		C126.671,234.895,125.046,236.503,121.702,236.409z M121.749,228.159h-1.969v6.938h1.922c2.188,0.032,3.266-1.125,3.234-3.469
		C124.905,229.348,123.843,228.191,121.749,228.159z"/>
	<path fill="#9B9A9A" d="M135.671,228.159h-3.234v8.297h-1.594v-8.297h-3.281v-1.406h8.109V228.159z"/>
</g>
<rect x="455.262" y="129.104" fill="#FFFFFF" width="44.138" height="25.176"/>
<g>
	<path fill="#9B9A9A" d="M467.331,140.013v-1.172h2.438v-1.734c-0.188,0-0.453,0.017-0.797,0.047
		c-0.626,0.063-1.078,0.095-1.359,0.095c0-0.031,0-0.063,0-0.095c-0.063-0.468-0.125-0.812-0.188-1.03
		c2.125-0.125,3.953-0.266,5.484-0.423l0.234,1.125c-0.188,0-0.5,0.032-0.938,0.094c-0.532,0.032-0.938,0.063-1.219,0.094v1.828
		h2.344v1.172h-2.344v1.313l0.375-0.375c1.094,0.876,1.812,1.485,2.156,1.828l-0.844,0.891c-0.375-0.375-0.938-0.905-1.688-1.594
		v4.406h-1.219v-4.5c-0.532,1.063-1.266,2.063-2.203,3c-0.031-0.281-0.157-0.812-0.375-1.594c1.062-0.905,1.875-2.03,2.438-3.375
		H467.331z M473.94,143.716v-7.03h1.172v7.03H473.94z M474.597,146.341c0-0.063-0.017-0.156-0.047-0.28
		c-0.063-0.438-0.141-0.75-0.234-0.938c0.312,0.031,0.891,0.046,1.734,0.046c0.499,0,0.733-0.265,0.703-0.796v-8.954h1.219v9.329
		c0.03,0.968-0.453,1.483-1.453,1.546c-0.125,0-0.422,0-0.891,0C475.128,146.325,474.784,146.341,474.597,146.341z"/>
	<path fill="#9B9A9A" d="M480.222,145.825l-1.031-0.469c0.405-0.75,0.75-1.53,1.031-2.344l1.125,0.375
		C480.94,144.419,480.565,145.231,480.222,145.825z M480.55,142.45v-6.14h3.047c0.094-0.375,0.188-0.719,0.281-1.032l1.359,0.095
		c-0.094,0.28-0.219,0.594-0.375,0.938h4.359v6.14H480.55z M481.769,137.248v0.843h6.234v-0.843H481.769z M481.769,138.936v0.89
		h6.234v-0.89H481.769z M481.769,140.623v0.89h6.234v-0.89H481.769z M483.409,146.294c-1.031,0.031-1.531-0.453-1.5-1.453v-1.78
		h1.219v1.5c-0.031,0.5,0.265,0.733,0.891,0.702h1.875c0.563,0.031,0.891-0.14,0.984-0.515c0.03-0.095,0.077-0.282,0.141-0.563
		c0.03-0.219,0.063-0.375,0.094-0.47c0.375,0.157,0.75,0.282,1.125,0.375c-0.094,0.501-0.188,0.891-0.281,1.172
		c-0.188,0.719-0.781,1.063-1.781,1.031H483.409z M485.19,144.606c-0.345-0.469-0.72-0.952-1.125-1.453l0.938-0.563
		c0.188,0.188,0.452,0.485,0.797,0.891c0.188,0.22,0.328,0.375,0.422,0.469L485.19,144.606z M489.644,145.498
		c-0.063-0.063-0.141-0.173-0.234-0.329c-0.469-0.687-0.891-1.266-1.266-1.733l0.984-0.563c0.531,0.688,1.047,1.375,1.547,2.063
		L489.644,145.498z"/>
</g>
</svg>
