<?xml version="1.0" encoding="utf-8"?>
<!-- Generator: Adobe Illustrator 17.0.0, SVG Export Plug-In . SVG Version: 6.00 Build 0)  -->
<!DOCTYPE svg PUBLIC "-//W3C//DTD SVG 1.1//EN" "http://www.w3.org/Graphics/SVG/1.1/DTD/svg11.dtd">
<svg version="1.1" id="图层_1" xmlns="http://www.w3.org/2000/svg" xmlns:xlink="http://www.w3.org/1999/xlink" x="0px" y="0px"
	 width="50px" height="50px" viewBox="0 0 50 50" enable-background="new 0 0 50 50" xml:space="preserve">
<g>
	<polygon fill="#FFFFFF" points="10.379,3.667 16.106,0.36 21.833,3.667 21.833,10.28 16.106,13.587 10.379,10.28 	"/>
	<path fill="#1A1A1A" d="M16.106,13.646l-0.026-0.015l-5.753-3.321V3.637l5.778-3.336l0.026,0.015l5.753,3.321v6.672L16.106,13.646z
		 M10.43,10.25l5.676,3.277l5.676-3.277V3.696l-5.676-3.277L10.43,3.696V10.25z"/>
</g>
<g opacity="0.2">
	<path fill="#1A1A1A" d="M17.908,7.687c0,0.169-0.137,0.307-0.307,0.307l-4.006,1.842c-0.169,0-0.307-0.137-0.307-0.307V5.522
		c0-0.169,0.137-0.307,0.307-0.307l4.006-1.842c0.17,0,0.307,0.137,0.307,0.307V7.687z"/>
</g>
<g opacity="0.5">
	<path fill="#1A1A1A" d="M18.829,8.467c0,0.169-0.137,0.307-0.307,0.307l-4.927,1.074c-0.169,0-0.307-0.137-0.307-0.307V5.535
		c0-0.169,0.137-0.307,0.307-0.307l4.927-1.074c0.17,0,0.307,0.137,0.307,0.307V8.467z"/>
</g>
<g>
	<path fill="#FFFFFF" d="M19.491,9.604c0,0.169-0.137,0.307-0.307,0.307h-5.54c-0.169,0-0.307-0.137-0.307-0.307V5.598
		c0-0.169,0.138-0.307,0.307-0.307h5.54c0.17,0,0.307,0.137,0.307,0.307V9.604z"/>
	<path fill="#1A1A1A" d="M19.184,9.962h-5.54c-0.197,0-0.358-0.161-0.358-0.358V5.598c0-0.197,0.161-0.358,0.358-0.358h5.54
		c0.197,0,0.358,0.161,0.358,0.358v4.007C19.542,9.802,19.381,9.962,19.184,9.962z M13.644,5.342c-0.141,0-0.256,0.115-0.256,0.256
		v4.007c0,0.141,0.115,0.255,0.256,0.255h5.54c0.141,0,0.255-0.115,0.255-0.255V5.598c0-0.141-0.115-0.256-0.255-0.256H13.644z"/>
</g>
<g>
	<path fill="#FFFFFF" d="M17.708,8.512h2.032c0.17,0,0.307-0.137,0.307-0.307V6.997c0-0.169-0.137-0.307-0.307-0.307h-2.032
		c0,0-0.767,0.077-0.767,0.911C16.94,8.512,17.708,8.512,17.708,8.512z"/>
	<path fill="#1A1A1A" d="M19.74,8.563h-2.032c-0.008,0-0.819-0.011-0.819-0.962c0-0.87,0.805-0.961,0.813-0.962l2.038,0
		c0.197,0,0.358,0.161,0.358,0.358v1.208C20.098,8.402,19.937,8.563,19.74,8.563z M17.708,6.742
		c-0.024,0.003-0.716,0.083-0.716,0.859c0,0.85,0.687,0.859,0.716,0.859h2.032c0.141,0,0.255-0.115,0.255-0.255V6.997
		c0-0.141-0.115-0.255-0.255-0.255H17.708z"/>
</g>
<g>
	<circle fill="#1A1A1A" cx="17.74" cy="7.634" r="0.243"/>
</g>
<g>
	<polygon fill="#FFFFFF" points="37.236,19.756 42.963,16.45 48.691,19.756 48.691,26.368 42.963,29.674 37.236,26.368 	"/>
	<path fill="#1A1A1A" d="M42.963,29.733l-5.779-3.336v-6.671l5.779-3.336l0.026,0.015l5.753,3.321v6.671l-0.026,0.015L42.963,29.733
		z M37.287,26.338l5.676,3.277l5.676-3.277v-6.552l-5.676-3.277l-5.676,3.277V26.338z"/>
</g>
<g>
	<g>
		<path fill="#FFFFFF" d="M40.818,26.185c-0.156,0-0.283-0.127-0.283-0.283v-5.68c0-0.156,0.127-0.283,0.283-0.283h3.699
			c0.157,0,0.283,0.127,0.283,0.283v5.68c0,0.156-0.127,0.283-0.283,0.283H40.818z"/>
		<path fill="#1A1A1A" d="M44.517,26.236h-3.699c-0.184,0-0.334-0.15-0.334-0.334v-5.68c0-0.184,0.15-0.335,0.334-0.335h3.699
			c0.184,0,0.335,0.15,0.335,0.335v5.68C44.852,26.086,44.702,26.236,44.517,26.236z M40.818,19.99
			c-0.128,0-0.232,0.104-0.232,0.232v5.68c0,0.128,0.104,0.232,0.232,0.232h3.699c0.128,0,0.232-0.104,0.232-0.232v-5.68
			c0-0.128-0.104-0.232-0.232-0.232H40.818z"/>
	</g>
	<g>
		<path fill="#1A1A1A" d="M44.8,25.463v0.439c0,0.156-0.127,0.283-0.283,0.283h-3.699c-0.156,0-0.283-0.127-0.283-0.283v-0.439H44.8
			z"/>
	</g>
	<g opacity="0.5">
		<path fill="#1A1A1A" d="M44.735,20.541h0.519c0.185,0,0.335,0.15,0.335,0.335v4.373c0,0.185-0.15,0.335-0.335,0.335h-0.519V20.541
			z"/>
	</g>
	<g opacity="0.2">
		<path fill="#1A1A1A" d="M44.88,21.338h1.064c0.127,0,0.229,0.102,0.229,0.229v2.991c0,0.126-0.102,0.229-0.229,0.229H44.88V21.338
			z"/>
	</g>
	<g>
		<circle fill="#FFFFFF" cx="42.62" cy="25.824" r="0.189"/>
	</g>
	<g>
		<g>
			<polygon fill="#FFFFFF" points="39.753,23.748 39.753,22.138 40.189,22.138 40.189,23.345 40.872,23.345 40.872,23.748 			"/>
		</g>
		<g>
			<path fill="#1A1A1A" d="M39.894,23.606v-1.327h0.153v1.207h0.684v0.119H39.894z"/>
		</g>
		<g>
			<rect x="40.828" y="22.138" fill="#FFFFFF" width="0.429" height="1.61"/>
		</g>
		<g>
			<path fill="#1A1A1A" d="M40.97,22.279h0.146v1.327H40.97V22.279z"/>
		</g>
		<g>
			<path fill="#FFFFFF" d="M41.97,23.767c-0.318-0.019-0.704-0.171-0.737-0.791c0.026-0.678,0.423-0.84,0.751-0.859
				c0.319,0.011,0.548,0.174,0.676,0.471l0.066,0.154l-0.446,0.107l-0.047-0.111c-0.072-0.172-0.17-0.201-0.249-0.205
				c-0.13,0.015-0.279,0.08-0.308,0.424c0.02,0.328,0.169,0.392,0.3,0.407c0.148-0.009,0.229-0.084,0.27-0.251l0.034-0.135
				l0.454,0.105l-0.042,0.144c-0.102,0.348-0.348,0.534-0.711,0.54l-0.005,0L41.97,23.767z"/>
		</g>
		<g>
			<path fill="#1A1A1A" d="M42.384,23.148l0.173,0.04c-0.084,0.287-0.277,0.433-0.577,0.438c-0.381-0.022-0.582-0.241-0.604-0.657
				c0.018-0.451,0.223-0.688,0.617-0.71c0.252,0.009,0.431,0.137,0.538,0.385l-0.166,0.04c-0.08-0.19-0.208-0.288-0.385-0.292
				c-0.27,0.026-0.418,0.214-0.445,0.564c0.018,0.341,0.164,0.524,0.438,0.551C42.189,23.498,42.326,23.378,42.384,23.148z"/>
		</g>
		<g>
			<polygon fill="#FFFFFF" points="43.584,23.748 43.161,23.142 43.056,23.246 43.056,23.748 42.62,23.748 42.62,22.138 
				43.056,22.138 43.056,22.656 43.565,22.138 44.185,22.138 43.461,22.844 44.15,23.748 			"/>
		</g>
		<g>
			<path fill="#1A1A1A" d="M43.658,23.606l-0.478-0.683l-0.265,0.265v0.418h-0.153v-1.327h0.153v0.723l0.71-0.723h0.212
				l-0.564,0.551l0.591,0.776H43.658z"/>
		</g>
		<g>
			<rect x="43.895" y="22.138" fill="#FFFFFF" width="0.429" height="1.61"/>
		</g>
		<g>
			<path fill="#1A1A1A" d="M44.036,22.279h0.146v1.327h-0.146V22.279z"/>
		</g>
		<g>
			<polygon fill="#FFFFFF" points="45.294,23.748 44.775,22.951 44.775,23.748 44.346,23.748 44.346,22.138 44.738,22.138 
				45.249,22.936 45.249,22.138 45.678,22.138 45.678,23.748 			"/>
		</g>
		<g>
			<path fill="#1A1A1A" d="M45.371,23.606l-0.69-1.061c-0.022-0.035-0.042-0.08-0.06-0.133h-0.007
				c0.013,0.053,0.02,0.126,0.02,0.219v0.975h-0.146v-1.327h0.173l0.684,1.068c0.027,0.044,0.044,0.08,0.053,0.106h0.007
				c-0.009-0.066-0.013-0.135-0.013-0.206v-0.969h0.146v1.327H45.371z"/>
		</g>
	</g>
	<g>
		<path fill="#1A1A1A" d="M44.309,20.671c0,0.044-0.049,0.08-0.109,0.08h-3.158c-0.06,0-0.109-0.036-0.109-0.08l0,0
			c0-0.044,0.049-0.08,0.109-0.08H44.2C44.26,20.592,44.309,20.627,44.309,20.671L44.309,20.671z"/>
	</g>
</g>
<g>
	<polygon fill="#FFFFFF" points="10.327,35.791 16.055,32.484 21.782,35.791 21.782,42.404 16.055,45.711 10.327,42.404 	"/>
	<path fill="#1A1A1A" d="M16.055,45.77l-5.779-3.336v-6.673l0.026-0.015l5.753-3.321l5.779,3.336v6.673l-0.026,0.015L16.055,45.77z
		 M10.379,42.375l5.676,3.277l5.676-3.277v-6.554l-5.676-3.277l-5.676,3.277V42.375z"/>
</g>
<g>
	<path fill="#FFFFFF" d="M11.904,43.266v-5.981c0-0.149,0.121-0.269,0.269-0.269h7.762c0.149,0,0.269,0.121,0.269,0.269v5.981"/>
	<path fill="#1A1A1A" d="M20.256,43.266h-0.103v-5.981c0-0.12-0.098-0.218-0.218-0.218h-7.762c-0.12,0-0.218,0.098-0.218,0.218
		v5.981h-0.103v-5.981c0-0.177,0.144-0.321,0.32-0.321h7.762c0.177,0,0.321,0.144,0.321,0.321V43.266z"/>
</g>
<g>
	<path fill="#1A1A1A" d="M11.904,37.989v-0.704c0-0.149,0.121-0.269,0.269-0.269h7.762c0.149,0,0.269,0.121,0.269,0.269v0.704
		H11.904z"/>
</g>
<g opacity="0.1">
	<path fill="#1A1A1A" d="M13.834,37.097v-0.934c0-0.083,0.068-0.151,0.151-0.151h4.354c0.084,0,0.151,0.068,0.151,0.151v0.934
		H13.834z"/>
</g>
<g opacity="0.5">
	<path fill="#1A1A1A" d="M12.994,37.006v-0.384c0-0.11,0.089-0.199,0.199-0.199h5.724c0.11,0,0.199,0.089,0.199,0.199v0.384H12.994z
		"/>
</g>
<g>
	<circle fill="#FFFFFF" cx="13.374" cy="37.502" r="0.192"/>
</g>
<g>
	<circle fill="#FFFFFF" cx="12.834" cy="37.502" r="0.192"/>
</g>
<g>
	<path fill="#1A1A1A" d="M17.903,42.572c0,0.149-0.121,0.269-0.269,0.269h-3.157c-0.149,0-0.269-0.121-0.269-0.269v-0.718
		c0-0.149,0.12-0.269,0.269-0.269h3.157c0.149,0,0.269,0.121,0.269,0.269V42.572z"/>
</g>
<g>
	<g>
		<path fill="#FFFFFF" d="M15.237,41.925h0.266v0.049h-0.116c-0.01,0.053-0.024,0.104-0.043,0.153h0.126v0.34h-0.126v0.052h-0.046
			v-0.282c-0.014,0.031-0.03,0.059-0.046,0.086c-0.01-0.012-0.023-0.025-0.04-0.04c0.057-0.09,0.098-0.193,0.123-0.309h-0.098
			V41.925z M15.344,42.176v0.242h0.077v-0.242H15.344z M15.463,42.075c0.069-0.073,0.124-0.149,0.162-0.227l0.055,0.009
			c-0.01,0.02-0.021,0.042-0.034,0.064h0.208v0.049l-0.064,0.076h0.138v0.438c0.002,0.053-0.023,0.08-0.074,0.08
			c-0.024,0-0.046,0-0.064,0c0-0.006-0.003-0.021-0.009-0.046c-0.002-0.004-0.003-0.007-0.003-0.009c0.018,0,0.039,0,0.061,0
			c0.027,0.002,0.039-0.008,0.037-0.031v-0.083h-0.123v0.141h-0.055v-0.141h-0.116c-0.008,0.065-0.035,0.126-0.08,0.181
			c-0.004-0.004-0.014-0.012-0.031-0.024c-0.008-0.006-0.013-0.01-0.015-0.012c0.035-0.041,0.056-0.081,0.064-0.12
			c0.01-0.037,0.015-0.1,0.015-0.19v-0.156c-0.002,0.004-0.007,0.01-0.015,0.018c-0.006,0.008-0.011,0.014-0.016,0.018
			C15.482,42.089,15.467,42.077,15.463,42.075z M15.788,41.971h-0.172c-0.004,0.004-0.009,0.011-0.015,0.021
			c-0.008,0.01-0.023,0.029-0.043,0.055h0.171L15.788,41.971z M15.589,42.247c0,0.047-0.001,0.081-0.003,0.101h0.113v-0.101H15.589z
			 M15.589,42.099v0.101h0.11v-0.101H15.589z M15.877,42.099h-0.123v0.101h0.123V42.099z M15.754,42.247v0.101h0.123v-0.101H15.754z
			"/>
	</g>
	<g>
		<path fill="#FFFFFF" d="M16.162,42.525c0.084-0.07,0.132-0.173,0.144-0.309l0.058,0.009c-0.006,0.045-0.014,0.086-0.024,0.122
			c0.049,0.084,0.108,0.131,0.178,0.141v-0.322h-0.34v-0.052h0.704v0.052h-0.306v0.123h0.261v0.052h-0.261v0.153
			c0.051,0.002,0.142,0.001,0.273-0.003c0.029,0,0.045,0,0.049,0c-0.009,0.019-0.015,0.039-0.022,0.061
			c-0.161,0-0.266-0.001-0.315-0.003c-0.098-0.004-0.179-0.05-0.242-0.138c-0.029,0.061-0.069,0.117-0.12,0.168
			C16.187,42.562,16.175,42.544,16.162,42.525z M16.49,41.858l0.058-0.012c0.006,0.014,0.014,0.044,0.024,0.089
			c0,0.002,0,0.004,0,0.006h0.288v0.141h-0.058v-0.086H16.26v0.086h-0.055V41.94h0.306c-0.002-0.006-0.005-0.016-0.009-0.031
			C16.498,41.887,16.494,41.87,16.49,41.858z"/>
	</g>
</g>
<g opacity="0.5">
	<path fill="#1A1A1A" d="M17.896,40.843c0,0.149-0.121,0.269-0.269,0.269h-3.143c-0.149,0-0.27-0.121-0.27-0.269V40.81
		c0-0.149,0.121-0.269,0.27-0.269h3.143c0.149,0,0.269,0.121,0.269,0.269V40.843z"/>
</g>
<g opacity="0.5">
	<path fill="#1A1A1A" d="M17.896,40.018c0,0.149-0.121,0.269-0.269,0.269h-3.143c-0.149,0-0.27-0.121-0.27-0.269v-0.034
		c0-0.149,0.121-0.269,0.27-0.269h3.143c0.149,0,0.269,0.121,0.269,0.269V40.018z"/>
</g>
<g>
	<rect x="15.72" y="18.828" fill="#CEBD32" width="0.594" height="11.333"/>
</g>
<g>
	<polygon fill="#CEBD32" points="16.891,29.623 16.021,31.129 15.152,29.623 	"/>
</g>
<g>
	<rect x="13.457" y="23.002" fill="#FFFFFF" width="4.527" height="2.582"/>
</g>
<g>
	<g>
		<path fill="#9B9A9A" d="M9.26,23.967v-0.115h0.12V23.64h0.12v0.212h0.106v0.115H9.501v0.202l0.111-0.038
			c0,0.042,0.002,0.083,0.005,0.125c-0.038,0.01-0.077,0.022-0.115,0.038v0.351c0.003,0.083-0.037,0.128-0.12,0.135
			c-0.038,0-0.074,0.001-0.106,0.005c-0.003-0.023-0.008-0.053-0.014-0.091c-0.006-0.019-0.01-0.032-0.01-0.038
			c0.019,0,0.045,0,0.077,0c0.038,0.003,0.056-0.011,0.053-0.043v-0.274c-0.042,0.013-0.085,0.027-0.13,0.043l-0.01-0.13
			c0.016-0.006,0.04-0.014,0.072-0.024c0.029-0.01,0.051-0.016,0.067-0.019v-0.24H9.26z M9.683,24.746L9.611,24.65
			c0.032-0.032,0.048-0.074,0.048-0.125v-0.793c0.231-0.01,0.458-0.026,0.683-0.048l0.034,0.111
			c-0.096,0.01-0.184,0.019-0.264,0.029c0,0.087,0.002,0.176,0.005,0.269H10.4v0.111h-0.274c0.01,0.17,0.04,0.298,0.091,0.385
			c0.016,0.029,0.032,0.043,0.048,0.043c0.016,0,0.027-0.013,0.034-0.038c0-0.006,0.002-0.018,0.005-0.034
			c0.006-0.051,0.01-0.093,0.01-0.125c0.038,0.016,0.074,0.029,0.106,0.038c0,0.006-0.002,0.018-0.005,0.034
			c-0.006,0.08-0.014,0.131-0.024,0.154c-0.016,0.067-0.055,0.102-0.115,0.106c-0.067,0-0.123-0.038-0.168-0.115
			c-0.061-0.103-0.096-0.252-0.106-0.447H9.784v0.361l0.187-0.101c0,0.003,0,0.006,0,0.01c0.003,0.032,0.01,0.069,0.019,0.111
			l-0.043,0.024c0.038,0.038,0.074,0.082,0.106,0.13l-0.106,0.053c-0.01-0.013-0.022-0.032-0.038-0.058
			c-0.029-0.038-0.05-0.066-0.062-0.082c-0.029,0.01-0.056,0.024-0.082,0.043C9.736,24.709,9.709,24.727,9.683,24.746z
			 M9.996,24.092c-0.006-0.083-0.01-0.17-0.01-0.26c-0.067,0.006-0.135,0.01-0.202,0.01v0.25H9.996z"/>
	</g>
	<g>
		<path fill="#9B9A9A" d="M10.491,23.977v-0.115h0.13V23.64h0.12v0.221h0.115v0.115h-0.115v0.212l0.115-0.029
			c0,0.042,0,0.083,0,0.125l-0.115,0.029v0.332c0.003,0.083-0.038,0.126-0.125,0.13c-0.013,0-0.031,0-0.053,0
			c-0.026,0.003-0.046,0.005-0.062,0.005c-0.003-0.045-0.01-0.087-0.019-0.125c0.01,0,0.024,0.002,0.043,0.005
			c0.019,0,0.032,0,0.038,0c0.038,0.003,0.058-0.013,0.058-0.048v-0.26l-0.135,0.038l-0.014-0.135
			c0.016-0.003,0.038-0.008,0.067-0.014c0.035-0.01,0.062-0.018,0.082-0.024v-0.24H10.491z M11.188,24.789v-0.341H11.03v0.062h-0.12
			v-0.803h0.683v0.803h-0.12v-0.062h-0.163v0.341H11.188z M11.03,23.818v0.207h0.159v-0.207H11.03z M11.03,24.131v0.202h0.159
			v-0.202H11.03z M11.472,23.818h-0.163v0.207h0.163V23.818z M11.308,24.131v0.202h0.163v-0.202H11.308z"/>
	</g>
	<g>
		<path fill="#9B9A9A" d="M11.727,23.996v-0.101h0.26v-0.25h0.111v0.25h0.231v0.101h-0.231v0.101l0.048-0.058
			c0.048,0.029,0.094,0.056,0.139,0.082c0.083-0.138,0.147-0.3,0.192-0.486l0.12,0.014c-0.019,0.061-0.038,0.123-0.058,0.187h0.322
			v0.115h-0.082c-0.019,0.234-0.064,0.409-0.135,0.524c0.058,0.071,0.133,0.133,0.226,0.187c-0.003,0.006-0.01,0.016-0.019,0.029
			c-0.022,0.035-0.04,0.066-0.053,0.091c-0.096-0.071-0.17-0.138-0.221-0.202c-0.051,0.058-0.13,0.128-0.236,0.212
			c-0.026-0.038-0.051-0.071-0.077-0.096l-0.019,0.034c-0.071-0.035-0.123-0.061-0.159-0.077c-0.08,0.051-0.191,0.096-0.332,0.135
			c-0.016-0.029-0.034-0.064-0.053-0.106c0.013-0.003,0.029-0.008,0.048-0.014c0.112-0.022,0.186-0.043,0.221-0.062
			c-0.01-0.006-0.026-0.014-0.048-0.024c-0.029-0.016-0.08-0.038-0.154-0.067c0.026-0.035,0.05-0.072,0.072-0.111h-0.125v-0.101
			h0.187c0.016-0.029,0.03-0.054,0.043-0.077l0.115,0.01l-0.038,0.067h0.269v0.106c-0.026,0.067-0.062,0.127-0.111,0.178
			c0.038,0.016,0.08,0.034,0.125,0.053l-0.029,0.038c0.096-0.064,0.171-0.131,0.226-0.202c-0.045-0.077-0.08-0.187-0.106-0.332
			c-0.01,0.013-0.021,0.03-0.034,0.053c-0.006,0.013-0.011,0.022-0.014,0.029c-0.003-0.003-0.01-0.011-0.019-0.024
			c-0.01-0.016-0.018-0.027-0.024-0.034l-0.048,0.067c-0.042-0.035-0.096-0.074-0.163-0.115v0.087h-0.111v-0.12
			c-0.051,0.058-0.125,0.112-0.221,0.163c-0.01-0.019-0.026-0.046-0.048-0.082c-0.003-0.006-0.006-0.011-0.01-0.014
			c0.099-0.038,0.181-0.091,0.245-0.159H11.727z M11.866,23.881c-0.051-0.061-0.093-0.107-0.125-0.139l0.077-0.058
			c0.016,0.016,0.042,0.042,0.077,0.077c0.029,0.026,0.048,0.043,0.058,0.053L11.866,23.881z M11.914,24.472
			c0.019,0.006,0.046,0.018,0.082,0.034c0.038,0.013,0.066,0.024,0.082,0.034c0.042-0.032,0.074-0.077,0.096-0.135h-0.212
			L11.914,24.472z M12.203,23.885l-0.077-0.067c0.029-0.026,0.074-0.072,0.135-0.139l0.082,0.062
			C12.316,23.77,12.27,23.818,12.203,23.885z M12.481,23.982c0.019,0.163,0.051,0.292,0.096,0.385
			c0.048-0.09,0.079-0.228,0.091-0.413h-0.178C12.484,23.962,12.481,23.972,12.481,23.982z"/>
	</g>
	<g>
		<path fill="#9B9A9A" d="M12.938,24.448v-0.12h0.538V24.26l0.216-0.12h-0.548v-0.115h0.745v0.12l-0.279,0.159v0.024h0.49v0.12
			h-0.49v0.168c0.003,0.106-0.051,0.159-0.163,0.159c-0.08,0-0.144,0-0.192,0c-0.003-0.013-0.006-0.032-0.01-0.058
			c-0.006-0.032-0.011-0.055-0.014-0.067c0.054,0.003,0.107,0.005,0.159,0.005c0.061,0.003,0.09-0.022,0.087-0.077v-0.13H12.938z
			 M12.981,24.049v-0.264h0.49c-0.013-0.032-0.03-0.077-0.053-0.135l0.149-0.019c0.006,0.016,0.018,0.045,0.034,0.087
			c0.01,0.029,0.018,0.051,0.024,0.067h0.433v0.264h-0.13v-0.144h-0.817v0.144H12.981z"/>
	</g>
	<g>
		<path fill="#9B9A9A" d="M14.217,24.035c-0.003-0.01-0.011-0.03-0.024-0.062c-0.013-0.026-0.021-0.045-0.024-0.058
			c0.131-0.071,0.237-0.163,0.317-0.279l0.12,0.048c-0.038,0.051-0.08,0.099-0.125,0.144v0.317h-0.125v-0.202
			c-0.01,0.006-0.022,0.016-0.038,0.029C14.302,23.982,14.268,24.002,14.217,24.035z M15.26,24.784
			c-0.17-0.067-0.34-0.125-0.51-0.173c-0.064,0.08-0.239,0.139-0.524,0.178c-0.016-0.038-0.035-0.077-0.058-0.115
			c0.343-0.023,0.516-0.096,0.519-0.221c0.006-0.035,0.011-0.069,0.014-0.101h0.13c-0.003,0.038-0.008,0.074-0.014,0.106
			c0,0.006-0.002,0.014-0.005,0.024c-0.003,0.013-0.006,0.022-0.01,0.029c0.083,0.029,0.216,0.072,0.399,0.13
			c0.051,0.013,0.09,0.022,0.115,0.029L15.26,24.784z M14.318,24.573v-0.375h0.88v0.365h-0.13v-0.26h-0.62v0.269H14.318z
			 M14.582,24.001l-0.053-0.106c0.019-0.003,0.046-0.01,0.082-0.019c0.026-0.006,0.074-0.018,0.144-0.034V23.64h0.13v0.168
			c0.144-0.042,0.258-0.08,0.341-0.115l0.058,0.096c-0.163,0.064-0.296,0.109-0.399,0.135v0.019
			c-0.006,0.058,0.019,0.083,0.077,0.077h0.144c0.051,0.003,0.08-0.018,0.087-0.062c0.003-0.013,0.006-0.034,0.01-0.062
			c0.003-0.016,0.005-0.027,0.005-0.034c0.013,0.006,0.035,0.014,0.067,0.024c0.029,0.006,0.046,0.011,0.053,0.014
			c-0.003,0.051-0.011,0.09-0.024,0.115c-0.016,0.077-0.074,0.114-0.173,0.111h-0.226c-0.103,0.003-0.152-0.05-0.149-0.159v-0.005
			C14.704,23.978,14.646,23.991,14.582,24.001z"/>
	</g>
	<g>
		<path fill="#9B9A9A" d="M15.457,23.847c-0.003-0.045-0.01-0.087-0.019-0.125c0.266,0,0.62-0.01,1.062-0.029l0.019,0.12
			c-0.038,0-0.051,0-0.038,0c-0.189,0.006-0.335,0.013-0.437,0.019v0.187h0.428v0.471c0.003,0.106-0.051,0.159-0.163,0.159
			c-0.058,0.003-0.111,0.005-0.159,0.005c-0.003-0.035-0.013-0.075-0.029-0.12c0.026,0.003,0.069,0.005,0.13,0.005
			c0.061,0.003,0.09-0.024,0.087-0.082V24.14h-0.293v0.649h-0.13V24.14h-0.288v0.519h-0.13V24.02h0.418v-0.187
			C15.753,23.836,15.601,23.841,15.457,23.847z"/>
	</g>
	<g>
		<path fill="#9B9A9A" d="M16.995,24.453v0.192c-0.01,0.109-0.066,0.163-0.168,0.163v-0.077c0.042-0.007,0.062-0.037,0.062-0.091
			h-0.077v-0.187H16.995z"/>
	</g>
	<g>
		<path fill="#9B9A9A" d="M17.923,24.087c-0.01-0.019-0.029-0.048-0.058-0.087c-0.006-0.01-0.011-0.016-0.014-0.019
			c0.074-0.106,0.128-0.221,0.163-0.346l0.13,0.024c-0.019,0.048-0.038,0.093-0.058,0.135h0.178V23.9h-0.226
			c-0.019,0.038-0.042,0.077-0.067,0.115h0.269v0.106h-0.115v0.144h0.135v0.106h-0.135v0.212l0.135-0.087
			c0.003,0.013,0.006,0.032,0.01,0.058c0.003,0.029,0.005,0.05,0.005,0.062c-0.061,0.029-0.12,0.062-0.178,0.101
			c-0.019,0.01-0.038,0.024-0.058,0.043l-0.072-0.091c0.029-0.022,0.042-0.053,0.038-0.091v-0.207h-0.139v-0.106h0.139v-0.144
			h-0.072v-0.043L17.923,24.087z M18.952,24.784c-0.061-0.045-0.149-0.106-0.264-0.183c-0.019-0.016-0.035-0.027-0.048-0.034
			c-0.051,0.08-0.168,0.155-0.351,0.226c-0.006-0.01-0.016-0.026-0.029-0.048c-0.019-0.032-0.034-0.053-0.043-0.062
			c0.231-0.064,0.349-0.163,0.356-0.298c0.01-0.051,0.014-0.13,0.014-0.236h0.12c0,0.119-0.005,0.204-0.014,0.255
			c0,0.01-0.002,0.024-0.005,0.043c0.003-0.013,0.002-0.01-0.005,0.01c0.07,0.042,0.162,0.099,0.274,0.173
			c0.029,0.019,0.051,0.034,0.067,0.043L18.952,24.784z M18.423,23.929c-0.013-0.022-0.034-0.053-0.062-0.091
			c-0.029-0.042-0.051-0.072-0.067-0.091l0.091-0.058c0.022,0.029,0.054,0.069,0.096,0.12c0.016,0.022,0.029,0.04,0.038,0.053
			L18.423,23.929z M18.317,24.501v-0.538h0.264V23.64h0.12v0.322h0.269v0.529h-0.115v-0.413h-0.423v0.423H18.317z M18.865,23.929
			l-0.096-0.062c0.038-0.048,0.082-0.109,0.13-0.183L19,23.741c-0.003,0.006-0.01,0.016-0.019,0.029
			C18.936,23.837,18.897,23.89,18.865,23.929z"/>
	</g>
	<g>
		<path fill="#9B9A9A" d="M19.14,24.16v-0.115h1.067v0.115H19.76v0.168h0.399v0.111H19.76v0.202c0.141,0.003,0.306,0.003,0.495,0
			c-0.013,0.035-0.026,0.075-0.038,0.12c-0.058,0-0.146-0.002-0.264-0.005c-0.125,0-0.212-0.002-0.26-0.005
			c-0.163-0.007-0.282-0.066-0.356-0.178c-0.042,0.074-0.096,0.146-0.163,0.216c-0.01-0.016-0.029-0.038-0.058-0.067
			c-0.013-0.016-0.022-0.027-0.029-0.034c0.122-0.103,0.192-0.255,0.212-0.457l0.125,0.019c-0.01,0.064-0.022,0.125-0.038,0.183
			c0.061,0.115,0.143,0.183,0.245,0.202V24.16H19.14z M20.077,23.991v-0.111h-0.808v0.111h-0.125v-0.226h0.471
			c-0.003-0.019-0.011-0.05-0.024-0.091c-0.003-0.013-0.006-0.022-0.01-0.029l0.154-0.014c0.01,0.038,0.019,0.083,0.029,0.135h0.442
			v0.226H20.077z"/>
	</g>
	<g>
		<path fill="#9B9A9A" d="M20.399,24.203l-0.077-0.096c0.096-0.064,0.187-0.13,0.274-0.197c0,0.003,0.003,0.006,0.01,0.01
			c0.01,0.013,0.03,0.04,0.062,0.082C20.543,24.091,20.454,24.158,20.399,24.203z M20.394,24.784
			c-0.003-0.003-0.006-0.01-0.01-0.019c-0.019-0.045-0.034-0.077-0.043-0.096c0.314-0.022,0.478-0.09,0.49-0.202
			c0.006-0.026,0.01-0.059,0.01-0.101h0.13c0,0.042-0.005,0.08-0.014,0.115c0,0.01-0.003,0.021-0.01,0.034
			c0.067,0.019,0.165,0.05,0.293,0.091c0.096,0.029,0.168,0.051,0.216,0.067l-0.058,0.111c-0.208-0.08-0.377-0.139-0.505-0.178
			C20.827,24.687,20.66,24.746,20.394,24.784z M20.543,23.881c-0.016-0.013-0.04-0.034-0.072-0.062
			c-0.048-0.042-0.083-0.071-0.106-0.087l0.082-0.082c0.016,0.013,0.038,0.03,0.067,0.053c0.058,0.038,0.096,0.067,0.115,0.087
			L20.543,23.881z M20.481,24.563v-0.356h0.851v0.351h-0.13v-0.245h-0.596v0.25H20.481z M20.712,24.193
			c-0.01-0.016-0.031-0.05-0.062-0.101c0.192-0.042,0.306-0.112,0.341-0.212c0-0.003,0.002-0.006,0.005-0.01
			C20.998,23.858,21,23.844,21,23.828h-0.139c-0.029,0.048-0.067,0.098-0.115,0.149c-0.029-0.026-0.061-0.05-0.096-0.072
			c0.083-0.08,0.144-0.171,0.183-0.274l0.12,0.014c-0.01,0.029-0.021,0.056-0.034,0.082h0.524v0.101l-0.067,0.139
			c-0.016-0.006-0.038-0.014-0.067-0.024c-0.022-0.006-0.04-0.011-0.053-0.014l0.058-0.101h-0.187c0,0.003-0.002,0.008-0.005,0.014
			c0,0.01-0.002,0.016-0.005,0.019c0.042,0.115,0.165,0.191,0.37,0.226l-0.058,0.111c-0.192-0.045-0.312-0.115-0.361-0.212
			C21.019,24.073,20.901,24.142,20.712,24.193z"/>
	</g>
	<g>
		<path fill="#9B9A9A" d="M21.659,24.789c-0.01-0.007-0.022-0.016-0.038-0.029c-0.035-0.023-0.061-0.04-0.077-0.053
			c0.09-0.096,0.131-0.232,0.125-0.409v-0.183h0.274c-0.013-0.019-0.032-0.046-0.058-0.082c-0.029-0.035-0.05-0.061-0.062-0.077
			l0.106-0.062c0.003,0.006,0.01,0.014,0.019,0.024c0.032,0.038,0.07,0.087,0.115,0.144l-0.091,0.053h0.264
			c0.038-0.054,0.083-0.127,0.135-0.216l0.125,0.058c-0.032,0.048-0.071,0.101-0.115,0.159h0.298v0.115h-0.875v0.077
			C21.809,24.501,21.761,24.661,21.659,24.789z M21.586,23.885v-0.12h0.519c-0.006-0.019-0.016-0.048-0.029-0.087
			c-0.003-0.01-0.006-0.018-0.01-0.024l0.149-0.019c0.003,0.019,0.011,0.048,0.024,0.087c0.006,0.019,0.011,0.034,0.014,0.043h0.452
			v0.12H21.586z"/>
	</g>
</g>
<g>
	<path fill="#181A19" d="M20.423,49.699h-8.736c-0.786,0-1.425-0.639-1.425-1.425c0-0.786,0.639-1.425,1.425-1.425h8.736
		c0.786,0,1.425,0.639,1.425,1.425C21.848,49.06,21.208,49.699,20.423,49.699z M11.687,46.951c-0.729,0-1.323,0.593-1.323,1.323
		c0,0.729,0.593,1.323,1.323,1.323h8.736c0.729,0,1.323-0.593,1.323-1.323c0-0.729-0.593-1.323-1.323-1.323H11.687z"/>
</g>
<g>
	<g>
		<path fill="#181A19" d="M13.874,48.334h0.561v0.623h-0.151v-0.062h-0.712v0.062h-0.146v-0.617c-0.03,0.011-0.06,0.026-0.09,0.045
			c-0.026-0.041-0.054-0.08-0.084-0.118c0.157-0.056,0.254-0.123,0.292-0.202h-0.28v-0.112h0.308
			c0.007-0.037,0.011-0.079,0.011-0.123h-0.135c-0.026,0.037-0.062,0.077-0.107,0.118c-0.008-0.008-0.017-0.017-0.028-0.028
			c-0.008-0.011-0.028-0.032-0.062-0.062c0.082-0.071,0.14-0.155,0.174-0.252l0.135,0.011c-0.011,0.037-0.026,0.071-0.045,0.101
			h0.404v0.112h-0.196c0,0.015-0.002,0.036-0.006,0.062c0,0.03-0.002,0.05-0.006,0.062h0.247v0.112h-0.264
			c0.041,0.026,0.105,0.065,0.191,0.118c0.03,0.019,0.052,0.032,0.067,0.039L13.874,48.334z M13.874,48.334
			c-0.045-0.034-0.107-0.079-0.185-0.135c-0.022-0.019-0.041-0.032-0.056-0.039c-0.034,0.06-0.101,0.118-0.202,0.174H13.874z
			 M13.571,48.451v0.118h0.712v-0.118H13.571z M13.571,48.67v0.123h0.712V48.67H13.571z M14.014,48.238v-0.533h0.522v0.533H14.014z
			 M14.149,47.829v0.292h0.252v-0.292H14.149z"/>
	</g>
	<g>
		<path fill="#181A19" d="M15.321,48.104c-0.015-0.026-0.032-0.05-0.05-0.073c-0.108,0.004-0.251,0.009-0.426,0.017
			c-0.015,0-0.036,0.002-0.062,0.006c-0.026,0.004-0.047,0.008-0.062,0.011l-0.05-0.123c0.037-0.019,0.069-0.045,0.095-0.079
			c0.075-0.075,0.142-0.163,0.202-0.264l0.151,0.05c-0.011,0.011-0.028,0.03-0.05,0.056c-0.086,0.101-0.153,0.176-0.202,0.224
			c0.034-0.004,0.086-0.006,0.157-0.006c0.071-0.004,0.123-0.006,0.157-0.006l-0.095-0.123l0.101-0.062
			c0.071,0.075,0.153,0.172,0.247,0.292L15.321,48.104z M14.749,48.945v-0.802h0.578v0.645c0.004,0.093-0.043,0.142-0.14,0.146
			c-0.011,0-0.034,0-0.067,0c-0.041,0.004-0.071,0.006-0.09,0.006c-0.004-0.019-0.008-0.045-0.011-0.079
			c-0.008-0.022-0.011-0.039-0.011-0.05c0.022,0.004,0.064,0.006,0.123,0.006c0.045,0,0.067-0.015,0.067-0.045v-0.084h-0.32v0.258
			H14.749z M14.878,48.255v0.112h0.32v-0.112H14.878z M14.878,48.468v0.112h0.32v-0.112H14.878z M15.63,48.238
			c-0.12,0-0.179-0.06-0.179-0.179v-0.437h0.14v0.208c0.101-0.037,0.213-0.09,0.337-0.157l0.079,0.107
			c-0.135,0.067-0.273,0.129-0.415,0.185v0.067c-0.004,0.056,0.024,0.082,0.084,0.079h0.112c0.056,0.004,0.088-0.019,0.095-0.067
			c0.007-0.049,0.013-0.095,0.017-0.14c0.007,0.004,0.021,0.008,0.039,0.011c0.022,0.008,0.052,0.019,0.09,0.034
			c-0.004,0.049-0.013,0.101-0.028,0.157c-0.015,0.09-0.077,0.135-0.185,0.135H15.63z M15.63,48.928
			c-0.12,0.004-0.179-0.054-0.179-0.174V48.3h0.14v0.185c0.135-0.052,0.25-0.107,0.348-0.163l0.079,0.112
			c-0.101,0.052-0.243,0.116-0.426,0.191v0.101c0,0.052,0.028,0.077,0.084,0.073h0.118c0.056,0.004,0.086-0.015,0.09-0.056
			c0.007-0.041,0.013-0.092,0.017-0.151c0.015,0.004,0.036,0.011,0.062,0.022c0.03,0.011,0.052,0.019,0.067,0.022
			c-0.004,0.041-0.011,0.092-0.022,0.151v0.006c-0.022,0.09-0.084,0.135-0.185,0.135H15.63z"/>
	</g>
	<g>
		<path fill="#181A19" d="M17.391,48.222c-0.094-0.045-0.166-0.084-0.219-0.118v0.101h-0.757v-0.09
			c-0.019,0.011-0.047,0.028-0.084,0.05c-0.06,0.034-0.105,0.06-0.135,0.079c-0.008-0.015-0.022-0.039-0.045-0.073
			c-0.019-0.03-0.032-0.052-0.039-0.067c0.295-0.138,0.507-0.305,0.634-0.499l0.179,0.011l-0.039,0.056
			c0.142,0.176,0.338,0.312,0.589,0.409C17.449,48.126,17.421,48.173,17.391,48.222z M16.292,48.956v-0.6h1.004v0.6h-0.151v-0.079
			h-0.701v0.079H16.292z M16.443,48.491v0.264h0.701v-0.264H16.443z M16.802,47.778c-0.09,0.108-0.198,0.206-0.325,0.292h0.645
			C17.002,47.992,16.895,47.894,16.802,47.778z"/>
	</g>
	<g>
		<path fill="#181A19" d="M17.632,48.575l-0.045-0.129c0.034-0.022,0.067-0.058,0.101-0.107c0.041-0.049,0.08-0.101,0.118-0.157
			c-0.101,0-0.174,0.006-0.219,0.017l-0.039-0.129c0.03-0.019,0.058-0.052,0.084-0.101c0.079-0.131,0.142-0.25,0.191-0.359
			l0.146,0.045c-0.093,0.172-0.176,0.307-0.247,0.404c0.071,0,0.125-0.002,0.163-0.006c0.034-0.056,0.067-0.112,0.101-0.168
			l0.135,0.062c-0.105,0.172-0.213,0.331-0.325,0.477c0.026-0.004,0.073-0.009,0.14-0.017c0.064-0.008,0.108-0.011,0.135-0.011
			c0,0.008-0.002,0.019-0.006,0.034c-0.004,0.041-0.006,0.073-0.006,0.095c-0.112,0.008-0.219,0.019-0.32,0.034
			C17.701,48.562,17.666,48.567,17.632,48.575z M17.57,48.872l-0.022-0.135c0.232-0.022,0.417-0.045,0.555-0.067
			c0,0.015-0.002,0.039-0.006,0.073c0,0.03,0,0.049,0,0.056c-0.045,0.004-0.127,0.015-0.247,0.034
			C17.724,48.851,17.63,48.864,17.57,48.872z M18.176,48.193c-0.041-0.041-0.079-0.075-0.112-0.101
			c0.116-0.153,0.2-0.314,0.252-0.482l0.157,0.034c-0.004,0.008-0.008,0.017-0.011,0.028c-0.019,0.045-0.041,0.095-0.067,0.151
			h0.466c-0.004,0.247-0.013,0.531-0.028,0.853c0,0.164-0.088,0.245-0.264,0.241c-0.06,0.004-0.14,0.006-0.241,0.006
			c-0.004-0.022-0.009-0.058-0.017-0.107c-0.008-0.019-0.011-0.032-0.011-0.039c0.019,0,0.054,0,0.107,0
			c0.06,0.004,0.103,0.006,0.129,0.006c0.097,0.004,0.146-0.043,0.146-0.14c0.015-0.221,0.022-0.445,0.022-0.673h-0.381
			C18.277,48.048,18.228,48.122,18.176,48.193z M18.4,48.541c-0.064-0.101-0.133-0.2-0.208-0.297l0.112-0.073
			c0.097,0.12,0.17,0.215,0.219,0.286L18.4,48.541z"/>
	</g>
</g>
<g>
	<path fill="#181A19" d="M47.331,33.903h-8.736c-0.786,0-1.425-0.639-1.425-1.425c0-0.786,0.639-1.425,1.425-1.425h8.736
		c0.786,0,1.425,0.639,1.425,1.425C48.756,33.264,48.117,33.903,47.331,33.903z M38.595,31.156c-0.729,0-1.323,0.593-1.323,1.323
		c0,0.729,0.593,1.323,1.323,1.323h8.736c0.729,0,1.323-0.593,1.323-1.323c0-0.729-0.593-1.323-1.323-1.323H38.595z"/>
</g>
<g>
	<g>
		<path fill="#181A19" d="M41.279,33.072h-0.527v-1.161h0.499c0.247,0.011,0.378,0.112,0.393,0.303
			c-0.004,0.112-0.052,0.193-0.146,0.241c0.127,0.056,0.193,0.151,0.196,0.286C41.694,32.962,41.556,33.072,41.279,33.072z
			 M40.937,32.08v0.308h0.286c0.146-0.004,0.221-0.058,0.224-0.163c-0.008-0.093-0.08-0.142-0.219-0.146H40.937z M41.246,32.556
			h-0.308v0.353h0.325c0.157,0,0.236-0.06,0.236-0.179C41.491,32.618,41.406,32.56,41.246,32.556z"/>
	</g>
	<g>
		<path fill="#181A19" d="M42.44,31.889c0.355,0.022,0.546,0.222,0.572,0.6c-0.011,0.389-0.206,0.589-0.583,0.6
			c-0.366-0.019-0.557-0.217-0.572-0.595C41.876,32.11,42.07,31.908,42.44,31.889z M42.423,32.932
			c0.25-0.011,0.379-0.157,0.387-0.437c-0.019-0.269-0.144-0.415-0.376-0.437c-0.239,0.019-0.366,0.165-0.381,0.437
			C42.065,32.768,42.188,32.913,42.423,32.932z"/>
	</g>
	<g>
		<path fill="#181A19" d="M44.213,32.231l-0.202,0.056c-0.052-0.142-0.151-0.217-0.297-0.224c-0.221,0.011-0.337,0.155-0.348,0.432
			c0.004,0.28,0.116,0.424,0.337,0.432c0.176,0.004,0.284-0.088,0.325-0.275l0.208,0.05c-0.067,0.262-0.243,0.391-0.527,0.387
			c-0.355-0.008-0.537-0.206-0.544-0.595c0.008-0.393,0.194-0.595,0.561-0.606C43.957,31.893,44.119,32.007,44.213,32.231z"/>
	</g>
	<g>
		<path fill="#181A19" d="M45.424,32.231l-0.202,0.056c-0.052-0.142-0.151-0.217-0.297-0.224c-0.221,0.011-0.337,0.155-0.348,0.432
			c0.004,0.28,0.116,0.424,0.337,0.432c0.176,0.004,0.284-0.088,0.325-0.275l0.208,0.05c-0.067,0.262-0.243,0.391-0.527,0.387
			c-0.355-0.008-0.537-0.206-0.544-0.595c0.008-0.393,0.194-0.595,0.561-0.606C45.168,31.893,45.331,32.007,45.424,32.231z"/>
	</g>
</g>
<g>
	<path fill="#181A19" d="M21.796,16.155c0,0.759-0.615,1.374-1.374,1.374h-8.736c-0.759,0-1.374-0.615-1.374-1.374
		c0-0.759,0.615-1.374,1.374-1.374h8.736C21.181,14.781,21.796,15.397,21.796,16.155"/>
</g>
<g>
	<g>
		<path fill="#FFFFFF" d="M11.841,16.841c-0.015-0.008-0.037-0.021-0.067-0.039c-0.034-0.019-0.058-0.034-0.073-0.045
			c0.056-0.086,0.093-0.17,0.112-0.252c0.019-0.082,0.028-0.206,0.028-0.37v-0.572h1.144v1.071c0.007,0.123-0.054,0.183-0.185,0.179
			c-0.049,0.004-0.108,0.006-0.179,0.006c-0.004-0.011-0.008-0.028-0.011-0.05c-0.008-0.041-0.015-0.073-0.022-0.095
			c0.019,0,0.045,0.002,0.079,0.006c0.034,0,0.058,0,0.073,0c0.067,0.004,0.099-0.02,0.095-0.073v-0.185h-0.353v0.381h-0.151v-0.381
			h-0.342C11.98,16.555,11.931,16.695,11.841,16.841z M11.998,16.135c0,0.019-0.002,0.047-0.006,0.084c0,0.03,0,0.052,0,0.067h0.337
			v-0.224h-0.331V16.135z M11.998,15.703v0.224h0.331v-0.224H11.998z M12.834,15.703h-0.353v0.224h0.353V15.703z M12.481,16.062
			v0.224h0.353v-0.224H12.481z"/>
	</g>
	<g>
		<path fill="#FFFFFF" d="M13.26,16.836c-0.045-0.037-0.086-0.075-0.123-0.112c0.108-0.127,0.157-0.331,0.146-0.611v-0.426h0.505
			c-0.008-0.019-0.019-0.047-0.034-0.084c-0.019-0.037-0.032-0.065-0.039-0.084l0.168-0.028c0.022,0.064,0.049,0.129,0.079,0.196
			h0.449v0.667h-0.157v-0.067H13.44C13.436,16.499,13.376,16.682,13.26,16.836z M13.44,16.112v0.028h0.813v-0.308H13.44V16.112z"/>
	</g>
	<g>
		<path fill="#FFFFFF" d="M15.717,16.819c-0.112,0.004-0.202-0.065-0.269-0.208c-0.064,0.037-0.172,0.084-0.325,0.14
			c-0.015-0.041-0.037-0.08-0.067-0.118c-0.064,0.037-0.123,0.08-0.179,0.129c-0.022,0.015-0.043,0.034-0.062,0.056l-0.084-0.112
			c0.026-0.022,0.037-0.058,0.034-0.107v-0.247h-0.179v-0.129h0.179v-0.163h-0.107v-0.034l-0.006,0.011
			c-0.011-0.019-0.03-0.049-0.056-0.09c-0.011-0.019-0.021-0.034-0.028-0.045c0.079-0.101,0.144-0.239,0.196-0.415l0.14,0.028
			c-0.022,0.056-0.041,0.109-0.056,0.157h0.241v0.123h-0.297c-0.008,0.019-0.022,0.049-0.045,0.09
			c-0.011,0.022-0.021,0.039-0.028,0.05h0.331v0.123h-0.146v0.163h0.179v0.129h-0.179v0.252c0.022-0.019,0.06-0.049,0.112-0.09
			c0.026-0.019,0.045-0.034,0.056-0.045c0.004,0.019,0.007,0.047,0.011,0.084c0.007,0.022,0.011,0.039,0.011,0.05l-0.017,0.011
			c0.123-0.045,0.228-0.09,0.314-0.135c-0.022-0.079-0.043-0.166-0.062-0.264l-0.202,0.022l-0.022-0.129l0.208-0.028l-0.006-0.062
			l-0.011-0.095l-0.174,0.022l-0.017-0.129l0.185-0.022c-0.008-0.067-0.011-0.168-0.011-0.303h0.14c0,0.034,0.002,0.082,0.006,0.146
			c0,0.067,0.002,0.116,0.006,0.146l0.437-0.05l0.011,0.123l-0.437,0.05L15.448,16l0.006,0.067l0.443-0.056l0.017,0.129
			l-0.443,0.056c0.019,0.079,0.036,0.146,0.05,0.202c0.079-0.056,0.157-0.121,0.236-0.196l0.095,0.09
			c-0.093,0.093-0.187,0.174-0.28,0.241c0.041,0.093,0.088,0.14,0.14,0.14c0.034,0,0.056-0.02,0.067-0.062
			c0-0.007,0.002-0.017,0.006-0.028c0.011-0.026,0.022-0.077,0.034-0.151c0.037,0.019,0.079,0.039,0.123,0.062
			c-0.015,0.086-0.032,0.148-0.05,0.185C15.861,16.772,15.803,16.819,15.717,16.819z M15.689,15.742
			c-0.056-0.045-0.12-0.09-0.191-0.135l0.09-0.095c0.071,0.041,0.135,0.084,0.191,0.129L15.689,15.742z"/>
	</g>
	<g>
		<path fill="#FFFFFF" d="M16.424,16.791c-0.168,0.004-0.249-0.071-0.241-0.224V16c-0.011,0.011-0.026,0.028-0.045,0.05
			c-0.03,0.034-0.054,0.058-0.073,0.073c-0.015-0.056-0.034-0.108-0.056-0.157c0.142-0.138,0.252-0.297,0.331-0.477l0.168,0.017
			c-0.004,0.011-0.011,0.026-0.022,0.045c-0.004,0.015-0.017,0.041-0.039,0.079h0.774c0,0.221-0.006,0.436-0.017,0.645
			c0,0.165-0.073,0.243-0.219,0.236c-0.052,0.004-0.118,0.006-0.196,0.006c-0.004-0.011-0.009-0.028-0.017-0.05
			c-0.008-0.041-0.015-0.073-0.022-0.095h-0.421v0.179c-0.008,0.082,0.037,0.122,0.135,0.118h0.595
			c0.082,0.004,0.129-0.026,0.14-0.09c0.011-0.049,0.019-0.107,0.022-0.174c0.019,0.004,0.045,0.011,0.079,0.022
			c0.034,0.011,0.058,0.019,0.073,0.022c-0.008,0.067-0.019,0.135-0.034,0.202c-0.022,0.097-0.105,0.144-0.247,0.14H16.424z
			 M16.362,15.77c-0.03,0.049-0.067,0.099-0.112,0.151h0.589v0.449h0.101c0.075,0.004,0.114-0.034,0.118-0.112
			c0.007-0.153,0.011-0.316,0.011-0.488H16.362z M16.328,16.05v0.191h0.365V16.05H16.328z"/>
	</g>
	<g>
		<path fill="#FFFFFF" d="M18.46,16.393c-0.004-0.011-0.008-0.026-0.011-0.045c-0.008-0.037-0.015-0.067-0.022-0.09
			c0.026,0,0.056,0,0.09,0c0.045,0.004,0.069-0.024,0.073-0.084c0.007-0.112,0.011-0.204,0.011-0.275l-0.191,0.056v0.589h-0.14
			v-0.55l-0.179,0.056v0.499c-0.008,0.082,0.034,0.122,0.123,0.118h0.292c0.09,0.004,0.138-0.026,0.146-0.09
			c0.011-0.052,0.021-0.107,0.028-0.163c0.037,0.019,0.082,0.036,0.135,0.05c-0.011,0.075-0.024,0.14-0.039,0.196
			c-0.019,0.09-0.094,0.133-0.224,0.129h-0.393c-0.142,0.004-0.211-0.06-0.208-0.191v-0.505l-0.095,0.028l-0.022-0.118h-0.095v0.477
			c0.011-0.004,0.028-0.007,0.05-0.011c0.041-0.011,0.075-0.019,0.101-0.022c0,0.045,0.002,0.092,0.006,0.14
			c-0.037,0.008-0.105,0.024-0.202,0.05c-0.101,0.022-0.176,0.039-0.224,0.05l-0.028-0.14l0.163-0.034v-0.51h-0.135v-0.14h0.135
			v-0.37h0.135v0.37h0.123v0.107l0.09-0.022v-0.308h0.14v0.264l0.179-0.05v-0.359h0.14v0.32l0.331-0.095
			c0,0.209-0.006,0.368-0.017,0.477c0,0.123-0.045,0.185-0.135,0.185C18.555,16.389,18.512,16.393,18.46,16.393z"/>
	</g>
	<g>
		<path fill="#FFFFFF" d="M18.903,15.983v-0.14h0.157v-0.348h0.146v0.348h0.151v0.14h-0.151v0.466l0.168-0.05
			c-0.004,0.022-0.004,0.056,0,0.101c0,0.019,0,0.034,0,0.045c-0.037,0.011-0.105,0.03-0.202,0.056
			c-0.12,0.037-0.208,0.062-0.264,0.073l-0.028-0.14l0.179-0.045v-0.505H18.903z M19.267,16.763v-0.129h0.185v-0.853h0.146v0.853
			h0.185v-1.139h0.157v0.409h0.258v0.14H19.94v0.589h0.303v0.129H19.267z"/>
	</g>
</g>
<g>
	<path fill="#CEBD32" d="M4.874,23.773v13.101c0,0.954,0.776,1.73,1.73,1.73h1.172v0.528H6.604c-1.245,0-2.258-1.013-2.258-2.258
		V23.773c0-0.05,0.004-0.098,0.007-0.147h0.528C4.877,23.674,4.874,23.723,4.874,23.773"/>
</g>
<g>
	<path fill="#CEBD32" d="M4.874,24.952V9.215c0-0.954,0.776-1.73,1.73-1.73h1.172V6.957H6.604c-1.245,0-2.258,1.013-2.258,2.258
		v15.737c0,0.05,0.004,0.098,0.007,0.147h0.528C4.877,25.051,4.874,25.002,4.874,24.952"/>
</g>
<g>
	<polygon fill="#CEBD32" points="7.44,6.352 8.788,7.13 7.44,7.908 	"/>
</g>
<g>
	<path fill="#D8DADA" d="M24.295,7.529h16.661c0.954,0,1.73,0.776,1.73,1.73v4.559h0.528V9.259c0-1.245-1.013-2.258-2.258-2.258
		H24.295c-0.05,0-0.099,0.004-0.147,0.007v0.528C24.196,7.532,24.245,7.529,24.295,7.529"/>
</g>
<g>
	<polygon fill="#D8DADA" points="43.716,13.482 42.938,14.83 42.159,13.482 	"/>
</g>
<g>
	<path fill="#D8DADA" d="M25.364,38.604h15.635c0.955,0,1.731-0.776,1.731-1.73v-1.48h0.528v1.48c0,1.245-1.013,2.258-2.258,2.258
		H25.364c-0.05,0-0.099-0.004-0.147-0.007v-0.528C25.266,38.6,25.315,38.604,25.364,38.604"/>
</g>
<g>
	<polygon fill="#D8DADA" points="25.547,38.109 24.198,38.887 25.547,39.666 	"/>
</g>
<g>
	<rect x="2.073" y="18.828" fill="#FFFFFF" width="4.527" height="2.582"/>
</g>
<g>
	<g>
		<path fill="#9B9A9A" d="M1.292,19.827v-0.12c0.022-0.045,0.05-0.112,0.082-0.202l0.125,0.019
			c-0.006,0.013-0.014,0.035-0.024,0.067c-0.022,0.058-0.038,0.098-0.048,0.12h0.212c0.026-0.087,0.045-0.17,0.058-0.25l0.135,0.01
			c-0.003,0.016-0.008,0.04-0.014,0.072c-0.016,0.074-0.03,0.13-0.043,0.168h0.635v0.115H1.744c-0.013,0.042-0.027,0.085-0.043,0.13
			h0.586v0.106c-0.064,0.128-0.146,0.231-0.245,0.308c0.096,0.048,0.216,0.083,0.361,0.106c-0.026,0.048-0.048,0.091-0.067,0.13
			c-0.167-0.045-0.303-0.098-0.409-0.159c-0.122,0.061-0.264,0.117-0.428,0.168c-0.003-0.01-0.01-0.022-0.019-0.038
			c-0.01-0.022-0.024-0.05-0.043-0.082c0.151-0.032,0.277-0.074,0.38-0.125c-0.077-0.07-0.139-0.154-0.187-0.25
			c-0.087,0.163-0.199,0.308-0.337,0.433c-0.013-0.038-0.029-0.083-0.048-0.135c0.173-0.16,0.293-0.357,0.361-0.591H1.292z
			 M2.133,20.067H1.734c0.042,0.087,0.106,0.165,0.192,0.236C2.019,20.235,2.088,20.157,2.133,20.067z M2.176,19.711
			c-0.058-0.061-0.117-0.115-0.178-0.163l0.077-0.077c0.016,0.013,0.042,0.034,0.077,0.062c0.054,0.042,0.093,0.071,0.115,0.087
			L2.176,19.711z"/>
	</g>
	<g>
		<path fill="#9B9A9A" d="M3.566,20.606c-0.099-0.067-0.181-0.131-0.245-0.192c-0.071,0.067-0.162,0.136-0.274,0.207
			c-0.006-0.01-0.016-0.022-0.029-0.038c-0.022-0.035-0.04-0.061-0.053-0.077c0.122-0.064,0.213-0.13,0.274-0.197
			c-0.058-0.096-0.098-0.21-0.12-0.341c-0.019,0.035-0.04,0.067-0.062,0.096c0-0.003-0.003-0.008-0.01-0.014
			c-0.022-0.038-0.04-0.066-0.053-0.082c0,0.077-0.003,0.196-0.01,0.356c-0.003,0.045-0.005,0.077-0.005,0.096
			c0,0.106-0.05,0.159-0.149,0.159c-0.058,0-0.098,0.002-0.12,0.005c-0.003-0.019-0.01-0.048-0.019-0.087
			c-0.003-0.013-0.006-0.022-0.01-0.029c0.01,0,0.024,0,0.043,0c0.022,0.003,0.04,0.005,0.053,0.005
			c0.058,0.003,0.085-0.024,0.082-0.082c0.01-0.112,0.014-0.223,0.014-0.332H2.72c-0.006,0.25-0.059,0.436-0.159,0.558
			c-0.029-0.029-0.059-0.059-0.091-0.091c0.087-0.115,0.131-0.293,0.135-0.534c0-0.026,0.002-0.062,0.005-0.111
			c0-0.048,0-0.083,0-0.106h-0.12v-0.115h0.25c-0.016-0.07-0.034-0.13-0.053-0.178l0.135-0.019c0.006,0.022,0.016,0.061,0.029,0.115
			c0.013,0.038,0.021,0.066,0.024,0.082h0.168v0.115H2.729l-0.005,0.168h0.264c0.09-0.135,0.159-0.295,0.207-0.481l0.13,0.014
			c-0.013,0.061-0.034,0.123-0.062,0.187h0.375v0.12H3.556c-0.022,0.228-0.075,0.402-0.159,0.524
			c0.061,0.074,0.144,0.133,0.25,0.178c-0.01,0.016-0.026,0.04-0.048,0.072C3.583,20.58,3.572,20.596,3.566,20.606z M3.32,20.202
			c0.058-0.103,0.096-0.242,0.115-0.418H3.215l-0.01,0.024C3.224,19.965,3.263,20.096,3.32,20.202z"/>
	</g>
	<g>
		<path fill="#9B9A9A" d="M4.782,19.543h0.163v0.577c0.01,0.301-0.13,0.445-0.418,0.433c-0.276,0.01-0.41-0.135-0.404-0.433v-0.577
			h0.163v0.577c-0.003,0.202,0.077,0.3,0.24,0.293c0.176,0.006,0.261-0.091,0.255-0.293V19.543z"/>
	</g>
	<g>
		<path fill="#9B9A9A" d="M5.921,19.798l-0.168,0.048c-0.029-0.122-0.103-0.181-0.221-0.178c-0.135,0-0.204,0.045-0.207,0.135
			c-0.013,0.064,0.062,0.111,0.226,0.139c0.272,0.051,0.405,0.159,0.399,0.322c-0.01,0.186-0.139,0.282-0.389,0.288
			c-0.25,0.01-0.397-0.093-0.442-0.308l0.163-0.048c0.016,0.147,0.107,0.218,0.274,0.212c0.147,0,0.221-0.05,0.221-0.149
			c0.013-0.074-0.071-0.128-0.25-0.163c-0.26-0.051-0.385-0.149-0.375-0.293c0.01-0.179,0.135-0.272,0.375-0.279
			C5.745,19.527,5.876,19.618,5.921,19.798z"/>
	</g>
	<g>
		<path fill="#9B9A9A" d="M6.484,20.533H6.123v-0.995h0.37c0.324,0.003,0.487,0.17,0.49,0.5C6.993,20.378,6.827,20.543,6.484,20.533
			z M6.488,19.687H6.287v0.711h0.197c0.224,0.003,0.335-0.115,0.332-0.356C6.812,19.809,6.703,19.691,6.488,19.687z"/>
	</g>
	<g>
		<path fill="#9B9A9A" d="M7.916,19.687H7.585v0.851H7.421v-0.851H7.085v-0.144h0.832V19.687z"/>
	</g>
</g>
<g>
	<rect x="40.692" y="9.528" fill="#FFFFFF" width="4.527" height="2.582"/>
</g>
<g>
	<g>
		<path fill="#9B9A9A" d="M41.93,10.647v-0.12h0.25v-0.178c-0.019,0-0.046,0.002-0.082,0.005c-0.064,0.006-0.111,0.01-0.139,0.01
			c0-0.003,0-0.006,0-0.01c-0.007-0.048-0.013-0.083-0.019-0.106c0.218-0.013,0.405-0.027,0.562-0.043l0.024,0.115
			c-0.019,0-0.051,0.003-0.096,0.01c-0.055,0.003-0.096,0.006-0.125,0.01v0.187h0.24v0.12h-0.24v0.135l0.038-0.038
			c0.112,0.09,0.186,0.152,0.221,0.187l-0.087,0.091c-0.038-0.038-0.096-0.093-0.173-0.163v0.452H42.18v-0.462
			c-0.055,0.109-0.13,0.212-0.226,0.308c-0.003-0.029-0.016-0.083-0.038-0.163c0.109-0.093,0.192-0.208,0.25-0.346H41.93z
			 M42.608,11.027v-0.721h0.12v0.721H42.608z M42.675,11.296c0-0.006-0.002-0.016-0.005-0.029c-0.007-0.045-0.014-0.077-0.024-0.096
			c0.032,0.003,0.091,0.005,0.178,0.005c0.051,0,0.075-0.027,0.072-0.082v-0.918h0.125v0.957c0.003,0.099-0.046,0.152-0.149,0.159
			c-0.013,0-0.043,0-0.091,0C42.73,11.295,42.695,11.296,42.675,11.296z"/>
	</g>
	<g>
		<path fill="#9B9A9A" d="M43.252,11.243l-0.106-0.048c0.042-0.077,0.077-0.157,0.106-0.24l0.115,0.038
			C43.326,11.099,43.287,11.182,43.252,11.243z M43.286,10.897v-0.63h0.312c0.01-0.038,0.019-0.074,0.029-0.106l0.139,0.01
			c-0.01,0.029-0.022,0.061-0.038,0.096h0.447v0.63H43.286z M43.411,10.364v0.087h0.639v-0.087H43.411z M43.411,10.537v0.091h0.639
			v-0.091H43.411z M43.411,10.71v0.091h0.639V10.71H43.411z M43.579,11.291c-0.106,0.003-0.157-0.047-0.154-0.149V10.96h0.125v0.154
			c-0.003,0.051,0.027,0.075,0.091,0.072h0.192c0.058,0.003,0.091-0.014,0.101-0.053c0.003-0.01,0.008-0.029,0.014-0.058
			c0.003-0.022,0.006-0.038,0.01-0.048c0.038,0.016,0.077,0.029,0.115,0.038c-0.01,0.051-0.019,0.091-0.029,0.12
			c-0.019,0.074-0.08,0.109-0.183,0.106H43.579z M43.762,11.118c-0.035-0.048-0.074-0.098-0.115-0.149l0.096-0.058
			c0.019,0.019,0.046,0.05,0.082,0.091c0.019,0.022,0.034,0.038,0.043,0.048L43.762,11.118z M44.219,11.21
			c-0.007-0.006-0.014-0.018-0.024-0.034c-0.048-0.07-0.091-0.13-0.13-0.178l0.101-0.058c0.054,0.071,0.107,0.141,0.159,0.212
			L44.219,11.21z"/>
	</g>
</g>
</svg>
